<svg xmlns="http://www.w3.org/2000/svg" viewBox="0 0 3333.34 1447.66" shape-rendering="geometricPrecision" text-rendering="geometricPrecision" image-rendering="optimizeQuality" fill-rule="evenodd" clip-rule="evenodd"><defs><linearGradient id="a" gradientUnits="userSpaceOnUse" x1="1649.01" y1=".02" x2="1649.01" y2="1447.48"><stop offset="0" stop-color="#f79810"/><stop offset="1" stop-color="#DD5613"/></linearGradient></defs><path d="M37.75 865.82c-6.95 0-12.48 5.38-13.37 13.05L.01 1064.02l24.37 181.96c.89 7.67 6.42 13.01 13.37 13.01 6.73 0 12.22-5.31 13.3-12.94v-.04.04l28.9-182.04-28.9-185.19c-1.04-7.61-6.61-12.99-13.3-12.99zm137.07-101.17c-1.15-7.95-6.84-13.44-13.87-13.44-7.06 0-12.91 5.67-13.87 13.44 0 .07-32.76 299.36-32.76 299.36l32.76 292.74c.93 7.85 6.77 13.51 13.87 13.51 6.99 0 12.69-5.52 13.83-13.44l37.29-292.8-37.24-299.36zm516.36-276.14c-13.44 0-24.55 11-25.2 24.98l-26.09 550.78 26.09 355.93c.68 13.92 11.76 24.88 25.2 24.88 13.37 0 24.44-11 25.24-24.96v.11l29.51-355.97-29.51-550.78c-.8-13.96-11.87-24.97-25.24-24.97zM423.93 679.94c-10.32 0-18.75 8.25-19.57 19.25l-29.4 364.94 29.4 353.07c.78 10.93 9.25 19.19 19.57 19.19 10.22 0 18.65-8.25 19.54-19.19l33.41-353.07-33.41-365.01c-.89-10.93-9.32-19.19-19.54-19.19zm538.84 765.11c16.66 0 30.21-13.44 30.9-30.65l25.59-349.95-25.57-733.26c-.68-17.21-14.22-30.65-30.91-30.65-16.81 0-30.4 13.48-30.93 30.69 0 .04-22.7 733.2-22.7 733.2l22.7 350.09c.54 17.06 14.12 30.54 30.91 30.54zm556 1.65c22.94 0 41.87-18.89 42.3-42.13v.26-.26l17.86-339.91-17.86-846.87c-.39-23.2-19.36-42.13-42.3-42.13-22.98 0-41.95 18.89-42.3 42.17l-15.95 846.55c0 .54 15.95 340.41 15.95 340.41.35 23.01 19.35 41.91 42.3 41.91zm-280.12-1.33c19.97 0 36.07-16.03 36.59-36.46v.26l21.72-344.64-21.74-738.59c-.54-20.43-16.64-36.42-36.59-36.42-20.11 0-36.2 15.99-36.64 36.42l-19.32 738.62 19.36 344.58c.42 20.21 16.52 36.24 36.63 36.24zm-681.62-3.22c11.87 0 21.48-9.5 22.37-22.02l31.47-356.01-31.47-338.65c-.87-12.5-10.48-21.93-22.37-21.93-12.04 0-21.65 9.5-22.41 22.08l-27.71 338.52 27.71 355.97c.8 12.55 10.37 22.04 22.41 22.04zm-265.13-19.51c8.67 0 15.7-6.84 16.71-16.31l35.35-342.27-35.31-355.18c-1.04-9.5-8.06-16.35-16.75-16.35-8.78 0-15.81 6.88-16.7 16.35 0 .04-31.12 355.18-31.12 355.18l31.12 342.21c.85 9.5 7.89 16.38 16.7 16.38zM1378.17 313.65c-21.69 0-39.07 17.24-39.51 39.32l-17.64 711.61 17.64 342.42c.43 21.8 17.78 39.04 39.51 39.04 21.65 0 38.93-17.21 39.43-39.29v.28l19.8-342.42-19.8-711.71c-.5-22-17.78-39.25-39.43-39.25zM826.46 1445.77c14.98 0 27.35-12.22 28.07-27.81l27.53-353.57-27.53-676.74c-.76-15.63-13.09-27.81-28.07-27.81-15.13 0-27.46 12.22-28.1 27.81 0 .04-24.37 676.74-24.37 676.74l24.42 353.71c.61 15.46 12.94 27.68 28.06 27.68zm307.44-33.37v-.18l23.66-347.73-23.66-757.97c-.57-18.82-15.42-33.59-33.74-33.59-18.43 0-33.26 14.73-33.76 33.59l-21 757.94 21.04 347.91c.5 18.64 15.34 33.37 33.74 33.37 18.36 0 33.13-14.73 33.74-33.48l-.01.13zm1789.47-784.83c-56.17 0-109.78 11.37-158.59 31.84C2732.15 289.89 2422.28.01 2044.3.01c-92.48 0-182.65 18.21-262.26 49.01-30.93 11.98-39.19 24.31-39.47 48.22v1301.29c.33 25.09 19.8 46 44.28 48.46 1.04.11 1129.18.68 1136.49.68 226.41 0 409.99-183.58 409.99-410.03 0-226.45-183.55-410.07-409.96-410.07zM1658.76 96.09c-24.63 0-44.85 20.22-45.2 45.07l-18.5 923.63L1613.6 1400c.33 24.48 20.54 44.67 45.17 44.67 24.55 0 44.78-20.19 45.13-45.02v.39l20.11-335.25-20.12-923.7c-.37-24.77-20.58-45-45.13-45z" fill="url(#a)" fill-rule="nonzero"/></svg>