<svg id="Layer_1" data-name="Layer 1" xmlns="http://www.w3.org/2000/svg" viewBox="0 0 870.13 603.04"><defs><style>.cls-1{fill:#505050;}.cls-2{fill:#505050;}.cls-3{fill:#505050;}.cls-4{fill:#505050;}.cls-5{fill:#505050;}.cls-6{fill:#505050;}</style></defs><path class="cls-1" d="M268.22,213.49q0,72.39,0,144.78c-4.05,3.37-21.08,3.37-25.13,0q0-72.39,0-144.78C247.34,210.41,264,210.41,268.22,213.49Z"/><path class="cls-2" d="M268.22,213.49H243.11L243,79.14c0-10.35,0-10.35,10.19-10.35,3.92,0,7.85.11,11.76,0,2.39-.09,3.46.4,3.45,3.15Q268.22,142.7,268.22,213.49Z"/><path class="cls-3" d="M243.1,358.27h25.13q.06,70.11.15,140.21c0,3.54-1.31,4.84-4.8,4.72-5.57-.17-11.16-.09-16.74,0-2.64,0-4-1.09-3.82-3.78,0-.3,0-.6,0-.9Q243,428.37,243.1,358.27Z"/><path class="cls-4" d="M779.17,89.32c7.35-6.4,11.37-6.4,17.89-.42,1.74,1.6,2.08-.12,2.69-.78a11.17,11.17,0,0,1,8.47-3.6c5.22-.09,8.83,2.48,9.57,7.64,1.54,10.78.45,21.65.65,32.48,0,3.08-2.47,1.8-4,2-2.27.36-2.77-.87-2.75-2.9.08-7.23.05-14.46,0-21.69a50.91,50.91,0,0,0-.31-7.21c-.39-2.67-1.61-5-4.77-5.13a6.14,6.14,0,0,0-6.42,4,18.71,18.71,0,0,0-1.29,7.5c0,7.38-.08,14.77.06,22.14,0,2.53-.69,3.36-3.27,3.35s-3.32-.78-3.34-3.34c0-9.17.46-18.36-.34-27.53-.26-2.89-.8-5.51-4.19-6-3.55-.56-5.64,1.42-7,4.45-1.26,2.83-1.22,5.87-1.25,8.87q-.11,9.7,0,19.43c0,2.44.09,4.24-3.43,4.22-3.28,0-3.56-1.38-3.54-4,.1-11.14,0-22.29.08-33.44,0-1.66-1.29-4.13,2.21-4.23C777.49,85.08,779.8,85,779.17,89.32Z"/><path class="cls-2" d="M458.84,95.84c-2.14,9.22-4.47,18.39-6.32,27.66-.64,3.17-2.27,3.26-4.71,3.25s-4.36.1-5.14-3.33c-2.59-11.44-5.72-22.76-8.48-34.17-.29-1.19-2.12-3.52.75-3.91,2.41-.33,5.44-1.34,6.25,2.9,1.64,8.57,3.62,17.07,5.48,25.6a9.36,9.36,0,0,0,1.67,4c2.17-9.35,4.38-18.69,6.47-28.06.58-2.57.76-4.65,4.5-4.71s4.77,1.65,5.45,4.8c2,9.39,4.3,18.74,7.24,28.14l6.36-29.18c.34-1.56.15-3.28,2.53-3.63,4.06-.59,4.82,0,3.84,4-2.8,11.39-5.77,22.74-8.37,34.17-.8,3.52-2.9,3.3-5.54,3.44-2.84.15-3.84-.87-4.43-3.64-2-9.18-4.3-18.29-6.5-27.42Z"/><path class="cls-4" d="M387.24,122.63c-3.45,3.16-6.29,4.7-9.78,4.87-6.28.29-10.9-3-11.18-9.24-.47-10.23-.22-20.49-.31-30.74,0-3,2.16-2.15,3.82-2.33,2.19-.24,2.88.76,2.86,2.87-.07,7.84,0,15.68,0,23.51a38.93,38.93,0,0,0,.31,5c.41,3.12,1.82,5.42,5.31,5.73a6.83,6.83,0,0,0,7.52-4.54,18.36,18.36,0,0,0,1.2-7.08c-.08-7.23,0-14.47-.07-21.7,0-2.42.16-3.83,3.29-3.86s3.7,1.36,3.69,4.06c0,11.15.18,22.3.11,33.45,0,1.39,1.48,4-1.76,4.07C389.91,126.67,386.52,128.06,387.24,122.63Z"/><path class="cls-4" d="M415.69,127.5c-7.33,0-12-3.84-12.38-10.31-.09-1.37-.66-3.39,1.86-3.09,1.79.21,4.55-1.43,5,2.06.35,2.82.93,5.5,4.22,6.14,2.61.51,5.35.43,6.7-2.34,1.69-3.48,1.16-7-1.91-9.35-2.83-2.2-6.15-3.76-9.21-5.65-5-3.09-6.95-7.88-5.4-13.06s6.37-7.81,13.45-7.38c6.09.37,9.37,3.07,10.28,8.77.18,1.18,1.39,3.44-1.19,3.41-1.88,0-4.87,1.75-5.49-1.9-.38-2.22-1-4.23-3.25-5-2.41-.83-4.94-.69-6.42,1.76a5.53,5.53,0,0,0,.74,7.07c2.42,2.57,5.72,3.83,8.68,5.59,3.56,2.13,6.7,4.56,7.29,9.14C429.79,122.45,425.2,127.52,415.69,127.5Z"/><path class="cls-4" d="M684.34,127.5c-7.64,0-12.37-4.17-12.34-10.77,0-1.41-.06-3,2-2.63,1.61.3,4.09-1.5,4.63,1.8.48,2.84,1,5.87,4.57,6.45,2.61.42,5.34.32,6.58-2.58,1.49-3.49,1.08-7-2.09-9.31-2.87-2.14-6.19-3.68-9.24-5.61-5.14-3.26-6.93-8.17-5.07-13.59,1.63-4.77,7-7.37,13.93-6.72,5.74.54,8.67,3.24,9.56,9,.2,1.26,1.36,3.45-1.31,3.2-1.79-.17-4.83,2-5.29-2-.26-2.2-1.18-4.18-3.39-4.91s-4.55-.64-6.14,1.49a5.21,5.21,0,0,0,0,6.68c2,2.79,5.19,4,8.06,5.6,7.37,4.14,10,9.07,8.26,15.65C695.56,125,691.64,127.53,684.34,127.5Z"/><path class="cls-5" d="M557.28,105.6c0-3.16,0-6.32,0-9.48,0-3,1-6.73-4.39-5.83-1.66.28-1.67-1.36-1.68-2.58s.18-2.7,1.84-2.44c4.36.67,4.47-1.88,4.29-5.06-.11-2,4-5.17,5.94-4.9,1.1.15,1,.94,1,1.64a30.86,30.86,0,0,1,0,4.51c-.36,3,.76,4.09,3.75,3.78,1.65-.17,3.62-.64,3.7,2.38.09,3.22-1.9,2.92-3.82,2.74-2.64-.24-3.75.5-3.67,3.43.21,7.52.12,15,.08,22.57,0,3.42,1.15,5.61,5,5.23,2.06-.21,2.54.72,2.57,2.59s-.6,2.53-2.47,2.88c-7.32,1.35-11.36-1.45-11.86-8.83-.28-4.19,0-8.42,0-12.63Z"/><path class="cls-4" d="M838.91,75.22c0,1.52.05,2.56,0,3.6-.21,3.74-.65,7.53,5.23,6.44,2-.37,2,1.25,2,2.68.05,1.67-.56,2.73-2.33,2.42-5.07-.9-5.07,2.15-5,5.81.19,6.32.06,12.66,0,19,0,3.87.73,7,5.74,6.46,2-.23,2.13,1.07,2.14,2.57s-.14,2.54-2,2.76c-7.12.82-12.75-.49-12.44-9,.28-7.82-.08-15.67,0-23.5,0-2.57-.16-4.55-3.53-4-1.84.28-2.69-.43-2.73-2.48,0-2.3.94-2.93,3-2.71s3.71-.32,3.23-2.88C831.29,77.32,834.66,76.27,838.91,75.22Z"/><path class="cls-4" d="M537,89.34c2.45-2,4.07-3.82,6.32-4.13,1.56-.21,4.06-2.11,4.64,1.33.42,2.49.54,4.44-3.18,4.73-4.83.37-7.17,3.59-7.39,9.67-.27,7.36-.2,14.74-.11,22.11,0,2.47-.23,3.78-3.32,3.78s-3.24-1.5-3.26-3.87c-.09-11.12.37-22.25-.29-33.38-.1-1.57-1.32-4.32,2.1-4.36C535,85.2,538.23,84.12,537,89.34Z"/><path class="cls-2" d="M579.64,105.77c0-5.73.09-11.46,0-17.18-.05-2.43.55-3.54,3.25-3.47,2.4.06,3.53.52,3.5,3.23q-.18,17.63,0,35.26c0,2.77-1.15,3.1-3.5,3.17-2.65.08-3.33-.9-3.27-3.39C579.74,117.52,579.64,111.64,579.64,105.77Z"/><path class="cls-2" d="M579.35,72.16c-.66-3.39,1-3.93,3.76-4,3.19-.1,3.63,1.37,3.67,4.06,0,2.85-1.08,3.57-3.72,3.55S578.52,75.21,579.35,72.16Z"/><path class="cls-6" d="M502.77,71.56c.25,2.73.46,4.66-3.2,4.61-3.38,0-3.11-1.82-3.09-4s-.43-4.45,3.3-4.29C503,68,503.19,69.54,502.77,71.56Z"/><path class="cls-6" d="M515.7,72.81c.39,2.15-.36,3.2-3.29,3.34-3.73.18-3.16-2-3.27-4.22-.12-2.58.16-4.09,3.5-4.05C516.45,67.92,515.58,70.3,515.7,72.81Z"/><path class="cls-2" d="M161.43,121.82c1.76-1.25,2,.58,2.58,1.41,4.19,6.44,8.09,13.07,12.48,19.37,5,7.12,11.85,9.72,19.14,7.58-11.68-9.67-17.69-23.26-25.78-35.36-1.59-2.37-1.44-2.47.72-5.2,6.94,9.89,11.29,23.19,27.45,21.26-.08-.5,0-.87-.19-1-12.59-12.27-21.53-26.94-28.4-43a26.31,26.31,0,0,0-5.49-8.76c-1.77-1.72-2.81-3.14,1.49-4.69-6.9-.68-12.22-2.29-17.57-3.78a15.35,15.35,0,0,0-5.78-.82c-1.93.21-3.54.93-4.13,2.94A4.54,4.54,0,0,0,139.74,77c2.17,1.7,4.69,1.9,7.29,1.79,1.63-.06,3.11-.24,4.41,1.41,5.57,7.13,4.8,15.44-2.11,21.34-4.69,4-10.29,5.47-16.24,6a2.63,2.63,0,0,1-2.78-1c-2.57-4-5.06-8-3.7-13,1-3.77,2.28-7.49,3.42-11.23s1.91-7.83,0-11.45c-1.42-2.74-1.16-4.9.72-7.35A33.42,33.42,0,0,1,125,62.9c-7.68-2.12-15.33.54-23,0a6.39,6.39,0,0,0-2.63.61c-3,1.17-3.64,3.25-2.43,6.17,1,2.43,1.49,4.74,5.32,3.24,4.22-1.66,6.79.21,8.06,4.79-4,1.14-8-.75-12.67-.75,3.89,5,9.6,4,14.91,6.39-5.3,2.14-8.92-1.17-13.15-1.47,1,3.33,3.51,5.15,6.13,6.36,3.32,1.54,2.72,2.81.79,5.12-2.31,2.75-5,5.66-6,9-1.66,5.69-5,5.75-9.54,4.57-7.62-2-14.2-5.25-16.68-13.49-1.44-4.78.84-8.78,3-12.78,1.7-3.1,4.53-1.51,6.88-1.81a9.65,9.65,0,0,0,5.37-2.11,4.44,4.44,0,0,0,1.45-4.89,4.06,4.06,0,0,0-3.69-2.88,13,13,0,0,0-5.36.52A111,111,0,0,1,62.9,73.54c5.74,1.42,3.48,2.94,2,4.55a26.17,26.17,0,0,0-6,10.5,34.13,34.13,0,0,1-4.43,9.32C47,109.14,41.21,121.52,29.68,131c7.75.4,13.58-.86,18.19-6,4.21-4.73,6.79-10.58,10.79-15.59,2.26,4.19,3.8-.48-9.68,21.57-4.37,7.16-9.27,13.88-16.42,19.79,9,1,15.36-1.5,19.81-8.08,4.29-6.36,8.27-12.94,12.45-19.38.54-.84.82-2.64,2.58-1.45,1.23.82,1.35,1.82.51,3.06-8.07,12-14.35,25.14-24.07,36-1.54,1.72-3.92,2.72-4.81,5.35,8.52.93,15-2.06,19.5-9,5.57-8.59,11-17.3,16.45-25.95.68-1.07,1.17-2.68,3-1.56s.59,2.3-.07,3.35c-5,8.05-10.14,16-15.06,24.15-4.56,7.51-9.49,14.68-16.24,20.44-.26.22-.23.78-.34,1.19,9.16.86,15.85-2.85,20.58-10.45q9.8-15.72,19.67-31.4c.79-1.25,1.54-2.92,3.46-1.69s.18,2.44-.43,3.34C78.21,155.38,70,174.24,54.91,188.78c10.47,1.84,16.69-3.56,21.61-11.45q10.86-17.46,21.82-34.86c.82-1.3,1.19-3.13,3.61-3.82,2.79,16.34-6.56,27-17.22,37.68l6.51.52c-2.3,5-5.42,9.21-8.46,13.46-.9,1.26-2.17.73-3.33.66-2.85-.15-5.71-.43-8.56-.5A3,3,0,0,0,67.61,193a7.61,7.61,0,0,0,2,6.71c1.6,1.65,2-1,3.14-1.3,1.59-.45,3.07-1.63,5-.66-1.74,2.15-3.5,4-4.9,6.13-2,3-1.11,5.77,1.61,7.9,1.79,1.41,3.18,1.5,3.51-1.38a9.32,9.32,0,0,1,3.61-6.49c.49,2.62.59,5.1,1.45,7.26,1.22,3,4,3,6.53,1.93,2.94-1.25-.06-2.56-.28-3.86a41.08,41.08,0,0,1-.89-4.84c-.36-7.32,2.22-9,8.94-5.57,1.34.67,2.23,1.4,3.39-.07,1.33-1.66,2.76-3.24,2.2-5.62-.42-1.83-1.76-2.29-3.4-2.3H91.8a52.57,52.57,0,0,1,6.6-9.6c1.46.64,1.44,2.75,3.41,2.94,1.43-4.39,1.64-9.33,5.69-13.49a77,77,0,0,1,.08,24c-1.18,7.47-2.74,15-10.41,19-1.22.64-.71,1.37-.11,2.16a5.46,5.46,0,0,0,8.31.55,47.07,47.07,0,0,0,3.14-4.06c1.94,2.66,2.2,7,6,7s3.88-4.62,6-7c1,1.37,1.76,2.67,2.75,3.79a5.36,5.36,0,0,0,8.31,0c1-1.09,1.39-1.83-.32-2.68-5-2.52-7.11-7.21-8.55-12.21-2.72-9.42-2.48-19.06-1.66-28.7,0-.52.31-1.17,1.22-1,3.19,3.59,3.32,8.58,5.18,13.35l3-3.79c1.32,1.76,2.59,3.26,3.63,4.9s2.71,2.85,2.63,5.24c-2.19-.12-4.29-.28-6.39-.31-1.65,0-3.43-.14-4.13,1.92-.88,2.57.74,4.26,2.13,6.05s2.47.3,3.76-.3c6.26-2.95,8.87-1.25,8.61,5.48-.09,2.27-.24,4.55-1.73,6.42s-.34,2.72,1.33,3c3,.55,5.48,0,6.1-3.58.33-1.89.61-3.79,1-6.07a11.94,11.94,0,0,1,3.58,5.74c.34,1-.31,2.7,1.17,3,1.65.39,2.81-.87,3.75-2.06a5.35,5.35,0,0,0,.05-7.07c-1.47-2-3.11-3.82-4.83-5.92a6.69,6.69,0,0,1,6.16,1.82c.91.88,1.63,1.33,2.45,0,1.32-2.1,2.33-4.35,1.46-6.82s-3.35-2.18-5.41-2.12c-2.25.07-4.5.39-6.75.59-1,.09-2.11.35-2.87-.73-3-4.26-6.17-8.43-8.36-13.29,2.15-.83,4.25.32,6-1.17-10.43-10.28-19.54-20.9-16.18-36.83a13.88,13.88,0,0,1,3.22,3.81c7.88,12.48,15.64,25,23.66,37.43,4.46,6.87,10.86,10,20.06,8.49-8-6.41-13-14.39-18-22.42-5.77-9.36-11.64-18.66-17.44-28-.55-.89-1.94-1.9-.23-3s2.49-.11,3.22,1.24c.35.66.78,1.29,1.18,1.92,6.5,10.33,12.83,20.76,19.55,30.94,5.18,7.83,11.3,10.38,19.77,9.08,0-.14,0-.34-.05-.41C168.55,165.3,161.1,148,150.7,132.73c-.7-1-1.5-2,.07-3s2.15,0,2.83,1.09c1.49,2.45,3,4.91,4.56,7.28,5.06,7.47,8.91,15.75,15,22.53,4.46,5,10.12,6.29,17.58,5.36-2.35-2.13-4.13-3.51-5.62-5.14-9.85-10.77-16.07-24-24.15-36C160.12,123.66,160.25,122.66,161.43,121.82Zm-64.51-2.37c0,3.75-3.11,2.06-4.72,1.74-11.42-2.22-19.91-8.41-24.33-19.36-3.52-8.7-.73-18.22,7.55-24.46-10.79,16.06-3.59,31.94,14.91,35.71a12.22,12.22,0,0,0,3.11.53C98.51,113.23,96.91,117.2,96.92,119.45Zm-.16,60.41c-3.1,4-6.46,7.9-8.37,13.69,3.76-.3,6.89-.59,10-.79,1.2-.08,2.75-.14,2.34,1.71-.31,1.39-.84,2.59-3.09,2.15-14.61-2.79-11-1.11-11.14,10.81,0,1.27.63,2.54.26,4-4.11-3-1.64-8-3.48-12-4.25,2-5.79,6.33-8.64,11-2.08-7.75,5.31-9.44,7-14.34-3.88-1.39-7.53-.71-11.19,1.07-1.45-3.23-1.09-5.6,2.85-4.4,8.91,2.69,13.17-2.3,16.62-9.16,1-2,2.31-3.88,3.31-5.89.69-1.39,1.44-2.46,3.07-1.56S97.88,178.41,96.76,179.86ZM114.3,77.75c-2-2-2.65-4.91-5.1-6.33s-4.62-2-7.27-1c-1.67.68-2.45-.33-2.88-1.84a2.21,2.21,0,0,1,1.18-3c2.71-1.43,9.68-.31,12.35,2.2C115.52,70.6,116.24,73.84,114.3,77.75Zm5.86-6.47c-.9.49-2.17,1-2.72-.27s-1.65-2.52-1.29-4.1a1.25,1.25,0,0,1,.86-.78c.26,0,.87.39.87.61,0,5,2.41.65,3.49.66C122.44,69.4,121.57,70.51,120.16,71.28Zm12.32,104.86c1.59-.93,2.3.12,3.09,1.46,2.52,4.28,5.25,8.43,7.82,12.67,1.46,2.41,3.06,3.73,6.22,2.8,2.25-.67,4.78-.42,7.18-.54.91-.05,2-.1,2.22,1a4.75,4.75,0,0,1-.38,3c-.65,1.07-1.57-.06-2.3-.33a15.71,15.71,0,0,0-9.17-.37c1.7,5.09,9.05,6.81,7.08,14.53-2.87-4.55-4.47-8.73-8.55-11-2.19,3.86.8,9.23-3.86,12.31,1.07-4.11.38-8.23.73-12.29.24-2.73-.54-4-3.35-3.85-2.4.09-4.82-.31-7.13.72-1.24.56-2.57,1.2-3.44-.51-.32-.62-.71-1.53-.49-2,.74-1.68,2.35-.89,3.58-.83,2.68.11,5.35.43,8.35.7-.6-4.41-3.34-7.27-5.46-10.43-.76-1.13-1.63-2.17-2.5-3.22C131,178.51,130.74,177.15,132.48,176.14Zm3.46-54.81c-1.42.14-3.81,1.16-3.43-1.75.27-2.09-2-5.41,2.47-5.93a29.38,29.38,0,0,0,18.35-8.74c7.25-7.5,8-15.78,2.14-24.47-.45-.66-1.51-1.14-.87-2.68,6,5.79,9.15,12.38,7.46,20.57C159.67,109.9,147.82,120.22,135.94,121.33Z"/><path class="cls-4" d="M358.41,123c-4.9-17.18-10-34.31-14.79-51.51-.87-3.1-2-4.91-5.05-4.15-2.57.1-4.91-.67-5.83,2.53-5.22,18.18-10.56,36.32-15.85,54.49-.25.87-1.11,1.86.7,2.38,3.48,1,5.92-.27,6.92-3.85.69-2.46,1.48-4.9,2-7.39s1.66-3.8,4.54-3.65a127.4,127.4,0,0,0,13.54,0c2.7-.15,3.72,1,4.29,3.39.77,3.21,1.65,6.4,2.69,9.53,1.19,3.62,4.36,2,6.47,1.75C360.44,126.22,358.73,124.1,358.41,123ZM344,106c-4.05,0-8.1,0-12.15,0-2.61,0-2-1.62-1.61-3,2.39-8.93,4.82-17.85,7.6-28.14,2.81,10.63,5.27,20,7.77,29.37C346,105.74,345.17,106,344,106Z"/><path class="cls-4" d="M749,69.61c-.94-3.3-3.52-2.11-5.57-2.26S739.32,67,738.59,70c-1.28,5.26-3,10.4-4.52,15.6-4,13.55-7.91,27.09-11.92,40.86,3.83.21,7.19,1.55,8.51-4,2.57-10.71,2.91-10.63,14-10.63,9.18,0,9.18,0,11.58,8.68,1.81,6.56,1.81,6.56,9.08,5.8Q757.12,97.93,749,69.61Zm.45,36.39c-.3,0-.6,0-.9,0-4.19-.11-10.14,1.38-12.11-.77-2.16-2.36,1.28-7.65,2.24-11.66,1.34-5.62,3-11.18,4.5-16.76l1.07.09c2.34,8.81,4.62,17.65,7.08,26.43C751.88,105.36,751.57,106.17,749.43,106Z"/><path class="cls-4" d="M624.43,85.35c-1.75-.09-4.37-1.37-5.15,1.15s-1.25,1.43-2.5.56c-7.84-5.45-16.51-2.16-18.88,7.13-1.54,6.08-1.21,12.28-.86,18.45.29,5.11,1.47,10,6.68,12.44s10,1.58,14.79-2.72c.38,4.33.47,7.92-.68,11.42-1,3.15-3.55,4.47-6.63,4.44s-5.53-1.38-5.9-4.53c-.54-4.65-4-3.28-6.11-2.76-2.74.67-1.13,3.19-.65,4.88a8.83,8.83,0,0,0,4.83,5.67c11.09,5.53,22.07-.86,22.24-13.09.19-13.27.19-26.53.22-39.8C625.84,87.35,626.37,85.44,624.43,85.35Zm-6.76,30.85c-1.32,3.41-3.62,5.48-7.5,5.15s-5.31-3-5.92-6.34a51.66,51.66,0,0,1,0-18.35c.62-3.58,2.19-6.75,6.41-7,4.38-.24,6.35,2.6,7.38,6.45.83,3.1.57,6.25.76,9.09C618.67,109.1,619,112.75,617.67,116.2Z"/><path class="cls-4" d="M518.34,93.44c-.89-5.88-3.73-8.25-9.67-8.88-7.37-.78-13.19,1.62-15.24,6.29-.68,1.53-1.47,3.81-.42,4.58,1.21.88,3.45.49,5.23.4,1.44-.07,1-1.62,1.47-2.48,1.78-3.62,4.84-4.4,8.36-3.57,3.14.74,4.68,4.73,4,9.6-.56,3.85-3.6,1.35-5.4,2s-3.57.53-5.33.92c-6,1.32-9.55,4.72-10.09,10.07-.52,5.18-.57,10.42,4.69,13.64,4.54,2.77,9.74,1.93,15-2.22.34-.26.72-.46,1.79-1.15-.33,3.22.54,4.64,3.46,4.13,1.44-.25,3.12.28,3-2.16C518.58,114.21,519.89,103.77,518.34,93.44Zm-6.18,17c-.35,2.23-.18,4.16-.89,6.07-1.34,3.61-3.46,5.9-7.59,5.81-3.07-.06-4.76-1.79-5.3-4.56-.76-3.87-.52-7.63,3.41-9.88a15.89,15.89,0,0,1,8.28-1.85C514,106.08,511.42,109.14,512.16,110.41Z"/><path class="cls-4" d="M662.48,113.64c-2.65-.82-5.08-.5-5.76,3.48-.8,4.7-4.94,6.62-9.26,5-3.46-1.27-6.48-11.49-4.26-14.45.77-1,1.9-.74,2.91-.74,4.07,0,8.14,0,12.21,0,6,0,6,0,5.79-7.17a43.78,43.78,0,0,0-.52-4.81c-1.4-7.06-5.37-10.31-12.56-10.46s-12.39,3.16-13.89,9.7a54.92,54.92,0,0,0-.19,24.17c1.33,6.07,5.79,9.09,12.72,9.22,7.4.13,11.85-2.65,13.48-8.74C663.62,117.14,665.52,114.59,662.48,113.64ZM650.3,89.53c4.54-.08,7.44,3.71,7.14,10-.28,5.85-5.08,1.23-7.3,3.27-2-2.23-6.9,2.81-7.07-3.28C642.89,93.23,645.64,89.62,650.3,89.53Z"/></svg>