<svg id="Layer_1" data-name="Layer 1" xmlns="http://www.w3.org/2000/svg" viewBox="0 0 725.11 602.55"><defs><style>.cls-1{fill:#0f0f0f;}.cls-2{fill:#101010;}.cls-3{fill:#111;}.cls-4{fill:#121212;}.cls-5{fill:#aaa;}.cls-6{fill:#505050;}</style></defs><path class="cls-1" d="M592.82,385.22q0-167.19,0-334.37c0-1.31-.12-2.62-.18-3.93H123.73q0,169.32,0,338.64c0,4.95-.65,4.31,4.4,4.31q230,0,459.89,0C593.34,389.87,592.82,390.67,592.82,385.22ZM458.35,251.65c0,2.73-.68,3.45-3.42,3.44-33-.1-66.06-.06-99.08-.06-32.81,0-65.62,0-98.42.06-3,0-3.87-.68-3.85-3.76q.21-33.08,0-66.14c0-3,.82-3.84,3.84-3.84q98.6.14,197.17,0c3.08,0,3.77.88,3.76,3.83Q458.17,218.42,458.35,251.65Z"/><path class="cls-1" d="M30.21,457.75c1.12-.78.95-2.11,1.28-3.2,6.9-23.22,36.16-32.4,54.55-17.07,2.93,2.44,3,3,.46,5.7-.3.33-.58.66-.89,1-1.86,1.86-3.42,4.33-5.65,5.41-2.79,1.35-4.43-2.08-6.73-3.11a18.5,18.5,0,0,0-22.88,5.85A20.1,20.1,0,0,0,52.11,478c6,6.15,16.43,7.37,23.52,2.26,3-2.18,4.86-2.08,7,.87a30.49,30.49,0,0,0,4.24,4.56c2.1,1.93,1.6,3.41-.31,5.15-10.39,9.45-27.89,10.72-40.43,2.8a33.61,33.61,0,0,1-14.71-19.47c-.25-.86-.09-2-1.18-2.54Z"/><path class="cls-1" d="M271.56,467.32c-1.31,9.26-2.53,17.56-3.65,25.87-.62,4.6-.6,4.67-5.19,4.67-2.52,0-5-.06-7.56,0-2.33.07-3.17-.89-2.78-3.21q5.24-30.9,10.4-61.81c.23-1.35.55-2.55,2.26-2.76,1.93-.24,3,.63,3.9,2.27q9.18,17.25,18.45,34.44c.83,1.54,1.68,3.07,2.53,4.62,1.38-.51,1.59-1.82,2.13-2.82q9.69-17.89,19.26-35.87c.9-1.7,1.78-2.85,3.95-2.67,2.47.22,2.22,2.21,2.46,3.65q5.13,29.92,10.08,59.87c.65,4,.28,4.26-3.85,4.27-2.41,0-4.83-.11-7.24,0s-3.68-.75-4-3.44c-1.13-8.78-2.53-17.53-4-27.24-3.34,6.39-6.26,12-9.17,17.57-2,3.89-4.05,7.76-6,11.66-.68,1.35-1.42,2.34-3.17,2.35s-2.71-.93-3.48-2.43c-4.67-9-9.41-18.05-14.13-27.06C272.52,468.93,272.3,468.57,271.56,467.32Z"/><path class="cls-1" d="M143.67,461.67v21.6c0,3.84-.07,7.68,0,11.52.05,2.23-.74,3.21-3.06,3.1a78.66,78.66,0,0,0-8.55,0c-2.82.17-3.62-1.09-3.61-3.7.05-9.54-.06-19.08-.08-28.62q0-15.63,0-31.25c0-1.47-.57-3.34,1.31-4s3.51.07,5,1.53q16.53,16,33.2,31.9c.67.65,1.16,1.59,2.56,1.79.06-1.2.17-2.34.17-3.49,0-9.1.08-18.21,0-27.31,0-2.88,1.06-4,3.89-3.8s5.48.09,8.22,0c2.35-.06,3.4.91,3.4,3.31,0,20.5,0,41,0,61.52,0,2.88-2.47,4-5,2.38a12.41,12.41,0,0,1-1.9-1.8q-16-16.09-32-32.22a24.77,24.77,0,0,1-2.3-3.2Z"/><path class="cls-1" d="M200.78,464.5c0-9.87.1-19.74-.05-29.61,0-3.05,1.05-4,4-4q17.61.17,35.21,0c3,0,4.32.85,4.3,4.12-.07,10.23,0,10.23-10.19,10.23-5.26,0-10.53.08-15.79,0-1.91,0-2.35.62-2.4,2.44-.23,9.27-.28,9.27,9.09,9.27,3.84,0,7.68.06,11.51,0,2.08-.05,3.05.73,3,2.87-.07,2.74-.09,5.48,0,8.22.09,2.33-1,3-3.18,3-5.92-.11-11.85,0-17.77-.08-1.92,0-2.8.38-2.64,2.52a54.5,54.5,0,0,1,0,7.56c-.15,2.07.62,2.59,2.6,2.57,7.24-.11,14.48.05,21.72-.09,3-.05,4.19,1.13,4,4.09-.15,2.51,0,5,0,7.56,0,1.9-.9,2.78-2.83,2.78q-18.92,0-37.84,0c-2.55,0-2.76-1.5-2.75-3.45C200.8,484.45,200.78,474.48,200.78,464.5Z"/><path class="cls-1" d="M113.79,464.67c0,9.87-.07,19.74,0,29.61,0,2.73-.89,3.8-3.62,3.61a50.34,50.34,0,0,0-7.57,0c-3.14.28-4.24-.87-4.19-4.07.15-10.74.06-21.49.06-32.24,0-8.89.09-17.77,0-26.65,0-3,.93-4.24,4-4a57.79,57.79,0,0,0,7.56,0c2.84-.17,3.88.93,3.84,3.82C113.72,444.71,113.79,454.69,113.79,464.67Z"/><path class="cls-2" d="M408.43,553.87c-.37,2.69-.86,5.37-1.07,8.07-.27,3.36-2.69,2.46-4.59,2.43-2.72,0-1.34-1.92-1.16-3.07,1.09-6.91,2.25-13.81,3.39-20.71.14-.85.11-1.9,1.16-2.13s1.42.83,1.82,1.56c2.56,4.7,5.1,9.41,7.82,14.45,2.73-5.05,5.27-9.76,7.83-14.45.4-.72.71-1.81,1.82-1.55s1,1.29,1.16,2.15q1.77,10.67,3.53,21.34c.17,1,.81,2.5-1,2.36-1.58-.13-4,1.42-4.6-1.47s-1-6-1.52-9.5c-2.27,2.81-3.2,5.72-4.78,8.24-.71,1.14-.83,3.12-2.54,3.06-1.47,0-1.66-1.84-2.27-2.95-1.46-2.65-2.87-5.33-4.3-8Z"/><path class="cls-2" d="M201,552.21c0-4.43.08-7.83,0-11.21-.08-2.36,1.35-2.3,3-2.29s3-.16,3,2.25c-.11,7.24,0,14.48-.05,21.72,0,.72.25,1.66-.72,2s-1.41-.42-1.94-.95a158.7,158.7,0,0,0-13.5-12.54c0,3.42-.1,6.85,0,10.27.09,2.24-.6,3.09-3,3.06-2.19,0-3.11-.51-3.06-2.91.14-6.91,0-13.82.07-20.73,0-.81-.4-1.9.67-2.33s1.64.47,2.25,1C191.92,543.53,196.08,547.53,201,552.21Z"/><path class="cls-1" d="M293,551.36c0,3.62-.12,7.24,0,10.85.11,2.48-1.41,2.2-3,2.21s-3.15.17-3-2.25c.14-1.85-.06-3.73,0-5.59s-.36-2.49-2.33-2.57c-7.65-.29-7.74-.36-7.75,7.33,0,2.45-.75,3.15-3.2,3.16s-2.85-1-2.82-3.14c.09-6.68.12-13.37,0-20.05,0-2.34,1-2.65,3-2.63s3.3.24,3,2.61a1.22,1.22,0,0,0,0,.33c.23,7.79.26,7.77,8.33,7,1.49-.14,1.84-.71,1.79-2-.06-1.53.16-3.09,0-4.6-.4-2.91.94-3.49,3.54-3.37,1.9.1,2.45.7,2.4,2.52C292.9,544.57,293,548,293,551.36Z"/><path class="cls-2" d="M299.09,551.25c0-3.29.08-6.58,0-9.86-.05-1.93.51-2.77,2.6-2.7,4,.14,8.12.14,12.17,0,2.17-.07,2.17,1.16,2.17,2.71s0,2.88-2.15,2.79-4.39.06-6.58,0c-1.74-.07-2.23.69-2.28,2.34-.06,1.88.84,2.21,2.4,2.11,1.2-.07,2.44.14,3.61,0,2.89-.45,3.2,1.1,3.11,3.41-.07,1.59-.64,2.15-2.15,2.08s-2.86.09-4.27,0c-2-.16-2.74.52-2.72,2.59s.89,2.43,2.62,2.35,3.73.08,5.59-.05c2.11-.15,2.86.6,2.87,2.79s-.78,2.81-2.87,2.73c-3.83-.14-7.68-.14-11.51,0-2.08.08-2.66-.74-2.61-2.68C299.17,558.27,299.09,554.76,299.09,551.25Z"/><path class="cls-1" d="M464.44,538.74c1.86,0,3.74.12,5.59,0,2.12-.17,2.84.52,2.82,2.73s-.7,3-2.83,2.78c-1.75-.13-3.51,0-5.27,0-1.58,0-2.71.07-2.74,2.19s.92,2.39,2.59,2.26c1.09-.09,2.2.07,3.29,0,2.09-.2,3.18.24,3.18,2.76s-1.24,2.88-3.25,2.73c-1.09-.09-2.2.06-3.29,0-1.82-.16-2.53.53-2.51,2.42s.51,2.64,2.43,2.51c1.75-.12,3.52.07,5.26-.05,2.1-.14,3.13.31,3.16,2.81s-1.2,2.76-3.19,2.7c-3.62-.1-7.25-.12-10.86,0-1.91.06-2.76-.4-2.73-2.52.11-6.91.08-13.83,0-20.74,0-1.78.47-2.63,2.41-2.49S462.46,538.74,464.44,538.74Z"/><path class="cls-2" d="M244.23,551.69a12.73,12.73,0,0,1,6.47-11.44,12.51,12.51,0,0,1,13.4-.13c1,.57,3.3,1,2,2.93-1,1.44-1.76,3.78-4.8,2-5.28-3.05-10.93.78-10.62,6.86a7,7,0,0,0,10.44,5.94c2.88-1.5,3.9.35,4.94,1.92,1.34,2-1,2.57-2.06,3.22C255.36,568.15,244.28,561.76,244.23,551.69Z"/><path class="cls-2" d="M484.47,564.89a14.51,14.51,0,0,1-5.68-1.45c-1.4-.75-3.1-1.27-1.87-3.62,1.11-2.11,2.26-2.68,4.26-1.21a5.67,5.67,0,0,0,1.81.72c1.57.47,3.21.56,4-1.13s-.73-2.6-1.86-3.36c-1.36-.9-2.91-1.51-4.32-2.33-4-2.34-5.44-5.39-4.23-8.89a8.28,8.28,0,0,1,9.18-5.26,15.71,15.71,0,0,1,4.67,1.42c1.13.58,3.41.82,2.16,3.11-1,1.85-2.06,3.89-4.65,1.73a4.17,4.17,0,0,0-1.49-.65c-1.47-.41-3.2-1.09-4,.86-.69,1.76,1,2.45,2.17,3.14s2.76,1.33,4.09,2.08c4,2.24,5.72,5.4,4.81,8.73C492.55,562.47,489.16,564.83,484.47,564.89Z"/><path class="cls-2" d="M327.75,564.89a14.32,14.32,0,0,1-5.68-1.44c-1.39-.75-3.14-1.24-1.9-3.61,1.09-2.08,2.21-2.72,4.25-1.25a6.19,6.19,0,0,0,2.44.9c1.34.27,2.74.16,3.4-1.26.75-1.58-.52-2.49-1.58-3.18-1.55-1-3.29-1.73-4.88-2.68-3.27-2-4.88-5-4.29-7.81.66-3.23,3.12-5.36,6.9-6.11a11.09,11.09,0,0,1,7.27,1.32c1.13.56,3.42.82,2.19,3.09-1,1.83-2,3.95-4.64,1.77a4,4,0,0,0-1.49-.65c-1.47-.41-3.2-1.11-4,.83-.72,1.76.95,2.45,2.14,3.15s2.75,1.33,4.08,2.08c4,2.23,5.74,5.41,4.84,8.72C335.82,562.45,332.44,564.82,327.75,564.89Z"/><path class="cls-2" d="M231.7,564.88a14.45,14.45,0,0,1-5.39-1.39c-1.34-.77-3.18-1.2-2-3.62,1.07-2.12,2.19-2.82,4.21-1.28a3.19,3.19,0,0,0,1.18.55c1.68.44,3.65,1.23,4.58-.92.85-2-.88-2.91-2.33-3.73-1.24-.7-2.55-1.27-3.77-2-3.91-2.32-5.36-5.44-4.23-9,1.05-3.27,5.09-5.72,9-5.19a17.4,17.4,0,0,1,5,1.48c1.21.56,3.3,1,2,3.23-1,1.73-2,3.69-4.44,1.65a2.51,2.51,0,0,0-.87-.46c-1.64-.5-3.66-1.6-4.66.47s1.21,2.69,2.56,3.49,2.55,1.24,3.78,1.95c4,2.3,5.5,5.26,4.58,8.86S236.25,565,231.7,564.88Z"/><path class="cls-2" d="M539.74,552.52c2-4.35,3.66-8,5.35-11.66.81-1.74,4.76-3,6.37-2.05,1,.6.42,1.36.13,2Q546.36,552.1,541,563.36c-.76,1.61-1.7,2-2.62,0-3.5-7.53-7-15.07-10.51-22.58-.79-1.67-.24-2,1.41-2.13,2.73-.18,4.7.18,5.72,3.32C536.15,545.42,538,548.6,539.74,552.52Z"/><path class="cls-1" d="M437,428.78c5.37,0,9,3.71,9,9.11a9.13,9.13,0,0,1-9.06,9.27c-4.56,0-9.45-4.93-9.31-9.34A9.49,9.49,0,0,1,437,428.78Z"/><path class="cls-2" d="M435.24,551.47c0-3.51.08-7,0-10.53-.06-1.75.59-2.27,2.28-2.23,4.06.09,8.12.12,12.18,0,2.11-.07,2.28,1,2.23,2.65s.12,2.94-2.09,2.84c-2-.08-4,.1-5.92,0s-2.86.51-2.86,2.74.93,2.61,2.75,2.44c1-.09,2,0,3,0,2.05-.13,3.56,0,3.55,2.82s-1.39,2.92-3.5,2.91c-5.66,0-5.8.05-5.62,5.69.09,2.75-.47,4-3.56,3.76-1.85-.16-2.62-.66-2.37-2.49,0-.11,0-.22,0-.33Z"/><path class="cls-2" d="M359.26,538.73c1.65,0,3.29,0,4.94,0,1.84-.06,3.3-.22,3.31,2.57s-1.21,3.08-3.38,2.92c-1.41-.11-2.85,0-4.27,0-2-.13-3.26.08-3.26,2.71s1.34,2.54,3.1,2.45c1-.05,2,.09,3,0,2.3-.28,3,.65,3,3s-.83,2.78-2.91,2.81c-5.95.07-6.07.15-6,6.28,0,2.47-.78,3.14-3.21,3.16s-2.84-1-2.81-3.13c.09-6.58.12-13.16,0-19.73,0-2.29.65-3.16,3-2.94C355.52,538.87,357.4,538.73,359.26,538.73Z"/><path class="cls-2" d="M505.43,538.73c1.86,0,3.72.06,5.58,0s3.16,0,3.15,2.47c0,2.25-.65,3.35-3,3-2.57-.4-3.15.81-3.07,3.17.16,4.7-.05,9.41.08,14.11.07,2.25-.65,3-3,3s-3.13-.52-3.05-2.91c.16-4.81-.05-9.63.09-14.44.07-2.28-.67-3.27-3-2.95s-3-.5-3.08-2.87c-.05-2.72,1.41-2.68,3.3-2.6S503.46,538.73,505.43,538.73Z"/><path class="cls-3" d="M389.33,548.75c0,2.52.09,5,0,7.55-.1,2,.56,2.86,2.61,2.68,1.31-.12,2.64.08,3.94-.05,2.25-.21,3.07.61,3.06,3s-1.21,2.6-3.09,2.55c-3.28-.09-6.57-.1-9.85,0-1.74,0-2.63-.38-2.61-2.34.08-7,.1-14,0-21,0-2.62,1.57-2.28,3.24-2.38,1.88-.11,2.88.35,2.76,2.49C389.21,543.7,389.32,546.23,389.33,548.75Z"/><path class="cls-2" d="M577.55,551.53c0-3.28.12-6.57,0-9.85-.12-2.27.59-3.06,2.93-3,2.17,0,3.13.45,3,2.88-.18,4.81,0,9.64-.09,14.45-.07,2.22.49,3.29,2.88,3,1.07-.14,2.19.06,3.28,0,2.19-.2,3.4.22,3.38,2.94s-1.55,2.57-3.38,2.54c-3.06,0-6.13-.13-9.19,0-2.12.11-3-.52-2.84-2.74C577.67,558.33,577.55,554.93,577.55,551.53Z"/><path class="cls-2" d="M371.41,551.24c0-3.28.13-6.58,0-9.86-.12-2.32.91-2.77,2.93-2.69,1.78.07,3.11,0,3,2.52q-.25,10.37,0,20.72c.06,2.54-1.26,2.46-3,2.52-2,.08-3.05-.36-2.93-2.68C371.54,558.27,371.41,554.75,371.41,551.24Z"/><path class="cls-2" d="M524.15,551.79c0,3.5-.1,7,0,10.52.09,2.22-1.23,2.19-2.74,2.1s-3.21.54-3.18-2c.06-7.24,0-14.47,0-21.71,0-2.61,1.9-1.79,3.27-1.93,1.61-.17,2.73.07,2.65,2.19C524,544.55,524.15,548.17,524.15,551.79Z"/><path class="cls-2" d="M129,551.62c0,3.51-.13,7,0,10.53.12,2.41-1.29,2.31-2.91,2.28s-3.07.22-3-2.22c.1-7,.12-14,0-21.05,0-2.56,1.39-2.42,3.15-2.46s2.92.12,2.81,2.4C128.87,544.6,129,548.12,129,551.62Z"/><path class="cls-4" d="M213.11,551.37c0-3.5.08-7,0-10.51-.06-2.16,1.2-2.23,2.75-2.13s3.23-.49,3.22,2c0,7.23,0,14.46,0,21.69,0,2.54-1.86,1.84-3.27,2-1.62.14-2.76-.1-2.69-2.2C213.2,558.61,213.11,555,213.11,551.37Z"/><path class="cls-5" d="M306.16,76.67H453.68c4.61,0,4.61,0,4.61,4.63v65.83c0,4.47,0,4.47-4.4,4.47H228.67c-5.36,0-4.83-.58-4.83,4.68q0,62.22,0,124.43c0,4.3,0,4.31,4.29,4.31H453.34c5,0,5,0,5,5,0,22-.06,43.9.07,65.84,0,3.16-.85,4.07-4,4.07q-148.33-.12-296.68,0c-3.34,0-4.23-.94-4.23-4.26q.14-137.43,0-274.87c0-3.35.93-4.22,4.24-4.21Q231.92,76.75,306.16,76.67Z"/><path class="cls-6" d="M488,218q0-68.11,0-136.23c0-5.19,0-5.2,5.3-5.2h65.18c4.5,0,4.54,0,4.54,4.63V355c0,4.71,0,4.73-4.8,4.73H492.7c-4.69,0-4.72,0-4.72-4.82Q488,286.46,488,218Z"/><path class="cls-1" d="M688.7,485.1c-.17-2.37-1.11-4.18-3.89-4.43s-5.64-.72-8.47-1c-8-.86-9-2.16-8.31-10.2.4-4.71.22-9.44,1.05-14.74-2.93,2.07-3.68,4.61-4.55,7-1.57,4.43-2.56,9.05-4.56,13.34-1.52,3.25-3.89,5.25-7.5,5.61a24.06,24.06,0,0,1-10.71-1.05c-2.58-.93-4.36-2.44-4.63-5.34-.34-3.48-.66-7-1.09-10.45-.32-2.49-.27-5.12-2.14-7.91-.86,5.7-2.68,10.32-5.95,14.27-9.11,11-21,13-34.23,10.3-6.09-1.24-8.69-4.25-9.8-10.4-1-5.64-.51-11.36-1.11-17-1.57-15-15.51-22.32-28.73-15.13-8.45,4.6-12.56,15.78-9.76,22.93a19.89,19.89,0,0,0,1.95-1.77c2.1-2.53,4-5.25,6.27-7.61A12.39,12.39,0,0,1,568,449.55c4,2.38,5.75,6.23,6.19,10.66.36,3.62-3.18,4.09-5.23,5.56-5.52,4-11.79,7.05-16.08,12.41-2.88,3.58-6,4.11-10.07,3.38a21.9,21.9,0,0,1-9-3.89c-2.93-2.12-5.74-4.4-8.6-6.62-10.59-8.18-21.12-6.94-29.6,3.51-4.19,5.16-7,11.09-9.7,17.1l-4,8.95c-1.79-3.68-3.2-6.72-4.74-9.68-3.64-7.05-9.31-10.8-17.4-10.83a119.88,119.88,0,0,1-12.13-.63c-6.71-.7-9.15-3.52-9.15-10.11V452.19a14,14,0,0,0-5.82,8.47c-1,3.57-1.74,7.25-2.93,10.76-2.1,6.19-5.87,8.75-12.36,8.76-3.29,0-6.58,0-9.87-.06a2.9,2.9,0,0,0-3.18,2.15c-1.87,4.79-1.27,9.44.51,14.08a2.15,2.15,0,0,0,2.28,1.47,53,53,0,0,0,8.54-.23c6.75-.95,12-4.4,16-9.89,3.74,6.6,4.76,7.25,12.39,8.49a47.88,47.88,0,0,0,8.87.38c11-.24,19.57,3.75,25.07,13.68a34.43,34.43,0,0,0,6.26,8.73,6.58,6.58,0,0,0,1.09-2.88c2.18-7.92,4.26-15.9,9.29-22.64,6.17-8.28,15.42-9.91,24.05-4.27,2.93,1.92,5.72,4.07,8.63,6a19.15,19.15,0,0,0,16,3,2.66,2.66,0,0,1,2.93.66c5.11,5,11.47,5.71,18.07,4.65,8.26-1.32,15.46-4.67,20-12.47a14.29,14.29,0,0,0,8.31,5.59,52.5,52.5,0,0,0,37.06-3.79c1.33-.65,2.18-.95,3.46.07a23,23,0,0,0,10.77,4.63c5.16.84,10.44,1.1,14.77-2.44,2.24-1.83,3.62-3,6-.12,1.33,1.66,3.84,1.92,6,2.29a64.25,64.25,0,0,0,10.83.47c5.53,0,6.64-.91,7.21-6.38A35.26,35.26,0,0,0,688.7,485.1Zm-113.3-1.58c-3.2,1.68-6.75,1.54-10.36,1.92-1.38-.5-3.64.61-4.42-.81-1-1.73.71-3.48,1.76-4.94,3-4.1,7.42-5.48,12.18-6.14a2.08,2.08,0,0,1,1.27.12C578.2,475.12,577.89,482.21,575.4,483.52Z"/><path class="cls-1" d="M394.68,492.49c-9.29-19.7-18.4-39.48-27.6-59.22-.66-1.43-1-3.2-3.23-3.19s-2.53,1.81-3.19,3.23q-13.47,28.86-26.87,57.75c-3.16,6.79-3.15,6.83,4.33,6.79,9.55-.05,8,1.19,11.81-7.46.86-2,1.94-2.49,3.95-2.45,6,.12,12.08.3,18.1-.05,3.65-.21,5.77.82,6.68,4.41,1.1,4.33,3.79,6.46,8.43,5.57a7.15,7.15,0,0,1,1.31,0c1,0,2-.06,3,0C396.42,498.2,396.86,497.11,394.68,492.49ZM358.5,474.87c-1.91,0-1.15-1.1-.78-1.92,1.92-4.28,3.88-8.53,6.11-13.39,2.46,5.36,4.64,10.08,7,15.31Z"/><path class="cls-2" d="M150.89,556.58c-.82-1.45-1.25-2.45.69-3.68a7.43,7.43,0,0,0,2.85-9c-1.1-3.22-3.82-5.12-7.57-5.18-3.07,0-6.14.11-9.19,0-2.1-.11-2.65.77-2.59,2.69.1,3.39,0,6.78,0,10.17,0,3.18.08,6.35,0,9.53-.07,2.11.11,3.38,2.89,3.43s3.25-1.25,3.09-3.53c-.11-1.52,0-3.06,0-4.6,0-.71-.2-1.62.87-1.84a1.8,1.8,0,0,1,2.18,1,42.3,42.3,0,0,1,2.7,5.6c1,3.08,3.09,3.47,5.83,3.28,1.69-.11,2.24-.5,1.34-2.1C152.92,560.44,152,558.48,150.89,556.58Zm-6.55-6.83c-1.81.19-3.46.22-3.43-2.86,0-2.66,1.05-3.1,3.29-2.94s4.8-.28,4.89,2.84C149.17,549.61,146.84,549.81,144.34,549.75Z"/><path class="cls-2" d="M180.88,561.59c-3.38-7-6.59-14.05-9.93-21.06-.37-.79-.41-2.17-1.75-2-1,.11-1.16,1.2-1.52,2-3.1,6.63-6.22,13.26-9.3,19.91-.53,1.15-1.87,2.5-1.06,3.56s2.67.34,4.06.43c1.22.08,1.73-.83,2.05-1.78.54-1.66,1.69-2.06,3.29-2,1.86.1,3.73.06,5.59,0,1.21,0,2.26.21,2.6,1.47.6,2.17,2.06,2.62,4,2.26C181.55,564.83,182,564,180.88,561.59ZM167.53,555c-.86-1.53.88-3,1.7-5.37l2.52,5.43C170.09,555.47,168.07,556,167.53,555Z"/><path class="cls-2" d="M573.4,561.31c-3.28-6.89-6.48-13.82-9.74-20.72-.39-.84-.51-2.17-1.73-2.09s-1.29,1.36-1.69,2.22q-4.66,9.91-9.28,19.87c-.49,1.06-1.66,2.24-1,3.29s2.41.36,3.66.52c1.53.2,2.18-.87,2.59-2a2.44,2.44,0,0,1,2.76-1.75c2,.08,3.93.07,5.9,0,1.35,0,2.38.28,2.78,1.69.57,2,2,2.34,3.86,2C574.75,565,574.41,563.43,573.4,561.31ZM560.12,555c-.71-1.7,1.1-3.22,1.78-5.39,1,2.11,1.75,3.72,2.56,5.43C562.69,555.47,560.52,555.93,560.12,555Z"/></svg>