<svg id="Layer_1" data-name="Layer 1" xmlns="http://www.w3.org/2000/svg" viewBox="0 0 1482.89 841.89"><path d="M1359.3,650.61h-18V568.24c14.77.74,29.18.86,43.43,2.4,9.87,1.07,17.07,9.42,18.3,18.54,1.56,11.51-3.1,21.14-12.57,25.94-1.34.69-2.74,1.26-4.6,2.11l20.08,33.63c-7.18,0-13.06.38-18.85-.21-1.93-.2-4.19-2.53-5.29-4.45-4.22-7.37-7.71-15.16-12.14-22.39-1.74-2.84-5.22-4.62-7.9-6.88l-2.43,1.62Zm-.45-66.56c-2.39,18.17.21,21,15.66,18.8.51-.08,1.25.06,1.51-.23,2.36-2.65,6.57-5.47,6.44-8.06-.15-3.08-3.48-7.61-6.42-8.62C1370.86,584.17,1364.93,584.59,1358.85,584.05Z"/><path d="M201,568.87l-36.4,38.4,38.92,43.59c-8.91,0-16.28.37-23.57-.22-2.32-.19-4.81-2.64-6.57-4.62-9.21-10.37-18.22-20.91-28.6-32.9v37.33H127.72V569.4h17.83v32.82c9.29-9.89,17.38-17.76,24.56-26.39,4.62-5.54,9.61-7.92,16.68-7.05C190.79,569.28,194.91,568.87,201,568.87Z"/><path d="M428.1,569.19h18c0,19.8,1.31,39.4-.4,58.74C444.26,644,429.48,653,410.64,652.42c-17.51-.56-30.05-10.93-32.58-27.23a72.18,72.18,0,0,1-.35-10.82c0-14.91,0-29.81,0-45.09h18.45c0,14.76,0,29.14,0,43.52,0,3.6-.15,7.3.55,10.79,1.53,7.67,7.75,12.14,15.81,11.94s14.44-5,14.86-12.86c.78-14.42.54-28.89.7-43.34C428.13,576.05,428.1,572.76,428.1,569.19Z"/><path d="M1086,569.1h17.52c.2,3.07.51,6,.55,9,.21,14.46-.12,28.94.68,43.36.53,9.58,7.51,14.72,16.85,14.05,8.77-.64,14.25-6.51,14.38-16,.19-13.69,0-27.38.06-41.07v-8.93h19.32c0,11.57,0,23.32,0,35.07,0,5.42,0,10.85-.21,16.26-1.22,27.44-23.55,33.57-40.72,31.24-18.22-2.48-27.94-13.53-28.35-32C1085.75,603.32,1086,586.58,1086,569.1Z"/><path d="M867.83,585.85H845.06V569.22h63.53v16.2H886.3v65H867.83Z"/><path d="M632.71,650.35V569.47h17.48v64.25h33.22v16.63Z"/><path d="M1194.64,371.49c7.42.05,12.73,5.33,12.7,12.62a12.53,12.53,0,0,1-12.47,12.22A13.11,13.11,0,0,1,1181.71,383C1182,376.15,1187.27,371.44,1194.64,371.49Z"/><path d="M1207.34,350.32c-.11,7.18-5.8,12.36-13.24,12.07a12.86,12.86,0,0,1-12.36-13.23c.27-6.73,5.8-11.67,12.93-11.54C1202.17,337.75,1207.45,343.05,1207.34,350.32Z"/><path d="M1293,337.62a12.62,12.62,0,0,1,13,12.46,12.46,12.46,0,0,1-13.09,12.32,12.7,12.7,0,0,1-12.51-13C1280.52,342.53,1285.77,337.63,1293,337.62Z"/><path d="M1294,464.51c-6.12.2-12.79-5.82-13.23-11.93-.48-6.65,5.36-13,12.33-13.34A12.13,12.13,0,0,1,1306,450.83C1306.37,457.79,1300.66,464.29,1294,464.51Z"/><path d="M1293.2,371.49c7.28,0,12.88,5.52,12.81,12.57a12.63,12.63,0,0,1-12.45,12.28,13.19,13.19,0,0,1-13.15-13.3C1280.61,376.23,1285.89,371.46,1293.2,371.49Z"/><path d="M1394.57,362.4a12.58,12.58,0,0,1-12.94-12.56,12.44,12.44,0,0,1,11.57-12.22c7.4-.37,13.8,5.45,13.78,12.56A12.5,12.5,0,0,1,1394.57,362.4Z"/><path d="M1360.4,371.75a12.83,12.83,0,0,1,12.89,12.72,12.54,12.54,0,0,1-12.45,12.22A12.74,12.74,0,0,1,1348,384,12.44,12.44,0,0,1,1360.4,371.75Z"/><path d="M509.56,384.77A12.08,12.08,0,0,1,497,396.67c-7.28-.12-12.49-5.62-12.31-13a12,12,0,0,1,12.49-11.94A12.49,12.49,0,0,1,509.56,384.77Z"/><path d="M543.22,384.18a12.35,12.35,0,0,1-12.46,12.15c-6.87.1-12.6-5.87-12.5-13s5.14-11.88,12.43-11.83S543.34,376.86,543.22,384.18Z"/><path d="M442.6,384c0,6.33-5.92,12.15-12.55,12.33a12.71,12.71,0,0,1-12.75-12.79,11.92,11.92,0,0,1,12.33-12.05A12.66,12.66,0,0,1,442.6,384Z"/><path d="M628.69,396.34c-7,0-12.48-5.81-12.35-13.14.13-7,5.31-11.82,12.59-11.71a12.61,12.61,0,0,1,12.65,12.83C641.33,390.73,635.29,396.35,628.69,396.34Z"/><path d="M340.63,350.38c-.06,6.93-5.2,12-12.28,12a12.52,12.52,0,0,1-12.6-12.79,11.93,11.93,0,0,1,12.38-12A12.35,12.35,0,0,1,340.63,350.38Z"/><path d="M1361.2,405.62a11.9,11.9,0,0,1,12.1,12.32c-.1,6.46-6,12.55-12.3,12.68-6.77.13-13.13-6.09-13-12.7A12.73,12.73,0,0,1,1361.2,405.62Z"/><path d="M1306,417.89c-.07,6.72-5.66,12.62-12,12.72-6.64.09-13.31-6.25-13.23-12.6a12.79,12.79,0,0,1,13.17-12.39A11.9,11.9,0,0,1,1306,417.89Z"/><path d="M1207.34,418.08c-.11,6.7-5.72,12.48-12.16,12.53a12.85,12.85,0,0,1-12.71-12.76c.17-7.3,5.59-12.4,13-12.23A11.84,11.84,0,0,1,1207.34,418.08Z"/><path d="M1042.66,384.22a12.42,12.42,0,1,1-24.83-.93c.14-7.12,5.14-11.88,12.39-11.8C1037.67,371.58,1042.8,376.82,1042.66,384.22Z"/><path d="M1407,384.33a12.74,12.74,0,0,1-12.74,12c-6.75,0-12.81-6.3-12.58-13.1s5.71-11.85,12.73-11.74A12.61,12.61,0,0,1,1407,384.33Z"/><path d="M1293,304.26c6.64-.17,12.67,5.19,13,11.6a12.45,12.45,0,0,1-12,13.25c-6.84.14-13.37-5.92-13.28-12.32S1286.54,304.42,1293,304.26Z"/><path d="M164.32,405.64a12.29,12.29,0,0,1,12.73,12.62,12.44,12.44,0,0,1-24.88.28C151.9,411,156.81,405.76,164.32,405.64Z"/><path d="M130,396.34c-6.91-.16-11.85-5.37-11.79-12.43.07-7.33,5.33-12.31,12.83-12.17a11.93,11.93,0,0,1,12,12.31A12.6,12.6,0,0,1,130,396.34Z"/><path d="M164.48,371.49c7.35.15,12.82,5.73,12.56,12.83-.22,6.39-6.2,12-12.83,12-7.09,0-12.21-5.54-12-13.12C152.32,375.93,157.14,371.34,164.48,371.49Z"/><path d="M996.55,396.33c-6.4.16-12.34-5.49-12.71-12.07-.4-7.22,4.91-12.73,12.31-12.77,7.13,0,12.26,4.76,12.56,11.76A12.25,12.25,0,0,1,996.55,396.33Z"/><path d="M475.55,384.71a12.52,12.52,0,0,1-13,11.62,12.3,12.3,0,0,1-11.79-13.52c.54-6.78,6.33-11.56,13.37-11S475.93,377.59,475.55,384.71Z"/><path d="M674.43,384.71a12.22,12.22,0,0,1-12.9,11.62,12.47,12.47,0,0,1-11.92-12.75,12.2,12.2,0,0,1,13.47-11.81C670.28,372.3,674.81,377.47,674.43,384.71Z"/><path d="M340.63,384.21a12.2,12.2,0,0,1-12.35,12.11c-6.72.06-12.65-6.1-12.54-13s5.41-11.84,12.56-11.79C335.76,371.54,340.76,376.7,340.63,384.21Z"/><path d="M210.09,384.17a12.28,12.28,0,0,1-12.48,12.16,12.57,12.57,0,0,1-12.54-13,12.27,12.27,0,0,1,13-11.61C205.23,372,210.2,377.14,210.09,384.17Z"/><path d="M1381.69,315.42a12.8,12.8,0,0,1,14.34-11.1,11.92,11.92,0,0,1,10.74,13.57c-.87,7.11-6.81,11.45-14.48,10.55A12.3,12.3,0,0,1,1381.69,315.42Z"/><path d="M543.22,349.84a12.47,12.47,0,0,1-24.93.32A11.91,11.91,0,0,1,530,337.62C537.31,337.54,543,342.85,543.22,349.84Z"/><path d="M152.17,316.92c-.12-7.4,4.43-12.42,11.5-12.68s12.6,5.23,12.68,12.63a12,12,0,0,1-12.19,12.25C157.09,329.17,152.28,324.29,152.17,316.92Z"/><path d="M674.43,350c.07,7.39-5.22,12.52-12.76,12.4A12.09,12.09,0,0,1,649.61,350a12.57,12.57,0,0,1,12.56-12.14A11.85,11.85,0,0,1,674.43,350Z"/><path d="M708.57,383.81c.08,6.46-5.61,12.25-12.3,12.52a12.19,12.19,0,0,1-12.71-11.85,11.93,11.93,0,0,1,12.49-12.73C703.23,371.85,708.49,376.92,708.57,383.81Z"/><path d="M442.6,350.11c.09,6.36-5.63,12-12.4,12.29a12.43,12.43,0,0,1-12.87-12.48,12,12,0,0,1,12.07-12.3C436.41,337.65,442.51,343.42,442.6,350.11Z"/><path d="M143.05,350.41c-.12,7.14-5.82,12.27-13.33,12-7.09-.27-11.77-5.45-11.48-12.73a12,12,0,0,1,12.65-11.83A12.61,12.61,0,0,1,143.05,350.41Z"/><path d="M1327.06,362.4a12,12,0,0,1-12.29-12.18A12.58,12.58,0,0,1,1327,337.83a12.25,12.25,0,0,1,12.62,12.76C1339.52,357.44,1334.18,362.45,1327.06,362.4Z"/><path d="M1063.66,371.74a12.23,12.23,0,0,1,12.4,12.18A12.62,12.62,0,0,1,1063,396.33c-6.54-.24-12.35-6.32-12.13-12.71A12.62,12.62,0,0,1,1063.66,371.74Z"/><path d="M1327,371.75c7.08-.09,12.46,4.92,12.69,11.79a12.22,12.22,0,0,1-12.53,12.79,12.39,12.39,0,0,1-12.35-12.27A12.18,12.18,0,0,1,1327,371.75Z"/><path d="M641.59,350.11c0,6.5-5.55,12.05-12.41,12.28-7.16.25-12.69-5.13-12.8-12.47a11.89,11.89,0,0,1,12-12.3C635.3,337.66,641.53,343.55,641.59,350.11Z"/><path d="M1207.34,451.94c-.16,6.45-6.16,12.6-12.26,12.59-6.55,0-12.81-6.45-12.63-13a12.75,12.75,0,0,1,13.11-12.34A12.34,12.34,0,0,1,1207.34,451.94Z"/><path d="M996.42,337.83a12.22,12.22,0,0,1,12.29,13c-.25,6.82-5.69,11.73-12.81,11.55S983.67,357,983.84,350C984,343.52,990,337.7,996.42,337.83Z"/><path d="M1030.09,429.92c-7.24-.15-12.28-5.12-12.26-12.07,0-7.21,5.55-12.4,13-12.21a12.15,12.15,0,1,1-.73,24.28Z"/><path d="M1207.34,316.26a12.57,12.57,0,0,1-11.81,12.86,12.45,12.45,0,1,1-.93-24.87C1201.3,304.19,1207.17,309.73,1207.34,316.26Z"/><path d="M475.56,350.34c-.11,7.15-5.67,12.28-13.07,12.06-6.79-.2-11.69-5.2-11.57-11.8.13-7,6.1-12.92,12.81-12.78C470.63,338,475.67,343.29,475.56,350.34Z"/><path d="M1029.79,328.53c-7.26,0-12-4.9-12-12.17a12.29,12.29,0,0,1,12.42-12.11,12.05,12.05,0,0,1,12.41,12C1042.75,323.57,1037.5,328.56,1029.79,328.53Z"/><path d="M843.35,405.64c7.07-.13,12.53,5,12.68,11.83s-5.15,12.19-12.17,12.46-12.32-4.72-12.47-11.87A11.76,11.76,0,0,1,843.35,405.64Z"/><path d="M843.79,371.75a12.11,12.11,0,0,1,12.42,12,11.81,11.81,0,0,1-11.75,12.57,12.48,12.48,0,0,1-12.57-12A12.07,12.07,0,0,1,843.79,371.75Z"/><path d="M923.26,317.66c-.25,7.17-5.34,11.78-12.66,11.46A11.72,11.72,0,0,1,899,316.36c.41-7.09,5.63-11.73,12.87-11.46S923.53,310.18,923.26,317.66Z"/><path d="M130.54,429.9a12.44,12.44,0,0,1-12.37-12.13c0-7.21,5.37-12.31,12.92-12.15a11.87,11.87,0,0,1,12,12.35A12.27,12.27,0,0,1,130.54,429.9Z"/><path d="M877.25,362.72c-7.42-.08-12-4.82-11.92-12.19.12-7.16,4.95-11.8,12.41-11.92,7-.11,12,5,11.93,12.31C889.58,358.05,884.58,362.79,877.25,362.72Z"/><path d="M889.67,317a11.8,11.8,0,0,1-12.28,12.1c-7.26,0-12.09-4.89-12.06-12.15s5-12.15,12.15-12.12S889.71,310,889.67,317Z"/><path d="M143.05,316.87c-.2,7-5.91,12-13.43,11.65-7-.29-11.73-5.56-11.38-12.68a12.3,12.3,0,0,1,12.82-11.58C137.74,304.62,143.25,310.41,143.05,316.87Z"/><path d="M210.08,316.46a12.16,12.16,0,0,1-24.31.33,12.16,12.16,0,1,1,24.31-.33Z"/><path d="M822.28,318c-.34,7.19-5.47,11.64-12.85,11.15-7.1-.48-11.72-5.81-11.25-13s5.74-11.65,13-11.19C818.12,305.36,822.62,310.64,822.28,318Z"/><path d="M531.25,328.51a11.85,11.85,0,0,1-12.33-12.06,12,12,0,0,1,12.31-12.19,12.21,12.21,0,0,1,12,11.86C543.44,323.18,538.42,328.38,531.25,328.51Z"/><path d="M843.39,304.86a12.14,12.14,0,1,1,.6,24.27,12.51,12.51,0,0,1-12.6-12A11.79,11.79,0,0,1,843.39,304.86Z"/><path d="M663,439.19c6.87.07,11.59,5.32,11.39,12.68-.19,7.08-5.27,11.82-12.45,11.58a12.33,12.33,0,0,1-11.88-11.77C650,444.85,655.9,439.11,663,439.19Z"/><path d="M198.41,439.18c7,0,11.77,5.19,11.66,12.51-.1,6.9-5.37,11.91-12.41,11.77a11.87,11.87,0,0,1-11.89-12.4A12.25,12.25,0,0,1,198.41,439.18Z"/><path d="M130.6,439.21a12.31,12.31,0,0,1,12.46,12,11.8,11.8,0,0,1-12,12.24c-7.43.1-12.85-5.06-12.85-12.22A12.21,12.21,0,0,1,130.6,439.21Z"/><path d="M730.2,405.63a12.09,12.09,0,0,1,12.34,12.06c.12,6.39-5.75,12.17-12.41,12.22A12.29,12.29,0,0,1,718,417.65C717.94,410.77,723.07,405.73,730.2,405.63Z"/><path d="M340.63,417.88c-.06,7.18-5.05,12.16-12.08,12a12.51,12.51,0,0,1-12.15-12.41c.14-6.78,5.49-11.85,12.53-11.89S340.69,410.49,340.63,417.88Z"/><path d="M442.61,418a12.52,12.52,0,0,1-12.64,12,12.29,12.29,0,0,1-11.87-12.54c.15-6.89,5.33-11.77,12.49-11.75A12,12,0,0,1,442.61,418Z"/><path d="M997.12,405.62c7,0,11.72,5,11.6,12.4-.11,7.11-5.29,12.11-12.28,11.89a12.28,12.28,0,0,1-12-12.54C984.64,410.62,990,405.61,997.12,405.62Z"/><path d="M543.2,417.37a11.88,11.88,0,0,1-12,12.54A12.5,12.5,0,0,1,519,418.36a11.88,11.88,0,0,1,11.71-12.72C537.87,405.3,543,410.09,543.2,417.37Z"/><path d="M696.64,439.19c6.51,0,12,5.86,11.93,12.58S703,463.61,696,463.46a12.11,12.11,0,0,1-12-12.34A12.62,12.62,0,0,1,696.64,439.19Z"/><path d="M844.07,463.46c-7.19,0-12.44-5.14-12.36-12a12.31,12.31,0,0,1,12.47-12.17,12.07,12.07,0,0,1,12,12.34C856.2,459,851.55,463.5,844.07,463.46Z"/><path d="M177.05,451.28a12.32,12.32,0,0,1-24.63.33,12.47,12.47,0,0,1,12.19-12.39C171.14,439,176.94,444.58,177.05,451.28Z"/><path d="M1109.71,451.17c.08,7.14-4.81,12.22-11.84,12.29a12,12,0,0,1-12.5-11.88c-.07-7,5.65-12.48,13-12.37C1105,439.31,1109.63,444.14,1109.71,451.17Z"/><path d="M662.66,304.25c7,.14,11.94,5.41,11.77,12.58a11.67,11.67,0,0,1-11.83,11.69,12.14,12.14,0,1,1,.06-24.27Z"/><path d="M1076.07,316.64a12,12,0,0,1-12.64,11.86c-7-.18-12-5.6-11.65-12.67a11.92,11.92,0,0,1,12.07-11.6A12.22,12.22,0,0,1,1076.07,316.64Z"/><path d="M997,328.51a11.92,11.92,0,0,1-12.53-11.95,12.22,12.22,0,0,1,12.29-12.33,12,12,0,0,1,12,11.71C1009,323,1004,328.37,997,328.51Z"/><path d="M530.84,463.46A11.91,11.91,0,0,1,519,450.94a12.45,12.45,0,0,1,12.91-11.72c6.53.24,11.36,5.49,11.34,12.34C543.19,458.71,538.11,463.6,530.84,463.46Z"/><path d="M629.63,463.46c-7,.15-12.51-4.93-12.65-11.79a12.28,12.28,0,0,1,12.18-12.45c6.37-.2,12.33,5.77,12.41,12.44C641.64,457.89,636.16,463.31,629.63,463.46Z"/><path d="M708.57,417.92a12.38,12.38,0,0,1-12.53,12A12.58,12.58,0,0,1,684,417.4c.16-6.69,5.59-11.76,12.62-11.77A12,12,0,0,1,708.57,417.92Z"/><path d="M1406.9,418.3a12,12,0,0,1-12.76,11.61c-6.76-.31-11.67-5.83-11.43-12.84.23-6.83,5.56-11.63,12.69-11.44A11.74,11.74,0,0,1,1406.9,418.3Z"/><path d="M729.85,328.51a12.13,12.13,0,0,1,.07-24.26c6.53,0,12.66,6,12.6,12.3A12.24,12.24,0,0,1,729.85,328.51Z"/><path d="M1042.66,451.75c-.14,7.08-5.22,11.87-12.4,11.7-6.87-.15-12.38-5.75-12.14-12.32s6.08-11.94,12.83-11.91S1042.8,444.68,1042.66,451.75Z"/><path d="M509.55,418.08a12.21,12.21,0,0,1-12.64,11.82c-6.58-.22-12.21-6.17-12-12.63.26-6.75,5.71-11.71,12.79-11.65A11.79,11.79,0,0,1,509.55,418.08Z"/><path d="M442.6,316.85c-.27,6.81-5.91,11.89-13,11.66-6.91-.22-11.83-5.68-11.53-12.81a11.91,11.91,0,0,1,12.19-11.44C436.84,304.38,442.85,310.52,442.6,316.85Z"/><path d="M340.63,316.83A11.74,11.74,0,0,1,328,328.51a11.92,11.92,0,0,1-11.57-12.85,12.1,12.1,0,0,1,24.17,1.17Z"/><path d="M1008.72,451.22c.13,7.19-4.66,12.17-11.79,12.24a12.09,12.09,0,0,1-12.49-11.85c-.09-6.67,5.18-12,12.16-12.34S1008.59,444,1008.72,451.22Z"/><path d="M1097.88,304.22a12,12,0,0,1,11.83,12.62,11.77,11.77,0,0,1-11.88,11.68,12.41,12.41,0,0,1-12.44-12.18A12.24,12.24,0,0,1,1097.88,304.22Z"/><path d="M232,439.25c6.83-.15,12.09,5.17,12.07,12.23a11.86,11.86,0,0,1-11.53,12c-7.27.26-13.16-5.2-13.1-12.14C219.48,444.74,225,439.41,232,439.25Z"/><path d="M329,439.21c6.92,0,11.73,5.09,11.65,12.44s-4.9,11.92-12.14,11.81a12.07,12.07,0,0,1-12.05-12.26A12.34,12.34,0,0,1,329,439.21Z"/><path d="M1076.08,451.58a12.16,12.16,0,0,1-24.31-.39c.1-6.88,5.24-11.86,12.37-12C1070.93,439.11,1076.18,444.54,1076.08,451.58Z"/><path d="M442.62,451.32a12,12,0,0,1-12.22,12.14,11.76,11.76,0,0,1-12.3-11.88,12.2,12.2,0,0,1,12-12.37C436.59,439,442.44,444.67,442.62,451.32Z"/><path d="M844.08,362.68c-7,.13-12.44-4.85-12.68-11.6-.26-7,4.79-12.18,11.89-12.29s12.46,4.77,12.72,11.6A11.77,11.77,0,0,1,844.08,362.68Z"/><path d="M696.32,304.26c6.58.1,12.45,6.11,12.24,12.54a12.09,12.09,0,0,1-12.81,11.71,12.13,12.13,0,0,1,.57-24.25Z"/><path d="M1394.72,439.2a12,12,0,0,1,12.21,12.35,12.12,12.12,0,0,1-24.23.1A11.92,11.92,0,0,1,1394.72,439.2Z"/><path d="M232.2,304.24A12.42,12.42,0,0,1,244,316.88a11.9,11.9,0,0,1-12.65,11.63,12.39,12.39,0,0,1-12-12.52C219.59,309.5,225.54,304,232.2,304.24Z"/><path d="M822.28,350.74c.05,7.51-4.42,12-11.94,12s-12.32-4.83-12.27-12,5-11.93,12.28-12.15C817.49,338.41,822.24,343.24,822.28,350.74Z"/></svg>