<svg id="Layer_1" data-name="Layer 1" xmlns="http://www.w3.org/2000/svg" viewBox="0 0 1419.57 841.89"><defs><style>.cls-1{fill:#FF6200;}</style></defs><path class="cls-1" d="M686.8,375.92V565.61q-324,0-647.91.1c-3.75,0-4.6-.84-4.6-4.57q.21-90.61,0-181.25c0-3.4.68-4.07,4.1-4.06Q362.6,376,686.8,375.92ZM367.06,439.49c1.06,4.15,2.08,7.85,2.94,11.59q5.1,22.07,10.12,44.15c1.77,7.81,1.74,7.81,10.08,7.81,2.16,0,4.32-.05,6.48,0s3.09-.88,3.45-3.16c1.13-7,2.64-13.91,3.9-20.87.26-1.45.66-2.76,2.25-2.62,1.18.11,1.64,1.28,1.81,2.57.57,4.32,1.21,8.63,2,12.91,2.11,11.17,2.15,11.16,13.76,11.16a5.56,5.56,0,0,1,1,0c4.07.76,5.41-1.11,6.29-5,4.4-19.4,9.19-38.71,14-58.56-5.07,0-9.89.38-14.61-.11-4.16-.44-5.25,1.81-5.39,4.88-.23,5.22-1.57,10.27-2.38,15.36-.47,3,.72,6.81-2.5,9.89-.54-9.2-3.27-17.38-4.46-25.83-.55-3.88-2.47-4.51-5.84-4.25s-7,.11-10.48,0c-1.57,0-2.4.28-2.45,2.14a25.44,25.44,0,0,1-1,5.72c-1.66,6.47-2.15,13.24-4.51,19.94-.68-.8-1.22-1.14-1.27-1.54-1.1-7.69-2.21-15.39-3.14-23.1-.24-1.95-.83-3.13-2.95-3.13ZM574,503c-4-7.78-7.52-14.81-11.11-21.82-.68-1.33-1.64-2.68.3-3.71,7.85-4.17,8.77-11.17,8.83-19.14.09-12.13-7.11-17.67-17-18.64-11-1.08-22.29-.21-33.44-.28-1.87,0-2.63.49-2.63,2.49q.09,29.3,0,58.58c0,1.93.67,2.41,2.57,2.58,15.45,1.4,15.45,1.45,15.45-13.57a12.25,12.25,0,0,1,0-3c.4-1.49-1.44-3.93,1.6-4.33,2.53-.33,4.7-.14,5.92,2.92,2,5.06,5.2,9.63,6.93,14.86.58,1.74,1.43,3.14,3.81,3.08C561.36,502.94,567.47,503,574,503Zm-213.77,0c-3.93-7.64-7.55-14.62-11.08-21.64-.58-1.16-2-2.64.08-3.75,8.05-4.26,8.85-11.47,9-19.57.21-11.73-8.11-18-18.84-18.5-10.13-.47-20.31,0-30.46-.17-3.07-.06-3.91.73-3.87,3.82.17,15.23,0,30.45.11,45.68,0,4.58-2,10.75.82,13.32,3.05,2.76,9.2.46,14,.86,2.83.24,3.29-1,3.21-3.44-.17-4.46-.16-8.94,0-13.4.05-1.36-1.3-3.7,1.38-4,2.12-.21,4.44-.83,5.77,2.27,2.29,5.33,5.42,10.31,7.6,15.67.87,2.12,1.7,2.86,3.78,2.84C347.72,503,353.7,503,360.25,503ZM455,471.25c0,9.42.1,18.85-.06,28.27-.05,2.79.74,3.63,3.58,3.59C470,503,481.48,503,493,503c12.4,0,12.29,0,12.09-12.44-.05-2.89-.95-3.56-3.68-3.51-7.65.17-15.31-.2-22.95.17-4,.19-4.82-1.18-4.49-4.72.27-2.87-.83-6,4.27-5.43,4.77.53,9.64.11,14.46.11,11.76,0,11.66,0,11.38-11.65-.06-2.63-.78-3.36-3.38-3.3-7.64.16-15.3-.12-22.94.14-3.2.1-3.85-.94-3.83-3.9s.49-4.43,4-4.22c5.3.33,10.64.09,16,.09,11.42,0,11.32,0,11.18-11.36,0-2.74-.71-3.63-3.57-3.6q-21.47.21-42.91,0c-2.8,0-3.66.73-3.61,3.56C455.12,452.4,455,461.83,455,471.25Zm188.85-31.77c-6.71,0-12.82.14-18.91-.06-3-.1-4.72.79-6.12,3.61-3,6.06-6.54,11.84-9.72,17.81-.75,1.4-1.36,2.8-3.17,2.38s-.91-2.18-1-3.32c-.17-1.81.05-3.64-.06-5.46-.29-4.89,2.17-11.61-1-14.18s-9.53-.54-14.48-.83c-2.91-.18-3.57.87-3.55,3.61q.17,28.31,0,56.6c0,3,1,3.59,3.71,3.45,4-.19,8-.18,12,0,2.53.12,3.56-.52,3.42-3.25a126.15,126.15,0,0,1,0-12.9c.07-1.56-1.3-3.89,1.17-4.65s4.33.43,5.75,2.65c3.22,5,6.8,9.84,9.88,14.95,1.37,2.25,2.81,3.26,5.45,3.2,6-.15,12,0,18,0a5.66,5.66,0,0,0-1.39-3.51q-9.4-13.23-18.67-26.55c-1.46-2.1-2.15-3.86-.15-6.55C631.45,457.8,637.39,448.82,643.86,439.48ZM242.2,471.29c0,9.42.11,18.85-.06,28.27,0,2.84.84,3.58,3.62,3.54,11.48-.14,22.95-.06,34.43-.06,12.38,0,12.27,0,12.05-12.48-.05-2.94-1-3.51-3.72-3.46-8.31.15-16.64-.18-24.94.15-4.29.17-3.54-2.45-3.33-4.73s-1.78-5.63,3.18-5.36c5.47.28,11,.06,16.46.06,11.75,0,11.65,0,11.35-11.69-.07-2.68-.87-3.45-3.42-3.25s-5,0-7.48,0c-20.13,0-20.13,0-20.15-3.84,0-4.1,0-4.1,19.9-4.1,11.4,0,11.3,0,11.14-11.39,0-2.8-.79-3.6-3.61-3.57q-21,.21-41.91,0c-2.85,0-3.62.82-3.57,3.6C242.3,452.44,242.2,461.86,242.2,471.29Zm-95.91,0c0,9.42.1,18.85-.06,28.27,0,2.78.73,3.63,3.58,3.59,11.47-.16,22.95-.07,34.42-.07,12.41,0,12.3,0,12.09-12.44,0-2.88-.94-3.56-3.67-3.51-8,.17-16-.19-23.94.17-4,.18-4.84-1.17-4.5-4.71.28-2.87-.84-6,4.27-5.44,4.76.53,9.63.11,14.46.11,11.76,0,11.66,0,11.38-11.65-.06-2.62-.77-3.36-3.37-3.3-7.65.16-15.31-.12-22.95.14-3.19.1-3.85-.93-3.83-3.9s.48-4.43,4-4.22c5.3.33,10.64.09,16,.09,11.43,0,11.33,0,11.19-11.35,0-2.74-.7-3.64-3.57-3.61q-21,.21-41.91,0c-2.8,0-3.67.73-3.61,3.56C146.4,452.4,146.29,461.82,146.29,471.25ZM84.35,471c0,9.59.09,19.18-.06,28.77-.05,2.63.72,3.46,3.35,3.32a99.75,99.75,0,0,1,11.47,0c2.75.17,3.35-.88,3.27-3.39-.17-5.62.16-11.26-.13-16.86-.17-3.5.49-5.05,4.49-4.73,5.13.4,10.31.09,15.47.09,12.45,0,12.35,0,12.16-12.37,0-2.78-.76-3.64-3.6-3.58-8.31.18-16.63-.06-25,.13-2.87.06-3.56-.85-3.6-3.6,0-3,1-3.56,3.73-3.47,5.65.18,11.31.05,17,.05,12.84,0,12.76,0,12.45-12.58-.07-2.52-.6-3.39-3.31-3.37q-22.2.19-44.42,0c-2.58,0-3.4.67-3.35,3.3C84.44,452.15,84.35,461.58,84.35,471Zm143.87.43c0-9.58-.05-19.16,0-28.74,0-2.11-.17-3.4-2.86-3.28-4.48.22-9,.17-13.46,0-2.3-.09-2.74.86-2.73,2.9q.09,29,0,58c0,2.23.76,2.83,2.87,2.76,4.32-.13,8.65-.21,13,0,2.77.15,3.28-.93,3.25-3.41C228.14,490.28,228.22,480.86,228.22,471.44Z"/><path class="cls-2" d="M859.37,468.68c.74,10,0,20,.39,30,.14,3.91-1.13,4.79-4.7,4.46-3.94-.37-9.28,1.26-11.53-.74-2.67-2.36-.79-7.76-.82-11.83-.11-15.71.06-31.43-.13-47.14-.05-3.36,1.16-3.56,4.11-4.08,8.89-1.58,14.33,2.53,18.74,9.42,5.1,8,11.61,14.94,16.89,24.33.36-3.79-.26-6.24-.46-8.81-.59-7.57-.2-15.2-.25-22.81,0-1.51.59-2.11,2-2a2.78,2.78,0,0,0,.5,0c14.45-1.26,14.45-1.26,14.45,12.94,0,15.55-.09,31.1.08,46.65,0,3.23-1.05,3.52-4,4.16-10.61,2.28-14.26-5.59-19-12C870.14,483.81,864.8,476.22,859.37,468.68Z"/><path class="cls-2" d="M1350.94,471.92c-1.14-9.34-.52-18.61-.81-27.85-.11-3.47.46-5.22,4.47-4.65s9.51-1.72,11.89.9c2,2.23.68,7.52.69,11.46,0,15.55-.09,31.1.09,46.65,0,3.41-.66,4.15-4.38,4.87-10.23,1.95-13.78-5.47-18.33-11.49-5.71-7.55-11-15.39-16.83-23.57-1.07,3.31.24,6.09.37,8.94.36,7.76,0,15.54.18,23.32,0,2.42-1.08,2.7-3,2.56-4.58-.35-10.53,1.9-13.36-1-2.19-2.21-.66-8.13-.67-12.41,0-15.38.07-30.76-.08-46.15,0-3.08.73-3.73,4-4.24,9.29-1.47,14.52,2.89,19.25,10.14C1339.42,457.17,1345.55,464.19,1350.94,471.92Z"/><path class="cls-2" d="M929.59,461.21c5.19-6.53,9.84-11.85,13.86-17.61,2.13-3.06,4.33-4.37,8-4.19,5.48.27,11,.07,16.93.07-6.13,7-11.91,13.83-18,20.39-1.81,1.95-1,3-.06,4.79,6.8,12.65,13.46,25.37,20.33,38.38-6.3,0-12-.08-17.61,0-2.38.06-3.82-.45-5-2.86-3.76-8-7.87-15.73-11.9-23.69-5.12,3.42-7.31,8.05-6.71,14.33.37,3.88,1.31,9.11-.69,11.43s-7.53.26-11.43.82c-4.83.69-6-1-5.9-5.78.33-17.86.24-35.74,0-53.61,0-3.48.8-4.68,4.34-4.3,4.42.48,10.3-1.79,12.95.85s.59,8.46.77,12.88C929.66,455.39,929.59,457.64,929.59,461.21Z"/><path class="cls-2" d="M1270.88,504c-15.81-.12-26.26-9.5-28.69-24.87-1.74-11-.8-21.21,6.11-30.18,9.41-12.22,26.3-13.6,39.13-5.87,6.52,3.93,9.41,10.19,11.32,17.15a41.41,41.41,0,0,1-2,27.86C1292.63,497.86,1281.33,504.66,1270.88,504Zm11.32-32.58c.53-3.94-.76-7.49-2-10.87s-3.46-6-7.58-6.23c-4.63-.26-8.93.1-10.93,5.16-2.8,7.09-3.33,14.19-.45,21.49,1.73,4.39,4.32,7.54,10.78,7.27,5.58-.24,7.91-3.74,9-7.91C1281.73,477.53,1283,474.48,1282.2,471.46Z"/><path class="cls-2" d="M772.73,461.47c0-7.4.1-13.18-.05-19-.07-2.33.55-3.19,3-3.07,4.8.24,10.88-1.56,14,.74s.83,8.61.92,13.16c.17,8.26-.11,16.53.12,24.79.11,4.21,1.72,8.19,6.09,9.56,4,1.25,8.12,1.11,11.3-2.46,2.08-2.33,2.54-5.1,2.53-8.06,0-11.41.09-22.82-.08-34.22,0-2.84.8-3.68,3.6-3.51,4.62.27,10.67-1.52,13.51.76s.81,8.64.9,13.2c.16,7.93.38,15.89,0,23.8-.48,8.83-3.1,16.64-10.82,22.48-15.53,11.76-40.73,2.2-44.19-16.75C772.17,475.17,773.51,467.52,772.73,461.47Z"/><path class="cls-2" d="M981.13,482.29c5.58,4.5,12.54,5.34,19.24,6.69,2.07.42,4.46-.52,6.65-1.05,1.45-.35,1.94-2,2.06-3.06s-.79-2.28-2.27-3c-5.63-2.92-11.94-3.61-17.89-5.31-11.71-3.37-15.12-11.57-14.28-19.42.92-8.5,5.57-15.09,16.59-17.58a43,43,0,0,1,31.85,4.78c2.36,1.34,3.25,2.07,1,4.1-.33.29-.34.89-.59,1.29-1.89,3-3.18,6.87-5.88,8.65s-5.51-2.42-8.73-2.92c-4.34-.67-8.55-1.92-13.09-1.15-2.09.36-4,1.38-4,2.89,0,2,2,3.56,4.21,4.15,5.4,1.47,10.91,2.61,16.22,4.35,10.62,3.49,14.7,9.64,14.29,19.55-.34,8.09-7,15.76-16,17.76-12.16,2.71-23.75.7-34.82-4.84-2.34-1.18-3.56-2-1.33-4.78C977,490,978.89,486.06,981.13,482.29Z"/><path class="cls-2" d="M1084.19,503c7.56-20.78,14.93-40.94,22.18-61.15.61-1.7,1.39-2.44,3.11-2.41s3.66,0,5.49,0c10.36,0,10.56-.07,14.06,9.19,6.47,17.12,12.67,34.34,19,51.5.81,2.2.19,3-2.16,2.91-4.66-.12-9.33-.19-14,0-2,.09-2.61-1-3.14-2.32a23.12,23.12,0,0,1-1.92-5.86c-.29-2.72-1.78-2.92-4-2.85-4.16.11-8.34.24-12.48,0-3.31-.22-4.74,1-5,4.22-.44,5.07-2.74,7.76-8.52,6.89C1093,502.57,1088.91,503,1084.19,503Zm32.1-43.93c-1.3,4.84-2.14,8.41-3.23,11.89-2.24,7.19-1,8.5,6.57,7.27,1.6-.25,2.23-1,1.7-2.16C1119,471.07,1118.69,465.45,1116.29,459.11Z"/><path class="cls-2" d="M712.78,471.14c0-9.26.1-18.53-.06-27.79-.05-2.82.34-4,3.68-4,14.31.21,28.62.18,42.94,0,3,0,3.44,1,3.46,3.65.09,11.32.18,11.32-11.17,11.32-6,0-12,.23-18-.09-3.47-.19-3.9,1.14-4,4.16-.14,3.47,1.17,4.11,4.23,3.93,4-.23,8,.1,12-.11,2.84-.15,4,.33,4,3.64,0,11.31.14,11.31-11.21,11.31-8.88,0-8.88,0-8.88,9.06,0,4.3-.16,8.61.06,12.9.15,2.85-.34,4.25-3.69,3.93-4.26-.39-9.91,1.33-12.5-.81s-.72-8.05-.81-12.3C712.67,483.72,712.78,477.43,712.78,471.14Z"/><path class="cls-2" d="M1059.08,439.48c7.49,0,15,.12,22.47-.06,2.83-.07,4,.34,4,3.65,0,12.3.14,12.64-12.21,12.14-5.32-.21-6.12,1.56-6,6.25.33,12.4,0,24.82.19,37.22,0,3.27-.46,4.82-4.2,4.44-4.1-.42-9.51,1.25-12-.8s-.74-7.74-.79-11.81c-.13-10.09-.31-20.19.08-30.27.17-4.35-1.28-5.58-5.23-4.87a2.78,2.78,0,0,1-.5,0c-13.12,0-13,0-12.46-13,.11-2.54,1-2.93,3.21-2.9C1043.44,439.55,1051.26,439.48,1059.08,439.48Z"/><path class="cls-2" d="M1173.86,439.48c7.83,0,15.65.09,23.47-.05,2.39-.05,3,.65,3.08,3,.5,12.91.57,13.12-12.55,12.79-4.55-.11-5.74,1.1-5.62,5.6.33,12.73,0,25.47.2,38.21,0,3.23-.79,4.32-4.08,4.05-4.12-.34-9.67,1.37-12-.7-2.77-2.41-.85-8.05-.9-12.28-.12-10.42-.14-20.85,0-31.27,0-2.79-.73-3.95-3.56-3.5a13.34,13.34,0,0,1-2,0c-13.13,0-13.05,0-12.56-12.91.09-2.37.68-3.08,3.08-3C1158.22,439.57,1166,439.48,1173.86,439.48Z"/><path class="cls-2" d="M1229.32,471.35c0,9.27-.1,18.53,0,27.8.05,2.76-.24,4.27-3.65,4-4.6-.4-10.7,1.46-13.48-.84s-.84-8.67-.87-13.23c-.1-15.06.12-30.12-.15-45.18-.07-3.88,1.12-4.77,4.7-4.45,4.27.37,10.1-1.39,12.49.77,2.8,2.54.76,8.39.87,12.79C1229.43,459.1,1229.32,465.23,1229.32,471.35Z"/><path class="cls-3" d="M543.44,454.22c2.53.55,4.6-.2,6.76.78,2.69,1.22,3.49,3.21,3.7,5.72a5,5,0,0,1-3.28,5.3c-1.64.72-3.21,1.55-5.13,1.29-2.74-.37-7,1.26-7.92-.73-1.38-3-1.2-7.2-.42-10.6C538,452.35,541.77,455.66,543.44,454.22Z"/><path class="cls-3" d="M329.63,454.27c2.33.43,4.45-.28,6.56.62a6,6,0,0,1,3.89,6.57c-.29,4-3.54,5.23-6.68,5.74-9.1,1.5-12.34-2-10.19-11C324.16,452.17,327.78,455.55,329.63,454.27Z"/><path class="cls-1" d="M1372.25,377.94V563.68H688.83V377.94h683.42m2-2H686.8V565.71h687.48V375.92Z"/></svg>