<svg id="Layer_1" data-name="Layer 1" xmlns="http://www.w3.org/2000/svg" viewBox="0 0 441.19 490.21"><path d="M201.16,383.59v-5.67q0-23.71,0-47.43c0-2.5,0-4.34-3.49-4.71-24.38-2.6-45.63-12.31-64.33-28.17a117.71,117.71,0,0,1-35.58-52,120,120,0,0,1-5.69-53.8,121.69,121.69,0,0,1,14.12-44.41c10.29-19.08,25-33.87,43.25-45.38,14.48-9.12,30.49-13.69,47.05-16.8a34.16,34.16,0,0,1,5.61,0c0,10.55.06,21-.11,31.4,0,.84-1.53,2.27-2.48,2.39a80.64,80.64,0,0,0-40.8,17.42,88.26,88.26,0,0,0-32.58,53.09c-3.89,19.09-.9,37.15,7.27,54.32,7.47,15.69,19,28,34,37.17,10.31,6.29,21.5,9.73,33.76,12V194.28h23.73v98.61C256.75,287.19,279,270,293.62,241H245.37V217.39h88.19c-1.76,23.66-10.53,44.79-25.06,63.24-16,20.29-36.32,34.79-61.72,41.29-6.12,1.57-12.42,2.5-18.55,4.07a4.86,4.86,0,0,0-3,3.4c-.29,6.62-.14,13.26-.14,20.47,39.92-3.93,72.68-21.13,98.18-51.05s36.49-65,34.12-104.52h32.67C399.82,281.25,326.79,388.73,201.16,383.59Z"/><path d="M224.33,118.32V85.07A116.33,116.33,0,0,1,275,101.51c2.49,8.52,3.58,16.13,6.88,22.59,4.34,8.47,12.19,15.12,21.79,14.57s13.88,3.81,17.31,11.19c5.83,12.6,10.69,25.49,12.05,39.46.16,1.75.6,3.47,1,5.47H300.61C292.17,152.82,267.34,127,224.33,118.32Z"/><path d="M308.2,131.11c-11.9,1.19-23-9.74-23.11-22.75-.09-10.87,8.61-22.86,23.73-22.5,12,.29,22.12,10.83,22.14,22.12C331,121.17,319.83,132.14,308.2,131.11Z"/><path d="M74.66,380.33c6.12-2.22,9,.92,11.37,5.69s5,9.3,8.21,15.22V380.05l5.74-.28v33.48c-4.81,1.64-7.48-.09-9.45-4.69a72,72,0,0,0-9.13-15.14v20.11H74.66Z"/><path d="M127,370.71h-7l-11.79-21.06-.82.16v20.73h-5.67V337.22c4-.85,7.35-1,9.58,4,2.6,5.82,6.14,11.21,10,18.07V337.2H127Z"/><path d="M170.45,413.72V380.57c12.75-1.95,19.48-1.38,24.65,7.18,5,8.34,2.39,24.19-12.61,25.9C178.6,414.09,174.62,413.72,170.45,413.72Zm6-27.75v21.41c7.66,2.14,14.36-5,14.68-10.39C191.54,390,185.65,385.49,176.44,386Z"/><path d="M71.13,343.43c-3.13,2.73-5.53,4.59-9.33.85-2.33-2.3-5.74-1.41-8.73,1.13-4,3.41-3.68,14.71.91,18.5,3.87,3.2,8.39,1.7,10.89-3.89l-6.31-.4-.24-5.47H71.74c1.6,9.25-3.62,17.06-12.33,17.54-8,.44-14.75-4.73-16-15.19-1.08-9.35,3-17.32,10-19.23S66.7,337.37,71.13,343.43Z"/><path d="M70.74,380.09c-.48,7.51-.2,15-1.63,22.12-1.48,7.36-8,11.42-15.58,11.52-2.48,0-5,0-7.8,0V380.13h5.51v27.14c6.87.52,12-3.87,12.08-10,.07-5.61,0-11.23,0-17.14Z"/><path d="M143.63,337h5.49v27.25c7.79,1.13,12.85-3.47,13.06-11.56.14-5.11,0-10.23,0-15.59h6.58c-.69,8.22-.56,16.64-2.33,24.63-1.51,6.84-7.6,9.25-14.47,9.07-2.65-.07-5.31,0-8.36,0Z"/><path d="M192.94,336.87v6h-7.77c-3.15,0-7-.52-6.87,4.16.1,4.26,3.68,3.83,6.69,3.85,6.79.05,10.88,4.49,10.16,11a8.68,8.68,0,0,1-8.76,8c-4.81,0-9.62,0-14.81,0l-.5-5c4.28,0,8.3.5,12.11-.19,2.14-.39,5.42-2.65,5.53-4.25.2-3-2.74-4-5.75-3.56a7.37,7.37,0,0,1-2,0c-3.74-.42-6.79-1.75-8.62-5.42s-1.85-7.27.88-10.05a15.56,15.56,0,0,1,7.69-4.28C184.74,336.33,188.79,336.87,192.94,336.87Z"/><path d="M151.45,407.71h13.42v5.76h-19.4V380.18h19.38v5.54H151.46v6.83h8.41v6l-8.42.42Z"/><path d="M97.07,337.2v5.48H83.7v7.92L91,351v5.65H83.68v8H97v5.88H77.7V337.2Z"/><path d="M132.51,413.56h-7.15V385.82h-9.87v-5.69h25.42v5.46h-8.4Z"/><path d="M137.94,370.71h-5.31v-33.5h5.31Z"/><path d="M111,413.52h-5.41V380H111Z"/></svg>