<svg id="Layer_1" data-name="Layer 1" xmlns="http://www.w3.org/2000/svg" viewBox="0 0 367.66 555.57"><defs><style>.cls-1{fill:#1d1d1b;}</style></defs><path class="cls-1" d="M278.21,53.6A40.18,40.18,0,1,1,238,93.78,40.18,40.18,0,0,1,278.21,53.6Zm0,91.87a51.69,51.69,0,1,0-51.69-51.7,51.69,51.69,0,0,0,51.69,51.7Z"/><path class="cls-1" d="M148.61,183.83a39.55,39.55,0,0,1,39.55-39.56V133A50.87,50.87,0,1,0,239,183.83H227.79a39.59,39.59,0,0,1-79.18,0Z"/><path class="cls-1" d="M114.73,183.82a73.47,73.47,0,0,0,146.94,0H250.42a62.21,62.21,0,1,1-62.25-62.15V110.39a73.44,73.44,0,0,0-73.43,73.43Z"/><path class="cls-1" d="M91.94,183.82a96.17,96.17,0,1,0,192.34,0H273a84.75,84.75,0,1,1-84.79-84.71V87.71a96.13,96.13,0,0,0-96.23,96.11Z"/><path class="cls-1" d="M188.17,64.77a119.05,119.05,0,1,0,119,119.06H295.82A107.61,107.61,0,1,1,188.17,76.25V64.77Z"/><path class="cls-1" d="M188.17,314.26a130.44,130.44,0,0,1,0-260.88V42.09A141.73,141.73,0,1,0,329.9,183.83H318.69A130.51,130.51,0,0,1,188.17,314.26Z"/><path class="cls-1" d="M74.18,425c5.65,0,12.62-1.26,16.41-3.05V391.2H71.27v9.66H79v13.79a34.26,34.26,0,0,1-5.07.33c-8.55,0-15.18-4.52-15.18-19,0-14.29,6.7-18.82,16.67-18.82a39.65,39.65,0,0,1,13.14,2.31l1.19-9.74c-3.86-1.57-10.16-2.53-15-2.53-17.18,0-28.27,9-28.27,28.92C46.43,415.59,56.7,425,74.18,425Z"/><polygon class="cls-1" points="268.95 423.84 280.92 423.84 280.92 368.07 268.95 368.07 268.95 390.09 251.02 390.09 251.02 368.07 239.05 368.07 239.05 423.84 251.02 423.84 251.02 400.04 268.95 400.04 268.95 423.84 268.95 423.84"/><polygon class="cls-1" points="220.2 423.84 220.2 378.11 232.31 378.11 232.31 368.07 195.97 368.07 195.97 378.11 208.08 378.11 208.08 423.84 220.2 423.84 220.2 423.84"/><polygon class="cls-1" points="167.79 400.1 187.48 400.1 187.48 390.26 167.79 390.26 167.79 378.02 190.98 378.02 190.98 368.07 155.82 368.07 155.82 423.84 191.76 423.84 191.76 413.89 167.79 413.89 167.79 400.1 167.79 400.1"/><path class="cls-1" d="M123,376.36c7.59,0,11.23,4.75,11.23,19.56s-3.64,19.7-11.15,19.7-11.31-4.9-11.31-19.7,3.72-19.56,11.23-19.56Zm0,49.12c15.84,0,23.49-8.51,23.49-29.56,0-20.6-7.65-29.48-23.49-29.48S99.5,375.32,99.5,395.92s8,29.56,23.49,29.56Z"/><polygon class="cls-1" points="328.71 413.89 304.75 413.89 304.75 400.1 324.43 400.1 324.43 390.26 304.75 390.26 304.75 378.02 327.93 378.02 327.93 368.07 292.78 368.07 292.78 423.84 328.71 423.84 328.71 413.89 328.71 413.89"/><polygon class="cls-1" points="154.2 452.67 165.29 452.67 165.29 496.8 176.98 496.8 176.98 452.67 188.07 452.67 188.07 442.98 154.2 442.98 154.2 452.67 154.2 452.67"/><polygon class="cls-1" points="50.45 496.8 62.26 496.8 62.26 442.98 50.45 442.98 50.45 496.8 50.45 496.8"/><path class="cls-1" d="M279,478.07c0,6.25-2.14,9.7-8,9.7s-8-3.52-8-9.7V443h-11.7v35.53c0,12.91,6.65,19.23,19.71,19.23s19.57-6.32,19.57-19.23V443H279v35.09Z"/><path class="cls-1" d="M131.62,457.32c0-2.79,1.43-5.54,7.29-5.54a24.94,24.94,0,0,1,10.18,2.4l1.29-9.41a28.51,28.51,0,0,0-12.48-2.65c-12.41,0-17.77,7.17-17.77,16.29,0,17.31,21.4,14,21.4,23.62,0,3.69-2.33,6.18-7.22,6.18s-8.9-1.63-12.89-3.89l-1.51,9.61a29.49,29.49,0,0,0,14.91,3.81c11.63,0,18.2-6.46,18.2-17,0-17.88-21.4-15.09-21.4-23.41Z"/><polygon class="cls-1" points="101.24 474.4 84.69 442.98 74.01 442.98 74.01 496.8 84.69 496.8 84.69 465.38 101.24 496.8 111.92 496.8 111.92 442.98 101.24 442.98 101.24 474.4 101.24 474.4"/><polygon class="cls-1" points="296.03 442.98 296.03 452.67 307.12 452.67 307.12 496.8 318.81 496.8 318.81 452.67 329.9 452.67 329.9 442.98 296.03 442.98 296.03 442.98"/><polygon class="cls-1" points="194.05 496.8 205.86 496.8 205.86 442.98 194.05 442.98 194.05 496.8 194.05 496.8"/><polygon class="cls-1" points="211.84 452.67 222.93 452.67 222.93 496.8 234.62 496.8 234.62 452.67 245.72 452.67 245.72 442.98 211.84 442.98 211.84 452.67 211.84 452.67"/></svg>