<svg id="Layer_1" data-name="Layer 1" xmlns="http://www.w3.org/2000/svg" viewBox="0 0 1208.17 841.89"><path d="M1148.39,689.08h-7c-68.59,0-137.18-.08-205.77.14-5.93,0-8.21-1.49-9.71-7.49-12.68-50.82-25.77-101.55-38.81-152.28-5-19.23-9.89-38.46-15.29-57.56-1.78-6.31.35-7.31,6.07-7.91,18.67-2,37.25-4.69,55.88-7,13.88-1.68,27.81-3,41.7-4.68s27.68-3.59,41.53-5.34c9.56-1.2,19.14-2.25,28.7-3.46,10.74-1.36,21.51-2.56,32.18-4.31,8.39-1.38,11.4,0,13.38,8.2q16.27,67,32.41,134,12.66,52.71,25,105.47A8.27,8.27,0,0,1,1148.39,689.08ZM940.59,539.43l36.33-2.63c8.36,33.23,16.84,67,25.21,100.25h35.18c-8.65-34.78-17.15-68.92-25.68-103.2l38.78-3.14c-2.83-11.82-5.31-22.22-7.73-32.31-18.64,1.85-36.6,3.7-54.58,5.4-18.28,1.73-36.58,3.3-55.22,5C935.39,518.78,937.89,528.7,940.59,539.43Z"/><path d="M683,488c22.56-2.58,44.82-4.94,67-7.72,21.47-2.68,42.89-5.86,64.35-8.68,12.41-1.63,24.83-3.2,37.3-4.23,1.85-.15,5.26,2.52,5.77,4.46,11.55,44.19,22.7,88.49,34.14,132.71,6.94,26.85,14.25,53.61,21.37,80.41a41.43,41.43,0,0,1,.6,4.17h-6.85c-54.13,0-108.25-.08-162.38.11-5.6,0-7.41-1.58-9-7.28-12.62-46.86-25.86-93.55-38.88-140.3q-6.82-24.52-13.47-49.1C682.73,491.19,683,489.7,683,488ZM783,600.87c4.68,0,8.61.29,12.48,0,16-1.4,20,4.33,25.19,18.26,2.34,6.27,4.55,12.61,7.3,18.7.82,1.8,3.23,4,5,4.06,8.42.42,16.87.19,24.83.19-4.33-11.67-8.25-22.9-12.64-33.94-3.82-9.6-9.18-18.12-18.74-22.29,2.14-3.67,5.08-7.09,6.3-11,6.38-20.69-8.41-50.94-36.91-51.69-10.17-.27-20.41.58-30.57,1.44-9.77.83-19.48,2.33-29.64,3.59,8.73,32.38,17.34,64.45,26.06,96.5,1.68,6.2,2,15,6.11,17.74,4.84,3.18,13.2,1,20,1.17,2,0,3.9,0,6.45,0Z"/><path d="M610.11,268.77c19,68.87,37.91,137.3,57,206.34C654,476.89,641.5,478.58,629,480.3c-17.15,2.35-34.29,4.78-51.46,7.05-12.65,1.67-25.33,3.15-38,4.7-.24,0-.49,0-.73,0-14.27.82-13.78.68-17.8-13.8-7.42-26.72-15.57-53.24-23.25-79.89-8.53-29.65-16.73-59.39-25.47-89-1.29-4.36-.06-4.69,3.47-5.63,22.64-6,45.21-12.33,67.81-18.49q30.45-8.31,61-16.45C606.09,268.41,607.89,268.77,610.11,268.77ZM585,321.09l-70.08,17,7.33,25.51,23.26-4.7,24.1,84.26,22.57-4.37L568.21,354c6.27-1.51,12.43-3.42,18.73-4.36,4.49-.66,5.41-3,4.49-6.52C589.56,336,587.3,328.93,585,321.09Z"/><path d="M671.07,489.61l55,199c-2.9.2-5,.46-7.07.46-43.59,0-87.19-.07-130.78.12-5.31,0-7.1-1.48-8.57-6.89-7.2-26.52-15.24-52.82-22.91-79.21Q543.31,556.94,530,510.76c-.26-.9,0-1.94,0-3.8Zm-30.79,159.9c15.11.74,26-9.08,27.69-24.33,1-8.47,1.48-17.4-.11-25.68-4.39-23-13.59-43.39-34.66-56.38-11.34-7-33.17-7.87-42.64,1.55-7.67,7.63-10.29,16.64-10.48,26.4a91,91,0,0,0,16.61,54.14C606.36,639.21,619.18,649.58,640.28,649.51Z"/><path d="M516.79,495,399.11,510.8q-25.59-85.64-51.52-172.41l115-31C480.74,370.24,498.63,432.15,516.79,495ZM424.1,429.58c2.17-.56,4-1,5.85-1.5,9.37-2.52,14.07-.27,17.6,8.64,2.55,6.44,4.64,13.08,7.57,19.32,1,2.14,4,4.85,6,4.73,5.29-.33,10.49-2,15.08-3-2.8-7.49-5.28-14.66-8.13-21.67-3.81-9.38-6.65-19.52-16.32-23.91,6.11-13.29,4-25.85-2.17-37.68-5.69-11-17.8-17.6-31.75-13.33-4.78,1.47-9.83,2.07-14.72,3.19-17.45,4-17.44,4-11.73,21.07.23.68.23,1.44.43,2.13q11.88,40.11,23.81,80.32l18.8-2.69C430.87,452.94,427.5,441.3,424.1,429.58Z"/><path d="M452.37,688.71Q433.85,627,415.32,565.2c-3.69-12.36-6.85-24.9-10.85-37.16-1.79-5.48.28-6.18,4.87-6.64,18-1.8,36-3.72,53.89-5.92,18.12-2.21,36.2-4.81,54.31-7.2a16.62,16.62,0,0,1,3.17.25c17.31,60,34.6,119.83,52,180.18Zm29.74-68.57c6.1-.64,10.83-1.3,15.6-1.59,9.76-.59,16.59-7,15.87-16.72-.65-8.78-1.86-17.74-4.52-26.08-5.27-16.48-19.63-25.22-36.38-23.37-9.58,1.06-19.14,2.34-29.15,3.58l28.64,96.86,18.74-2.27C487.88,640.06,485.17,630.69,482.11,620.14Z"/><path d="M295.79,535.61l99.9-12.2C412.08,578.08,428.55,633,445.22,688.6c-2.89.19-5,.46-7.06.46-29.4,0-58.79-.08-88.19.11-4.83,0-7-1.14-8.5-6.2-13.87-45.77-28.16-91.42-42.34-137.1C298.21,542.91,297.21,540,295.79,535.61Zm31.36,32.12c8.34,10.89,16.73,21.38,24.54,32.28,2.78,3.87,6.14,8.87,5.84,13.12-1,13.84-3.49,27.57-5.45,41.58h18.55c.86-9.22,1.67-17.87,2.59-27.65,5.76,8.29,10.57,15.44,15.67,22.39,1.31,1.78,3.43,3.95,5.34,4.13,5.9.53,11.88.19,19.28.19C402.27,639,392,625.78,382,612.35c-2-2.75-4.68-6.26-4.48-9.25.59-8.55,2.63-17,3.83-25.51.76-5.34,1-10.74,1.55-16.34l-18.49,1.94c-.78,8.53-1.51,16.55-2.39,26.15-4-6.1-7.61-10.6-10.07-15.67-3.94-8.09-10.53-9-18.15-8C331.79,565.93,329.83,566.87,327.15,567.73Z"/><path d="M292.49,524.14,243.87,366.41l96.65-26.07c4.85,15.45,9.73,30.57,14.33,45.78,6.84,22.67,13.5,45.38,20.18,68.09,5.19,17.67,10.12,35.42,15.58,53,1.14,3.65.62,5-2.89,5.4-16.5,2-33,3.8-49.5,6-12.38,1.62-24.7,3.75-37.07,5.5C298.53,524.45,295.8,524.14,292.49,524.14Zm12.63-138c-6.06,2.09-13.63,2.91-17.4,10.84-4.39,9.23-5.06,18.51-3.49,28.61,3.12,20,9.54,38.06,24.77,52.15,9.67,8.95,27.82,9.22,33.25-.58,3.69-6.67,6.59-14.88,6.43-22.34a96.42,96.42,0,0,0-14.42-48.26C327.83,395.91,319.26,387.74,305.12,386.1Z"/><path d="M286.89,525.4l-75.25,10.72c-6.36.91-10.38-.2-12.68-7.75-13-42.53-26.69-84.85-40.08-127.26-1.13-3.58-1.75-7.31-2.63-11.06,25.81-6.92,51-13.46,76.05-20.58,4.72-1.34,6.65-.55,8,3.79Q263.53,449.31,286.89,525.4ZM186.69,416.64c8.76,28.06,17.48,56,26.33,84.31l14.17-2.16c-2.82-9.11-5.59-18.09-8.62-27.87l5.73-.92c11.55-1.84,17.6-7.84,15.68-18.91a119.58,119.58,0,0,0-10-30.23c-4.08-8.62-12.94-11.56-22.14-9.51C201.08,412.85,194.43,414.69,186.69,416.64Z"/><path d="M337.44,688.86H249.82l-44.8-142c13.26-1.61,26.28-3.25,39.31-4.78,13.4-1.57,26.94-2.34,40.14-4.9,5.29-1,6.13.38,7.35,4.34,8.22,26.71,16.59,53.38,24.86,80.08C323.54,643.7,330.34,665.84,337.44,688.86Zm-71.06-65.94c6.51,0,12.31.19,18.09-.11,1.9-.09,5.42-1.92,5.34-2.19-1.42-5.27-2.44-11-5.4-15.34-1.28-1.9-6.84-1.81-10.22-1.24-13.22,2.25-14.37,3.93-16.88-11.46l25.59-2.3c-1.51-5.13-2.47-10.12-4.52-14.6-.88-1.93-4.08-4.09-6.12-4-10.09.51-20.14,1.81-30.23,2.68-3.79.32-5.33,1.76-4.1,5.65,7.66,24.14,15.22,48.32,23,72.42.54,1.67,2.52,4,3.89,4.08,12.82.31,25.66.18,38.53.18-1.28-19.43-4.53-22-22.4-19.19a18.13,18.13,0,0,1-6.57,0c-1.64-.36-3.81-1.44-4.4-2.78C268.47,631.27,267.71,627.5,266.38,622.92Z"/><path d="M120.05,547.82,55.34,556.4c-5.3-15.63-10.79-31.4-16-47.26-8.12-24.75-15.89-49.63-24.16-74.33-1.68-5-1.18-6.4,4.3-7.71,16.72-4,33.36-8.44,49.74-13.63,6.57-2.08,7.57,1.35,9,5.68q20.07,62.09,40.14,124.17C118.71,544.45,119.18,545.54,120.05,547.82Zm-72.7-97.17,24,73.66,10.49-2.2c-.47-2.06-.7-3.72-1.21-5.29q-9.78-30-19.61-60C57.71,446.61,57.7,446.62,47.35,450.65Z"/><path d="M151.13,391.45l46.11,146-73.76,10Q101.6,479.63,79.4,410.83Zm-33.67,41.4c-4.33,1.27-7.73,3-11.18,3.11-6.58.17-5.38,3.67-4.09,7.62,4.38,13.41,8.73,26.84,13.15,40.23,3.51,10.63,7.12,21.23,10.51,31.34l11.38-1.61c-4-12.78-7.92-25.22-11.83-37.66l1-.36c6,12.11,11.94,24.23,17.86,36.26l9.8-1c-2.18-13.74-4.32-27.2-6.46-40.66l1.23-.23q6.3,19.73,12.57,39.4l11.08-1.54c0-2,.48-4-.07-5.76q-11.51-36.24-23.35-72.38c-.45-1.38-2.69-3.39-3.67-3.18-5.21,1.15-10.28,2.91-15,4.33,2.55,14.79,4.94,28.59,7.32,42.39l-1.22.34Z"/><path d="M645.17,611c.9,4-2.7,10.15-8.85,12.78-6.68,2.86-13.49-.49-18.13-6.07-9.87-11.85-15.32-25.62-14.54-41.14.27-5.28,2.27-10.35,8.74-12.74,7.72-2.85,13.12,1,17.25,5.55C639.33,580,643.72,593.12,645.17,611Z"/><path d="M417.7,407.19c-1.53-4.21-2.82-7.28-3.74-10.45s-1.5-6.49-2.25-9.88c2.9-.67,6-1.41,9.15-2.11,7-1.55,13.51,2.43,14.91,9s-.93,9.6-9.53,11.79C423.51,406.27,420.7,406.63,417.7,407.19Z"/><path d="M469.48,577c12.9-4.9,19.61-1.63,23.16,10.94,1.7,6-.47,9.44-6.76,9.9-5.95.42-12.43,1.58-13-7.82C472.59,585.83,470.76,581.73,469.48,577Z"/><path d="M329.93,447.69c0,2.44.36,4.95-.07,7.31-1.26,7-8.2,9.74-13.42,4.94-12.38-11.4-16.27-26.3-15.53-42.48.12-2.63,3.31-6.43,5.87-7.27s6.86.55,8.93,2.52C325.66,422.1,329.2,434.4,329.93,447.69Z"/><path d="M213.08,453c-2.32-7.34-4.39-13.86-6.46-20.42,11.36-1.9,15.19.3,17.22,10.43C225.45,451,218.57,450.59,213.08,453Z"/></svg>