<?xml version="1.0" encoding="utf-8"?>
<!-- Generator: Adobe Illustrator 24.3.0, SVG Export Plug-In . SVG Version: 6.00 Build 0)  -->
<svg version="1.1" id="Layer_1" xmlns="http://www.w3.org/2000/svg" xmlns:xlink="http://www.w3.org/1999/xlink" x="0px" y="0px"
	 viewBox="0 0 1270 433" style="enable-background:new 0 0 1270 433;" xml:space="preserve">
<style type="text/css">
	.st0{fill:#DD5613;}
	.st1{fill:#DD5613;}
	.st2{fill:#DD5613;}
	.st3{fill:#DD5613;}
	.st4{fill:#DD5613;}
	.st5{fill:#DD5613;}
	.st6{fill:#DD5613;}
	.st7{fill:#DD5613;}
	.st8{fill:#DD5613;}
	.st9{fill:#DD5613;}
	.st10{fill:#DD5613;}
	.st11{fill:#DD5613;}
	.st12{fill:#DD5613;}
	.st13{fill:#DD5613;}
	.st14{fill:#DD5613;}
	.st15{fill:#DD5613;}
	.st16{fill:#DD5613;}
</style>
<path class="st0" d="M199.06,43.09c0,0.83-0.09,1.67,0.02,2.49c0.44,3.23-0.13,4.45-4.1,4.01c-6.48-0.72-8.96,2.1-9.14,8.69
	c-0.01,0.5-0.01,1,0,1.5c0.14,9.05,0.14,9.09,9.36,9.27c2.12,0.04,3.88-0.17,3.73,2.97c-0.12,2.57-0.46,3.83-3.54,3.9
	c-9.39,0.21-9.38,0.36-9.38,10.06c0,11.98-0.06,23.97,0.05,35.95c0.02,2.7-0.17,4.21-3.62,4.19c-3.32-0.02-3.75-1.26-3.73-4.09
	c0.12-13.48-0.21-26.97,0.19-40.44c0.15-5.02-1.41-6.32-6.09-5.86c-2.28,0.22-6.01,1.79-5.77-3.41c0.12-2.63,0.82-3.27,3.38-3.31
	c8.35-0.12,8.31-0.23,8.36-8.7c0.02-3.46-0.23-6.91,1.05-10.32c1.34-3.58,4.59-4.87,7.25-6.9
	C191.06,43.09,195.06,43.09,199.06,43.09z"/>
<path class="st1" d="M1243.9,281.97c-3.31,0.09-6.64,0.4-9.94,0.21c-6.41-0.38-9.71-3.43-10.32-9.82
	c-1.17-12.26-0.45-24.57-0.39-36.85c0.02-3.96-1.07-5.36-4.93-4.78c-1.46,0.22-2.99,0.11-4.48,0.01c-2.71-0.18-1.71-2.33-1.85-3.79
	c-0.13-1.46-0.37-3.15,2.04-2.96c0.83,0.07,1.66,0.01,2.49,0.01c6.6-0.03,7.11-0.09,6.46-6.37c-0.62-5.93,2.63-7.36,7.69-8.4
	c0,3.57,0.23,7-0.06,10.39c-0.28,3.33,0.52,4.88,4.21,4.44c2.62-0.31,5.31,0,7.97,0.03c1.12,2.29,0.58,4.64,0.3,6.99
	c-1.79,1.63-4.05,1.39-6.17,1.36c-3.11-0.05-4.57,1.18-4.56,4.41c0.06,10.16-0.13,20.32,0.09,30.48c0.11,5.12,1.94,6.71,7.12,6.94
	c1.47,0.06,3.02-0.36,4.32,0.7C1243.9,277.3,1243.9,279.64,1243.9,281.97z"/>
<path class="st2" d="M442.67,318.02c-6.85,16.47-13.71,32.94-20.55,49.42c-2.53,6.11-5.09,12.21-7.45,18.39
	c-1.03,2.69-2.13,4.29-5.56,4.24c-3.26-0.05-4.57-1.25-5.71-4.05c-8.71-21.28-17.56-42.51-26.42-63.74
	c-0.56-1.34-0.69-2.94-2.63-4.35c0,1.72,0,3.05,0,4.39c0,20.99-0.04,41.97,0.04,62.96c0.01,2.92,0.15,4.76-3.96,4.81
	c-4.49,0.06-3.72-2.46-3.72-5.01c0-23.99,0.08-47.97-0.08-71.95c-0.03-3.78,0.82-4.89,4.85-5.15c5.56-0.35,7.96,1.57,10.07,6.68
	c8.67,21.08,17.91,41.92,27.36,63.81c2.97-6.72,5.62-12.69,8.26-18.67c7.01-15.91,14-31.82,21.01-47.72
	c1.43-3.25,9.19-5.6,12.21-3.73c1.24,0.77,0.93,2.03,0.93,3.15c0.01,25.15-0.06,50.3,0.09,75.45c0.02,3.67-2.14,2.76-4.16,2.99
	c-2.8,0.31-3.63-0.68-3.61-3.54c0.12-21.15,0.07-42.31,0.07-63.46c0-1.6,0-3.2,0-4.81C443.36,318.1,443.02,318.06,442.67,318.02z"/>
<path class="st3" d="M732.75,231.64c4.08-5.86,8.79-8.31,14.31-9.32c11.45-2.1,22.02,5.16,22.72,16.69
	c0.79,13.1,0.35,26.28,0.53,39.42c0.05,3.5-2.44,2.23-4.17,2.48c-2.35,0.34-3.18-0.58-3.15-3.02c0.11-10.82,0.05-21.65,0.05-32.47
	c0-10.6-4.37-16.07-13.12-16.47c-9.28-0.42-16.48,5.91-16.9,15.71c-0.45,10.64-0.29,21.31-0.22,31.96c0.02,2.94-0.3,4.5-3.96,4.44
	c-3.41-0.05-3.69-1.46-3.68-4.2c0.08-24.64,0.1-49.29-0.02-73.93c-0.02-3.08,0.85-3.91,3.92-3.97c3.35-0.06,3.78,1.31,3.74,4.13
	C732.66,212.15,732.75,221.22,732.75,231.64z"/>
<path class="st0" d="M658.93,340.89c6.53-8.9,14.53-10.68,23.58-8.82c8.43,1.74,13.91,9.44,14.18,20.4
	c0.28,11.47-0.04,22.96,0.14,34.44c0.05,3.07-1.47,3.07-3.67,3.04c-2.28-0.03-4.09,0.24-4.02-3.21c0.23-10.48,0.09-20.96,0.08-31.45
	c0-11.49-4.41-16.99-13.88-17.35c-8.77-0.33-15.96,6.97-16.29,17.21c-0.33,10.14-0.16,20.3-0.07,30.45
	c0.02,2.78,0.02,4.53-3.78,4.47c-3.49-0.05-3.57-1.53-3.56-4.17c0.07-24.46,0.05-48.92,0.03-73.38c0-2.39-0.36-4.45,3.39-4.47
	c3.64-0.02,3.98,1.51,3.93,4.46C658.83,321.48,658.93,330.46,658.93,340.89z"/>
<path class="st4" d="M1024.02,282.29c-4.88,0.07-9.55-0.65-13.81-3.3c-3.7-2.3-6.28-5.44-7.14-9.69c-0.28-1.36-1.92-4.07,1.17-4.16
	c2.19-0.06,5.46-1.97,6.56,2.21c1.85,7.04,7.84,8.17,13.69,8.48c5.57,0.3,11.04-0.99,14.34-6.27c3.01-4.81,1.19-10.42-4.61-12.55
	c-5.88-2.16-12.12-3.29-18.12-5.14c-5.23-1.61-9.82-4.14-11.3-10.08c-1.64-6.58,0.72-12.95,6.68-16.18
	c8.73-4.73,17.79-4.81,26.78-0.61c3.28,1.53,5.64,4.14,6.65,7.68c0.52,1.82,2.63,4.55-0.28,5.35c-2.17,0.6-5.75,2.12-7.11-2.68
	c-1.34-4.73-5.96-5.94-10.38-6.32c-5.06-0.44-10.15-0.19-13.57,4.37c-2.96,3.94-1.69,8.59,3.27,10.45
	c6.33,2.37,12.89,4.14,19.42,5.95c6.38,1.76,10.72,5.53,11.51,12.19c0.89,7.47-2.35,13.19-8.88,16.99
	C1034.28,281.64,1029.24,282.35,1024.02,282.29z"/>
<path class="st4" d="M665.71,265.26c3.94-0.58,7.13-1.17,9.11,4.19c2.2,5.97,8.56,6.48,14.04,6.37c5.36-0.11,10.64-1.48,13.32-7.08
	c2.24-4.67,0.65-9.14-4.33-11.57c-4.95-2.42-10.52-2.81-15.73-4.37c-6.04-1.81-12.3-3.52-14.24-10.82
	c-1.83-6.92,0.89-13.62,7.26-16.81c8.17-4.09,16.65-4.12,25.07-0.79c4.45,1.76,7.17,5.32,8.35,9.91c0.34,1.33,1.61,3.75-1.06,3.85
	c-2.11,0.08-4.91,1.66-6.5-1.55c-3.84-7.75-15.53-10.43-22.51-5.26c-5.08,3.77-4.53,10.28,1.47,12.58c6.3,2.41,12.9,4.09,19.41,5.92
	c6.35,1.78,10.64,5.54,11.45,12.22c0.89,7.33-2.22,13.15-8.57,16.65c-8.77,4.84-18.11,5.08-27.3,1.2
	C668.77,277.27,666.15,272.68,665.71,265.26z"/>
<path class="st5" d="M507.99,382.95c-5.64,7.22-12.7,9.83-21.01,8.57c-9.34-1.42-15.52-8.08-15.87-17.66
	c-0.46-12.62-0.22-25.27-0.47-37.9c-0.06-3.08,1.58-2.96,3.73-2.99c2.26-0.03,3.69,0.11,3.64,3.09
	c-0.17,10.81-0.07,21.62-0.06,32.43c0.01,10.36,4.57,16.04,13.2,16.48c9.33,0.47,16.42-5.76,16.85-15.7
	c0.46-10.63,0.26-21.28,0.19-31.93c-0.02-2.88,0.21-4.46,3.9-4.49c3.96-0.03,3.7,2.02,3.71,4.66c0.01,15.97,0.11,31.93,0.12,47.9
	c0,2,1.32,4.68-2.89,4.64c-3.37-0.04-4.93-0.75-4.38-4.31C508.74,385.14,508.37,384.47,507.99,382.95z"/>
<path class="st6" d="M783.74,340.94c6.07-7.97,12.99-10.46,21.37-9.2c8.49,1.27,14.44,6.56,15.68,15.03
	c1.99,13.56,0.6,27.25,0.93,40.88c0.09,3.58-2.71,1.93-4.34,2.23c-2.18,0.4-3.27-0.28-3.24-2.89c0.13-11.32,0.15-22.64,0.02-33.96
	c-0.09-7.76-3.24-12.3-9.35-14.19c-10.97-3.38-20.64,4.2-20.86,16.59c-0.18,10.32-0.14,20.64,0.02,30.96
	c0.05,2.85-0.8,3.68-3.61,3.6c-2.53-0.07-3.78-0.29-3.79-3.41c-0.09-16.8,0.71-33.61-0.54-50.39c-0.17-2.24,0.34-3.54,2.93-3.21
	c2.1,0.27,5.07-0.98,4.79,3.03C783.67,337.18,783.74,338.34,783.74,340.94z"/>
<path class="st4" d="M662.92,75.69c4.52-5.04,9.6-7.88,15.87-8.48c12.63-1.21,21.67,6.81,22.04,20.04
	c0.33,11.82-0.04,23.65,0.16,35.47c0.06,3.29-1.53,3.25-3.94,3.34c-2.57,0.09-3.47-0.65-3.44-3.32c0.12-11.32,0.18-22.65,0.01-33.98
	c-0.13-8.3-4.53-13.71-11.42-14.68c-8.4-1.19-14.75,2.59-17.56,10.52c-1.17,3.31-1.69,6.73-1.67,10.26
	c0.04,9.16-0.07,18.32,0.07,27.48c0.04,2.64-0.42,3.83-3.45,3.75c-2.71-0.07-3.65-0.61-3.67-3.54c-0.14-17.14,0.76-34.3-0.53-51.42
	c-0.18-2.35,1.1-2.22,2.28-1.98c1.79,0.37,4.54-1.63,5.21,1.71C663.18,72.41,662.92,74.08,662.92,75.69z"/>
<path class="st4" d="M488.95,232.11c3.61-5.05,7.26-7.9,12.13-9.15c13.96-3.6,25.32,4.44,25.78,18.83
	c0.38,11.97-0.04,23.96,0.16,35.94c0.06,3.39-1.72,3.1-4.01,3.25c-2.68,0.16-3.39-0.8-3.36-3.38c0.12-10.81,0.07-21.63,0.05-32.45
	c-0.02-9.77-4.46-15.51-12.47-16.18c-9.19-0.77-15.78,4.46-17.35,13.96c-1.85,11.24-0.48,22.58-0.82,33.87
	c-0.07,2.45,0.23,4.31-3.45,4.27c-3.4-0.04-3.62-1.37-3.64-4.1c-0.12-16.97,0.59-33.94-0.42-50.89c-0.13-2.14,0.8-2.32,2.13-2.01
	c1.79,0.41,4.54-1.62,5.22,1.7C489.22,227.35,488.95,229.06,488.95,232.11z"/>
<path class="st4" d="M540.7,340.17c5.12-6.58,11.7-9.65,19.93-8.55c10.59,1.41,16.87,7.82,17.21,18.54
	c0.4,12.31,0.02,24.64,0.23,36.96c0.06,3.34-1.85,2.64-3.79,2.83c-2.59,0.26-3.39-0.57-3.36-3.26c0.16-10.99,0.18-21.98,0.03-32.97
	c-0.13-9.39-4.89-14.85-13.29-15.73c-7.4-0.77-14.51,4.41-16.46,12.33c-0.67,2.71-0.83,5.6-0.86,8.4
	c-0.1,9.16-0.12,18.32,0.01,27.48c0.04,2.57-0.24,3.92-3.39,3.82c-2.81-0.09-4.03-0.41-4.01-3.74c0.09-16.81-0.06-33.63-0.29-50.44
	c-0.04-2.73,1.2-3.09,3.29-2.83c1.71,0.22,4.32-1.08,4.07,2.52C539.95,336.93,539.59,338.46,540.7,340.17z"/>
<path class="st4" d="M882.02,272.41c-4.3,6.42-9.21,9.39-15.55,9.84c-13.74,0.98-22.21-6.65-22.41-20.47
	c-0.17-11.48,0.08-22.96-0.11-34.44c-0.05-3.12,1.2-3.39,3.78-3.44c2.77-0.05,3.67,0.7,3.62,3.57c-0.17,10.65-0.09,21.3-0.06,31.95
	c0.02,10.19,4.49,15.66,13.4,16.49c7.98,0.74,14.87-5.03,16.42-14.09c1.89-11.06,0.45-22.24,0.84-33.37
	c0.09-2.45-0.65-4.65,3.55-4.66c4.28,0,3.45,2.34,3.47,4.71c0.13,16.63,0.16,33.27,0.48,49.9c0.04,2.26-0.68,2.8-2.37,2.43
	c-1.74-0.39-4.68,1.75-5.02-2C881.9,277.19,882.02,275.52,882.02,272.41z"/>
<path class="st4" d="M599.79,361.29c-0.31,6.47,1.1,12.35,4.81,17.53c3.51,4.91,8.4,6.99,14.31,6.01
	c5.83-0.96,10.39-4.11,11.68-10.07c1.1-5.08,4.75-2.88,6.97-2.6c2.84,0.36,0.67,2.82,0.39,4.25c-3.56,17.87-27.68,19.17-37.67,8.91
	c-11.23-11.52-11.49-35.56-0.2-46.99c6.72-6.8,15.01-8.26,23.85-6.06c7.39,1.83,12.59,6.54,14.41,14.27
	c0.36,1.54,1.91,4.03-1.08,4.12c-2.04,0.06-5.47,2.25-6.31-2.12c-1.36-7.01-6.37-9.74-12.82-10.45c-6.01-0.66-10.71,1.88-14.02,6.81
	C600.78,349.88,599.43,355.46,599.79,361.29z"/>
<path class="st4" d="M585.55,69.69c-7.52,18.17-15.03,36.15-22.34,54.21c-1,2.46-2.64,2.05-4.38,2.08
	c-1.76,0.03-3.44,0.35-4.39-2.02c-7.32-18.21-14.77-36.37-22.23-54.66c8.36-0.5,8.35-0.5,11.23,6.8
	c4.61,11.68,9.21,23.37,13.91,35.02c0.53,1.32,0.64,3,2.31,3.88c5.18-13.21,10.55-26.35,15.44-39.66
	C576.98,70.22,579.39,67.35,585.55,69.69z"/>
<path class="st2" d="M365.72,239.46c0-11.98,0.02-23.95-0.02-35.93c-0.01-2.59-0.35-4.64,3.68-4.64c4.09,0,4.02,1.9,4,4.84
	c-0.08,21.62,0.08,43.24-0.15,64.86c-0.04,4.25,1.21,5.27,5.29,5.15c10.47-0.29,20.96-0.05,31.44-0.13
	c2.57-0.02,4.19-0.05,4.21,3.51c0.03,3.72-1.59,3.84-4.43,3.82c-13.31-0.1-26.62-0.15-39.93,0.03c-3.21,0.04-4.25-0.75-4.19-4.1
	C365.84,264.41,365.72,251.94,365.72,239.46z"/>
<path class="st7" d="M1087.55,275.19c0.76,6.93,0.76,6.93-5.72,7.09c-10.91,0.28-14.66-3.4-14.67-14.45c-0.01-9.81,0-19.62,0-29.43
	c0-7.42,0-7.45-7.41-7.61c-2.09-0.04-3.83,0.17-3.86-2.95c-0.03-2.96,0.58-3.99,3.78-3.93c7.46,0.13,7.88-0.1,7.35-7.41
	c-0.43-5.88,3.7-5.93,7.68-7.67c0,4.3,0.14,8.06-0.05,11.81c-0.12,2.48,0.44,3.73,3.22,3.4c1.8-0.22,3.66,0.01,5.48-0.05
	c2.24-0.08,4.08-0.34,4.02,3.12c-0.05,3.31-1.38,3.72-4.18,3.72c-8.49-0.01-8.49,0.1-8.49,8.49c0,8.98-0.01,17.96,0,26.94
	c0.01,8.38,2.71,10.65,11.03,9.3C1086.34,275.46,1086.93,275.32,1087.55,275.19z"/>
<path class="st4" d="M483.02,53.88c0,4.31,0.14,8.11-0.05,11.89c-0.13,2.51,0.5,3.68,3.25,3.36c1.97-0.23,4,0.07,5.98-0.07
	c2.46-0.17,3.96,0.04,3.88,3.3c-0.08,2.97-1.13,3.52-3.81,3.56c-9.25,0.13-9.24,0.23-9.24,9.69c0,8.65-0.01,17.3,0,25.95
	c0.01,7.47,2.67,9.88,10.01,9.2c1.55-0.14,3.85-1.67,3.77,1.81c-0.05,2.18,0.31,4.08-2.98,4.58c-9.2,1.4-15.09-0.83-17.24-6.93
	c-0.64-1.81-0.53-3.6-0.54-5.41c-0.03-11.64-0.14-23.29,0.06-34.93c0.05-3.23-0.78-4.56-4.08-4.05c-1.3,0.2-2.67-0.09-3.99,0.06
	c-2.69,0.31-3.42-0.88-3.4-3.42c0.02-2.38,0.36-3.43,3.2-3.46c8.12-0.08,8.5-0.28,8.06-8.2C475.58,55.28,479.65,55.68,483.02,53.88z
	"/>
<path class="st4" d="M980.94,209.05c0,4.06,0.13,7.84-0.05,11.61c-0.11,2.45,0.4,3.73,3.21,3.39c1.97-0.24,4,0.05,5.98-0.07
	c2.42-0.15,4.01-0.04,3.9,3.27c-0.09,2.93-1.07,3.55-3.79,3.59c-9.27,0.13-9.27,0.24-9.27,9.67c0,8.82-0.02,17.64,0.01,26.46
	c0.02,6.91,3.18,9.67,9.98,8.87c1.49-0.18,3.76-2,3.8,1.59c0.03,2.45,0.23,4.78-3.37,4.63c-2.48-0.1-4.99,0.28-7.46,0.09
	c-6.41-0.51-9.88-4.24-9.93-10.74c-0.09-11.65-0.32-23.3,0.11-34.94c0.18-4.95-1.27-6.33-5.98-5.81c-2.12,0.23-5.62,1.73-5.57-3.12
	c0.03-2.8,0.7-3.62,3.56-3.61c7.82,0.02,8.26-0.16,7.7-7.55C973.38,210.82,977.02,210.42,980.94,209.05z"/>
<path class="st8" d="M881.78,75.71c4.59-6.46,9.91-8.72,16.53-8.64c3.11,0.04,2.91,1.77,3.01,3.88c0.1,2.2-0.27,3.1-2.92,3.17
	c-11.18,0.28-16.15,5.21-16.48,16.56c-0.31,10.47-0.25,20.96-0.12,31.44c0.04,3.02-0.74,3.98-3.88,4.01
	c-3.26,0.03-3.87-1.17-3.79-4.08c0.38-14.12-0.49-28.26,0.46-42.38c0.1-1.46-0.68-3.07-0.31-4.41c0.57-2.07-2.59-5.29,2.01-6.21
	C881.11,68.06,881.98,70.76,881.78,75.71z"/>
<path class="st9" d="M278.59,75.98c4.43-6.62,9.84-9.02,16.68-8.91c3.29,0.05,2.63,2.04,2.81,3.97c0.21,2.29-0.4,3.02-2.94,3.07
	c-10.83,0.19-16.17,5.73-16.3,16.78c-0.12,10.3-0.12,20.61,0.03,30.91c0.05,3.08-0.55,4.36-4.05,4.33c-3.5-0.02-3.59-1.65-3.59-4.27
	c0.02-16.12-0.09-32.24-0.11-48.36c0-2.04-1.23-4.62,2.95-4.56c3.56,0.05,4.82,1.15,4.31,4.54
	C278.32,73.92,278.45,74.39,278.59,75.98z"/>
<path class="st6" d="M441.53,75.06c3.74-5.54,8.9-8.06,15.55-8c3.32,0.03,3.18,1.77,3.32,4.1c0.15,2.56-0.91,2.87-3.16,2.92
	c-10.58,0.22-16.12,5.81-16.25,16.41c-0.13,10.48-0.1,20.97,0.02,31.45c0.03,2.7-0.16,4.21-3.62,4.19
	c-3.31-0.02-3.71-1.26-3.74-4.09c-0.15-16.62,0.66-33.26-0.46-49.87c-0.12-1.83-0.24-3.58,2.32-3.04c1.88,0.4,5.07-1.86,5.3,2.36
	C440.87,72.57,440.4,73.75,441.53,75.06z"/>
<path class="st10" d="M226.74,49.16c0.71,3.49-0.34,4.73-4.01,4.88c-4.54,0.19-3.95-2.39-4.09-5.22c-0.15-3.09,0.31-4.68,4.13-4.69
	C227.06,44.12,227.35,46.17,226.74,49.16z"/>
<path class="st10" d="M245.4,49.56c0.34,2.54,0.19,4.48-3.89,4.5c-4.17,0.02-4.28-1.86-4.37-5.06c-0.1-3.52,0.69-4.8,4.56-4.88
	C246.15,44.03,245.39,46.63,245.4,49.56z"/>
<path class="st11" d="M488.26,313.65c0.88,3.43-0.51,4.34-4.05,4.46c-4.05,0.14-3.95-1.8-4.08-4.77c-0.15-3.39,0.7-4.48,4.31-4.55
	C488.48,308.72,488.78,310.57,488.26,313.65z"/>
<path class="st7" d="M499.16,313.26c-0.86-3.39,0.47-4.31,4.01-4.47c4.18-0.18,3.78,1.97,3.93,4.77c0.17,3.24-0.43,4.53-4.15,4.55
	C498.93,318.14,498.65,316.32,499.16,313.26z"/>
<path class="st12" d="M205.48,204.4c0.02-4.39-1.02-5.45-5.43-5.44c-51.99,0.15-103.98,0.07-155.97,0.05c0,44.31,0,88.62,0,132.93
	c0.24,0.25,0.44,0.53,0.46,0.85c1.28,20.15,11.33,35.77,25.8,48.87c12.1,10.96,26.19,17.91,42.73,19.25c7.33,0,14.66,0,22,0
	c1.58-2.07,3.94-0.89,5.91-1.33c38.74-8.74,64.38-40.59,64.4-80.24C205.39,281.02,205.29,242.71,205.48,204.4z M200.72,319.47
	c-0.11,39.16-27.61,70.72-66.3,76.32c-39.02,5.65-78.08-23.07-84.49-62c-0.68-4.13-1.07-8.23-1.07-12.39
	c-0.02-37.63,0.05-75.26-0.1-112.89c-0.01-3.63,0.71-4.71,4.56-4.68c23.82,0.21,47.64,0.1,71.46,0.1c23.82,0,47.64,0.1,71.46-0.1
	c3.88-0.03,4.6,1.11,4.59,4.74C200.69,245.55,200.82,282.51,200.72,319.47z"/>
<path class="st13" d="M92.44,68.97c-3.25,0.01-5.06,0.44-4.43,4.21c0.15,0.91,0.68,2.35-1.06,2.97c-6.6-8.34-15.26-10.97-25.28-7.87
	c-9.58,2.96-14,10.42-15.88,19.89c-0.85,4.32-0.93,8.63-0.59,12.91c0.82,10.18,4.51,19,14.8,22.83c10.24,3.81,19.56,1.8,27.74-7.6
	c0,3.84,0.17,6.64-0.03,9.41c-0.51,7.02-5.56,12.75-12.46,14.37c-8.31,1.95-16.06-0.35-19.32-6.29c-2.01-3.65-5.14-2.34-7.38-1.75
	c-2.94,0.78-0.62,3.53-0.18,5c1.09,3.66,4.03,6.12,7.47,7.6c7.41,3.19,15.22,3.71,22.91,1.62c10.98-2.98,16.12-10.37,16.22-22.7
	c0.14-16.65,0.08-33.29,0.11-49.94C95.09,71.6,96.77,68.95,92.44,68.97z M84.35,110.4c-2.85,5.71-7.89,8.58-14.15,8.57
	c-6.32-0.01-11-3.35-14.05-8.79c-2.4-4.27-3.38-8.96-3.28-13.86c-0.05-4.53,0.81-8.87,2.87-12.94c2.72-5.37,6.7-8.97,13.02-9.37
	c6.87-0.44,11.99,2.57,15.25,8.36C89.19,91.56,89.02,101.06,84.35,110.4z"/>
<path class="st0" d="M795.78,48.27c0-2.65-0.12-4.23-3.61-4.26c-3.56-0.03-4.07,1.34-4.02,4.37c0.16,8.94,0.06,17.88,0.06,27.79
	c-14.42-14.11-33.41-11.08-39.79,5.67c-3.9,10.25-3.88,20.93,0.28,31.15c6.55,16.06,24.47,19.59,37.1,7.64
	c0.72-0.68,1.04-2.24,2.86-1.6c0,1.27,0.08,2.58-0.02,3.87c-0.26,3.33,1.93,2.98,4.19,3.16c2.82,0.22,3.19-0.98,3.18-3.42
	C795.86,97.85,795.79,73.06,795.78,48.27z M784.94,111.55c-2.89,6.25-9.55,9.85-16.31,9.31c-6.84-0.55-10.6-4.77-12.92-10.81
	c-1.64-4.28-2-8.7-1.96-13.59c-0.13-3.28,0.17-6.91,1.23-10.45c2.13-7.11,7.3-11.66,13.64-11.99c8.39-0.44,14.59,3.1,17.38,10.48
	C789.44,93.6,789.01,102.75,784.94,111.55z"/>
<path class="st0" d="M590.79,275.43c0.4-2.07-0.02-4.3-0.02-6.46c-0.01-21.8-0.02-43.6,0.02-65.4c0.01-2.66,0.22-4.68-3.72-4.65
	c-3.72,0.02-3.92,1.65-3.88,4.51c0.12,9.03,0.04,18.05,0.04,27.64c-1.28-1.08-1.92-1.56-2.49-2.1c-12.71-12.23-31.9-7.85-37.77,8.79
	c-3.49,9.89-3.25,19.98,0.34,29.77c4.04,10.99,12.55,15.81,24.25,14.6c6.34-0.65,10.9-4.31,15.38-8.98
	c0.14,1.19,0.28,1.83,0.29,2.46c0.01,3.47,0.64,5.89,5.22,5.4C593.14,280.5,590.42,277.33,590.79,275.43z M583.05,251.54
	c0.1,4.63-0.71,8.87-2.23,12.9c-2.77,7.33-9.56,11.82-16.92,11.52c-6.67-0.28-11.71-4.76-13.93-12.8
	c-2.06-7.47-2.27-15.04,0.03-22.51c2.22-7.2,7.31-11.41,13.77-11.72c8.01-0.38,14.1,3.17,17.05,10.28
	C582.49,243.21,583.33,247.44,583.05,251.54z"/>
<path class="st6" d="M952.11,235.84c-4.58-11.01-14.26-15.53-25.91-12.92c-5.22,1.17-9.38,3.92-12.96,7.73
	c-0.89-1.1-1.13-2.26-0.94-3.42c0.64-3.92-2.11-3.01-4.3-3.29c-3.03-0.39-3.04,1.23-3.03,3.5c0.12,23.61,0.2,47.22,0.16,70.82
	c0,2.87,0.52,4.14,3.77,4.11c3.1-0.03,3.96-0.98,3.89-4.01c-0.19-8.07-0.07-16.14-0.07-25.12c1.6,1.49,2.48,2.35,3.41,3.16
	c12.25,10.73,29.4,7.19,35.82-7.74C956.6,257.9,956.63,246.7,952.11,235.84z M945.04,265.39c-2.39,6.05-6.44,10.26-13.13,10.48
	c-6.71,0.22-12.56-2.39-15.69-8.62c-4.71-9.33-5.03-19.17-1.03-28.81c2.9-6.98,10.37-10.55,18.03-9.43
	c6.96,1.01,12.65,7.69,13.7,16.28c0.26,2.12,0.04,4.31,0.04,6.46C947.29,256.43,946.78,260.98,945.04,265.39z"/>
<path class="st4" d="M355.1,123c-0.11-24.96-0.14-49.92-0.08-74.87c0.01-2.8-0.35-4.1-3.7-4.11c-3.43-0.01-3.69,1.44-3.65,4.16
	c0.12,9.07,0.05,18.15,0.05,27.35c-2.14-0.32-2.7-1.91-3.79-2.81c-12.59-10.35-30.37-6.19-36.24,8.88
	c-4.2,10.78-3.93,21.84,0.56,32.51c4.01,9.51,12.01,13.96,22.29,13.23c6.69-0.47,11.88-3.75,16.89-9.48
	c0.27,2.6,0.56,4.19,0.57,5.78c0,4.02,3.01,1.94,4.7,2.3C355.14,126.46,355.11,124.96,355.1,123z M343.12,113.15
	c-3.27,5.94-9.13,8-15.68,7.61c-6.42-0.38-10.08-4.51-12.36-10.09c-1.78-4.36-2.27-8.97-2.25-13.65c-0.13-4.69,0.34-9.32,2.33-13.61
	c2.54-5.47,6.56-9.04,12.94-9.42c6.95-0.42,12.66,1.98,15.82,8.18C349.2,92.5,348.65,103.09,343.12,113.15z"/>
<path class="st2" d="M1202.24,275.92c-0.11-2.99-0.31-5.97-0.32-8.96c-0.03-21.29-0.04-42.57,0.02-63.86c0.01-2.6,0-4.19-3.54-4.19
	c-3.54,0-3.57,1.58-3.54,4.18c0.1,9.21,0.04,18.43,0.04,28.6c-1.23-1.36-1.72-1.96-2.27-2.51c-12.73-12.66-32.85-7.99-38.43,9.05
	c-3.08,9.4-2.97,18.94,0.27,28.33c4.08,11.81,13.22,17.25,25.55,15.41c5.91-0.88,10.3-4.25,14.77-9.44c0.09,1.94,0.3,2.91,0.15,3.82
	c-0.65,3.78,0.87,4.76,4.59,4.66C1204.2,280.9,1202.32,278.11,1202.24,275.92z M1191.89,265.49c-3.12,6.74-9.56,10.81-16.59,10.46
	c-6.42-0.32-11.04-4.33-13.51-12c-2.4-7.43-2.64-14.99-0.53-22.5c2.26-8.08,7.76-12.46,15.2-12.52c8.15-0.06,13.92,4.24,16.6,12.28
	c1.12,3.34,1.35,6.79,1.62,10.08C1194.26,256.26,1193.95,261.04,1191.89,265.49z"/>
<path class="st4" d="M819.63,99.01c6.16,0.18,12.33,0.06,18.49,0.06c3.67,0,7.33,0,11,0c12.56,0,12.56,0,9.66-12.54
	c-2.59-11.2-10.11-17.98-21.33-19.25c-11.02-1.24-20.6,3.76-25.25,13.91c-5.13,11.17-5.01,22.61,0.49,33.61
	c4.87,9.74,13.34,13.33,23.97,12.55c10.46-0.77,17.9-5.53,21.36-15.73c0.47-1.39,2.3-3.58-0.07-4.07c-2.12-0.44-5.18-1.77-6.88,1.82
	c-4.63,9.76-10.67,12.9-20.12,10.86c-8.36-1.8-13.84-8.93-14.2-18.11C816.64,99.73,817.13,98.93,819.63,99.01z M817.16,89.11
	c2.01-9.19,8.63-15.08,17.13-15.09c9.08-0.01,15.15,5.19,17.39,14.61c0.68,2.88,0.07,3.87-2.99,3.74
	c-4.81-0.21-9.65-0.06-14.47-0.06s-9.65-0.12-14.47,0.05C817.12,92.43,816.64,91.45,817.16,89.11z"/>
<path class="st4" d="M378.6,99.03c6.16,0.1,12.32,0.04,18.48,0.04c3.66,0,7.33,0,10.99,0c12.52,0,12.52,0,9.85-12.41
	c-2.38-11.03-10.15-18.14-21.2-19.39c-11.43-1.29-21.3,4.21-25.74,14.68c-4.51,10.62-4.42,21.44,0.36,31.87
	c4.47,9.78,12.51,14.1,23.32,13.59c10.63-0.5,18.51-4.83,22.32-15.15c0.56-1.52,2.95-3.95-0.26-4.75c-2.11-0.53-5.07-1.5-6.67,2.2
	c-4.03,9.32-10.73,12.57-20.36,10.47c-7.98-1.74-13.72-9.55-13.87-18.42C375.77,99.4,376.55,99,378.6,99.03z M376.2,89.62
	c1.56-8.77,8.33-15.4,16.24-15.6c9.79-0.26,16.19,4.91,18.39,14.59c0.64,2.84,0.01,3.89-3.06,3.75c-4.81-0.22-9.64-0.06-14.47-0.06
	c-4.82,0-9.65-0.05-14.47,0.02C376.88,92.35,375.74,92.19,376.2,89.62z"/>
<path class="st4" d="M653.03,262.46c-2.53-0.2-5.88-1.99-7.33,2.61c-1.57,4.99-5.32,8.34-10.41,9.94
	c-11.93,3.74-21.78-3.72-23.72-17.62c-0.39-2.75,0.09-3.51,2.83-3.44c6.15,0.15,12.31,0.05,18.46,0.05c3.83,0,7.65,0,11.48,0
	c11.56,0,11.56,0,9.52-11.3c-2.07-11.52-9.78-18.91-21.31-20.42c-11.23-1.47-21.2,3.95-25.8,14.48
	c-4.75,10.89-4.52,21.95,0.55,32.66c4.6,9.71,13.21,13.85,25.22,12.79c10.52-0.92,17.59-6.54,20.75-16.49
	C653.65,264.56,654.85,262.6,653.03,262.46z M612.07,243.88c1.86-9.25,9.15-15.27,18.25-14.95c8.49,0.3,15.08,6.74,16.46,15.8
	c0.34,2.25-0.5,2.52-2.32,2.5c-4.99-0.06-9.97-0.02-14.96-0.02c-4.82,0-9.65-0.15-14.46,0.06
	C612.27,247.4,611.54,246.5,612.07,243.88z"/>
<path class="st4" d="M118.57,99.01c6.32,0.15,12.65,0.05,18.97,0.05c3.33,0,6.66,0,9.99,0c13.11,0,13.84-1.01,10.17-13.99
	c-3.03-10.73-10.94-17.18-21.93-17.89c-11.21-0.72-20.39,4.74-24.71,14.82c-4.12,9.59-4.13,19.42-0.79,29.14
	c3.61,10.51,11.77,16.14,22.57,16.22c12.61,0.09,20.21-4.61,24.3-15.11c0.61-1.56,2.16-4.01,0.22-4.61
	c-2.18-0.67-5.36-1.8-7.09,2.02c-4.25,9.38-10.81,12.62-20.34,10.52c-8.03-1.77-13.76-9.41-13.97-18.34
	C115.92,99.77,116.29,98.96,118.57,99.01z M116.36,89.78c1.69-8.99,8.19-15.51,16.08-15.76c9.7-0.32,16.04,4.57,18.38,13.98
	c0.75,3.02,0.52,4.65-3.31,4.38c-4.47-0.32-8.99-0.07-13.48-0.08c-5.16,0-10.32-0.04-15.48,0.02
	C116.67,92.34,115.94,92.02,116.36,89.78z"/>
<path class="st4" d="M722.4,363.19c5.99,0.16,11.99,0.05,17.99,0.05c3.5,0,7,0,10.5,0c12.79,0,12.88-0.12,9.91-12.82
	c-2.43-10.4-9.75-17.31-19.62-18.54c-12.64-1.57-21.4,2.52-26.52,12.85c-5.41,10.93-5.33,22.24-0.44,33.2
	c4.17,9.34,11.94,14.12,22.27,13.86c10.8-0.27,19.37-4.4,23.4-15.22c0.57-1.53,2.51-3.98,0.24-4.66c-2.14-0.64-5.39-1.82-7.14,2.12
	c-3.93,8.84-11.05,12.49-19.56,10.64c-8.42-1.83-13.93-8.81-14.61-17.91C718.59,363.67,719.68,363.12,722.4,363.19z M719.08,354.01
	c1.63-9.17,8.8-15.94,17.11-16.07c8.67-0.14,15.34,5.5,17.55,14.72c0.7,2.93,0.59,4.65-3.31,4.35c-4.64-0.36-9.32-0.08-13.99-0.08
	c-5,0-10-0.12-14.99,0.05C719,357.07,718.72,356.02,719.08,354.01z"/>
<path class="st4" d="M464.91,238.2c-0.14-7.42-4.27-12.79-11.12-14.83c-6.03-1.8-12.17-1.88-18.18,0.02
	c-6.12,1.93-10.21,6.02-11.65,12.44c-0.23,1.03-1.07,2.72,0.69,2.78c2.63,0.08,6.07,1.7,7.16-2.81c0.82-3.37,3.34-5.16,6.62-6.06
	c4.97-1.37,9.85-1.45,14.47,1.07c3.7,2.01,6.48,9.55,4.65,13.67c-1.51,3.39-5.01,1.3-7.51,1.38c-6.35,0.2-12.61,0.64-18.49,3.2
	c-7.97,3.46-11.86,10.83-10.43,19.45c1.24,7.49,7.86,13.05,16.2,13.74c8.06,0.67,15.08-1.18,20.75-9.23c0,3.02-0.21,4.55,0.04,6.01
	c0.59,3.51,3.42,1.37,5.2,1.83c1.76,0.45,2.08-0.58,2.06-2.24C465.17,265.14,465.18,251.67,464.91,238.2z M457.49,260.61
	c-2.08,11.77-9.87,17.35-20.22,14.59c-4.77-1.27-8.01-3.78-8.37-9.08c-0.38-5.57,1.93-9.71,7.14-11.82
	c4.66-1.89,9.58-2.62,14.08-2.37C459.03,251.89,459.03,251.89,457.49,260.61z"/>
<path class="st4" d="M826.96,240.76c-0.11-11.39-4.72-16.72-15.95-18.46c-11.48-1.77-21.93,3.24-24.68,12.04
	c-0.41,1.29-1.95,3.78,0.39,4.16c2.13,0.35,5.17,1.88,6.8-1.79c2.95-6.67,9.41-9.36,17.34-7.59c6.17,1.38,8.82,5.46,9.19,12.99
	c0.17,3.5-1.15,4.08-4.2,3.94c-7.16-0.32-14.3-0.11-21.11,2.55c-8.78,3.42-13.05,10.67-11.64,19.64c1.24,7.96,8,13.49,16.97,14.06
	c7.73,0.5,14.42-1.41,19.96-9.19c0,2.81-0.01,4.14,0,5.46c0.02,3.97,3.05,1.93,4.77,2.28c1.93,0.39,2.7-0.17,2.63-2.67
	C827.07,265.71,827.08,253.23,826.96,240.76z M819.97,256.43c-0.25,11.69-5.15,18-14.84,19.37c-6.27,0.89-12.82-2.71-14.06-7.73
	c-1.62-6.53,1.4-11.58,8.42-14.25c5.91-2.24,12.07-1.9,18.21-1.89C821.79,251.94,819.14,255.14,819.97,256.43z"/>
<path class="st4" d="M1139.44,278.91c-1.16-13.78-0.06-27.61-0.63-41.4c-0.31-7.35-4.62-12.38-11.7-14.35
	c-5.75-1.59-11.55-1.51-17.23,0.12c-5.6,1.61-9.56,5.29-11.45,10.84c-0.47,1.38-2.34,3.91,0.51,4.42c2.12,0.38,5.54,1.89,6.57-2.1
	c1.82-7.05,9.29-8.21,16.57-7.35c6.17,0.73,8.95,4.38,9.85,11.27c0.58,4.42-0.59,6.07-5.37,5.73c-7.82-0.55-15.64,0.01-22.76,3.86
	c-6.73,3.64-9.79,10.12-8.76,18.01c0.86,6.6,6.37,12.67,13.28,13.84c8.77,1.49,17,0.62,23.69-7.29c0,1.43-0.05,2.87,0.01,4.3
	c0.14,3.6,2.92,1.75,4.51,1.99C1137.66,280.99,1139.67,281.73,1139.44,278.91z M1131.5,260.5c-2.29,12.09-10.12,17.62-20.64,14.63
	c-4.35-1.24-7.35-3.65-7.98-8.4c-0.7-5.18,1.15-9.18,5.73-11.66c4.94-2.68,10.38-3.25,15.91-3.14
	C1133.08,251.89,1133.12,251.94,1131.5,260.5z"/>
<path class="st4" d="M257.88,94.13c-1.63-19.48-16.72-30.89-34.21-25.94c-11.52,3.26-18.61,14.35-18.61,29.76
	c-0.4,4.81,0.72,9.97,3.07,14.81c4.52,9.29,11.83,14.38,22.39,14.63c10.67,0.26,18.57-4.13,23.57-13.53
	C257.36,107.71,258.45,101.04,257.88,94.13z M244.74,114.29c-7.19,9.19-21.28,8.76-27.51-1.18c-5.9-9.4-6.11-19.44-1.26-29.34
	c3.15-6.43,8.39-10.03,15.91-9.79c7.26,0.23,12.05,3.97,15.2,10.2c2.13,4.21,3.07,8.7,3.03,14.71
	C249.83,103.64,248.58,109.38,244.74,114.29z"/>
<path class="st4" d="M641.94,90.59c-1.83-12.69-11.01-22.09-22.92-23.35c-12.56-1.33-23.34,5.42-27.48,17.49
	c-2.88,8.4-2.95,16.9,0.08,25.34c4.06,11.29,12.65,17.34,24.56,17.29c11.27-0.04,19.66-5.74,23.81-16.27
	C642.61,104.46,642.96,97.6,641.94,90.59z M631.82,110.38c-3.28,7.22-10.48,11.28-17.63,10.37c-7.95-1.01-14.13-7.11-16.09-16.08
	c-0.53-2.41-0.64-4.91-0.85-6.56c0.16-5.34,0.82-9.77,2.9-13.8c3.36-6.5,8.4-10.43,16.14-10.33c7.54,0.1,12.52,4.07,15.53,10.46
	C635.84,92.97,635.71,101.8,631.82,110.38z"/>
<path class="st14" d="M102.34,367.93c-0.81-4.26,0.96-7.2,3.18-9.96c2.04-2.54,4.77-4.4,6.01-7.74c0.94-2.53,3.84-0.95,5.84-1.27
	c0.92-0.15,1.74,0.29,1.59,1.34c-0.37,2.5,1.29,5.35-1.25,7.46c-0.37,0.31-0.91,0.41-1.32,0.68
	C111.76,361.55,107.14,364.68,102.34,367.93z"/>
<path class="st7" d="M145.97,367.01c-4.38-2.97-8.75-5.96-13.15-8.89c-3.09-2.06-1.34-5.15-1.71-7.78c-0.2-1.44,0.98-1.41,2-1.42
	c2.45-0.02,4.9-0.47,6.09,2.75c1.06,2.86,3.71,4.63,5.73,6.82c1.4,1.51,2.26,3.26,2.18,5.38
	C147.39,365.15,148.54,366.76,145.97,367.01z"/>
<path class="st14" d="M125.37,224.89c-1.2,0.17-2.56-0.09-3.34,1.23c-0.27,0.37-0.61,0.42-0.99,0.19c-0.52-0.73-2.24-1.71,0.13-2.01
	C122.52,224.12,124.12,223.67,125.37,224.89z"/>
<path class="st15" d="M145.97,367.01c1.54-0.62,0.66-2.13,1.14-3.14c0.92,1.05,1.33,2.34,0.65,3.52
	C147.24,368.31,146.45,367.79,145.97,367.01z"/>
<g>
	<path class="st16" d="M124.01,231.14c0-0.01,0-0.01,0-0.02c-0.01-0.01-0.01-0.02-0.02-0.03C123.99,231.11,124,231.13,124.01,231.14
		z"/>
	<path class="st16" d="M185.13,244.89c-0.69-1.51-1.54-2.95-2.17-4.48c-0.92-2.27-1.92-2.27-4.46-1.71
		c-5.62,1.23-8.41,6.53-8.75,9.75c-0.68,6.49-5.21,5.63-8.48,6.38c-7.82,1.78-15.81,2.64-22.97-2.64c-1.52-1.12-3.15-2.33-2.5-4.35
		c0.58-1.79,2.5-1.96,4.22-1.96c3.89-0.01,7.79,0,11.82,0c-3.02-14.84-11.18-21.07-26.49-20.98c-1.32-0.44-2.62-0.8-3.67,0.55
		c-0.04,0.26-0.04,0.51-0.02,0.75c0.12-0.02,0.23-0.04,0.35-0.07c0.83,1.4,2.63,2.08,2.91,3.9c2.21,5.11,0.82,10.47,1.04,15.71
		c0.07,1.65-0.03,3.3-0.06,4.95c-1.15,0.31-1.68,0.14-1.91-0.25c-0.23,0.14-0.53,0.22-0.94,0.2c-0.33-0.04-0.65-0.13-0.96-0.24
		c0.22,0.49,0.42,0.99,0.66,1.46c-2.41,0.6-2.64-1.74-3.79-2.83c-10.53,9.05-22.23,7.82-34.19,3.78c-1.58-0.53-2.93-1.55-2.95-3.6
		c-0.03-4.94-4.89-5.75-7.45-8.54c-0.2-0.22-1.15-0.15-1.17-0.08c-1.32,5.34-3.27,1.01-4.92,0.3c-1.07-0.46-2.3-2.09-3.11-0.22
		c-0.54,1.26-2.7,3.08,0.26,4.49c1.86,0.88,3.52,2.2,5.29,3.34c-4.45,4.08-4.46,4.09,0.08,6.56c3.6,1.96,7.22,3.87,10.81,5.8
		c0.94-1.87-0.3-3.9,1.26-5.39c2.01,1.38,1.12,3.4,1.12,5.07c-0.04,27.63-0.07,55.26-0.36,82.89c-0.05,4.59,1.47,4.93,5.21,3.68
		c6.81-2.27,9.9-7.02,9.95-16.44c0.07-14.15-0.01-28.31,0.03-42.46c0.02-6.04,2.1-8.81,8.28-11.06c0,1.74,0,3.35,0,4.96
		c0,20.32,0.06,40.63-0.07,60.95c-0.02,2.96,0.55,3.99,3.77,3.94c9.48-0.15,18.98-0.07,28.46,0.32c3.9,0.16,4.66-1.15,4.62-4.79
		c-0.19-17.65-0.09-35.3-0.09-52.95c0-4.43,0-8.86,0-13.95c5.47,3.07,8.04,7.21,8.44,12.63c1.08,14.96,0.28,29.95,0.46,44.92
		c0.13,10.96,2.77,13.93,14.45,15.16c0-30.96,0-61.86,0-92.76c0.35,0,0.7-0.01,1.05-0.01c0,2.04,0,4.07,0,6.97
		c2.83-1.61,5.18-2.53,6.96-4.09c1.83-1.6,4.13-1.22,6.03-2.32C190.17,251,189.16,253.77,185.13,244.89z M76.79,248.02
		c0.23,1.28,0.47,2.57,0.82,4.49C75.13,251.02,76.33,249.38,76.79,248.02z M131.18,266.86c-4.26,0.43-5.21,2.13-4.94,5.96
		c0.3,4.31,0.07,8.65,0.07,12.98c0,9.15,0,9.14,9.45,9.17c1.81,0.01,3.62,0.17,5.43,0.32c0.17,0.01,0.3,0.48,0.7,1.16
		c-3.35,1.49-6.84,0.85-10.08,0.63c-4.27-0.29-5.74,0.8-5.61,5.4c0.35,12.97,0.15,25.96,0.08,38.95c-0.01,1.17,0.77,3.28-0.96,3.32
		c-2.4,0.06-1.23-2.29-1.24-3.47c-0.1-13.32-0.17-26.63,0.01-39.95c0.04-3.26-0.81-4.34-4.14-4.24c-3.47,0.11-7.1,0.79-11.56-1.03
		c4.73-1.88,8.64-1,12.41-1.03c2.56-0.02,3.42-0.64,3.34-3.31c-0.19-6.82-0.23-13.65,0.01-20.47c0.11-3.05-0.92-4.06-3.86-4.27
		c-3.9-0.28-7.28-2.14-10.29-4.59c-1.49-1.22-2.82-2.62-2.53-5.07c4.69,5.65,10.77,8.08,17.71,8.16c7.04,0.07,13.18-2.31,18.01-9.73
		C142.09,262.07,137.54,266.22,131.18,266.86z M175.22,251.63c0.44,1.05-0.02,1.4-1.03,1.34c-0.44-2.36-0.56-4.56,2.71-5.38
		C177.58,249.56,174.32,249.8,175.22,251.63z"/>
</g>
<path class="st14" d="M125.08,245.92c-0.13-4.63,0.17-9.27-0.17-13.91c-0.85-1.93-1.44-4.07-3.93-4.6
	c-8.02-4.13-10.8-2.5-10.92,6.35c-0.02,1.64-0.14,3.29-0.34,4.92c-0.65,5.45,2.1,8.52,7.72,8.64c0.9,0.02,1.99-0.51,2.65,0.62
	c0.31,1.71,1.21,3.01,2.69,3.91c1.21,0.04,2.55,0.42,3.15-1.18C124.69,249.27,125.12,247.54,125.08,245.92z M116.36,236.57
	c-0.77-0.13-1.57-0.4-1.65-1.41c0.31-0.88,0.92-1.3,1.85-1.19c0.88,0.1,1.68,0.53,1.6,1.44C118.1,236.3,117.25,236.72,116.36,236.57
	z M113.73,230.72c1.72-1.13,3.12-0.72,4.6,0C116.92,230.72,115.52,230.72,113.73,230.72z"/>
</svg>
