<svg id="Layer_1" data-name="Layer 1" xmlns="http://www.w3.org/2000/svg" viewBox="0 0 1939.79 841.89"><defs><style>.cls-1{fill:#FF6200;}</style></defs><path class="cls-1" d="M1678.43,299.23c31.5,0,63-.32,94.49.08,61.4.78,99.7,38.14,99.42,99.13-.2,44.2,4.17,88.57-3.53,132.64-8.1,46.46-40.3,75.5-87.48,76.4-42,.8-84,.95-126,0-56.88-1.24-94.47-40.12-94.48-96.12,0-55.82,38.06-95,95.06-96.33,40.13-.93,80.29.08,120.43-.49,6.78-.09,18.61,6.36,18.26-9.71-.29-13.46.19-26.72-17.51-29.31-4.84-.71-9.86-.31-14.8-.31-61.76,0-123.52-.37-185.28.29-12.58.14-17.57-2.51-16.45-15.9a282.27,282.27,0,0,0,0-44.29c-.93-12.59,2.48-16.88,15.92-16.47C1610.48,299.92,1644.46,299.22,1678.43,299.23ZM1715.61,531v-.27c20.29,0,40.61.66,60.86-.19,18.34-.78,17.92-14.76,18.1-28.17.21-15.71-11.57-9.59-18.48-9.69-38.12-.54-76.25-.17-114.38-.29-13.18,0-23.45,3-23.07,19,.36,15.42,10.28,19.5,23.46,19.56C1679.93,531,1697.77,531,1715.61,531Z"/><path class="cls-1" d="M230.27,486.43c1.77-30.44-2.79-68,2.12-105.44,10.5-79.95,88.75-97.07,144.3-71,5.54,2.6,9.17,4.7,16.32,1.29,63-30,145.23-9.45,148.53,89.49,2.15,64.59.17,129.3.67,194,.08,10.79-3.39,13.74-13.68,13.29a471.13,471.13,0,0,0-50,.06c-12.37.76-15.36-3.59-15.25-15.49.57-63.42,0-126.84.44-190.26.1-14.64-2.36-27-19.73-26.65-16.91.36-20.26,13.3-20.26,27.41,0,62.81-.34,125.62.27,188.42.12,12.35-2.15,17.83-15.85,16.59a253.2,253.2,0,0,0-42.57,0c-14,1.12-18.84-2.68-18.59-17.82,1-60.32.44-120.68.34-181,0-6.73-.2-13.6-1.52-20.17-2-10.14-10-13.78-19.33-13.52-9.65.28-16.42,5.58-17.83,15.49-.87,6-.4,12.29-.4,18.44,0,60.35-.37,120.69.27,181,.14,12.83-1.63,19.31-16.61,17.57-20-2.31-47,8.37-58.39-4.11-10-10.91-3-37.35-3.21-56.93C230.11,529.18,230.27,511.32,230.27,486.43Z"/><path class="cls-1" d="M875.49,393.79c-1.9,26,2.53,57.37-3.24,88.68-13.47,73-66.73,122.33-136.56,124.9C645.2,610.7,591.09,573.12,570,493.45c-7.25-27.3-6.22-54.84-6.3-82.47-.08-32,.68-64.06-.35-96.05-.43-13.45,4.16-17.08,16.71-15.86,20,1.95,47-8.55,58.4,4.12,10,11.05,3.16,37.38,3.3,57,.23,30.79-.09,61.58.11,92.37.31,48.59,30.52,78.67,78.41,78.38,46.16-.28,77-31.22,77.28-77.87.23-46.18.46-92.37-.21-138.54-.17-12.05,3.06-16.31,15.41-15.52a351.54,351.54,0,0,0,48.14,0c12.94-.95,15.22,4.36,14.87,15.73C875,339.28,875.49,363.92,875.49,393.79Z"/><path class="cls-1" d="M1111,607.83c-30.51-2.23-66.76,3.32-102.82-6.49C909.47,574.49,883.07,486.44,903,406.1c16.31-65.64,73.39-101.25,137.93-105.69,51.62-3.55,103.66-.81,155.51-1.36,9.82-.11,13.12,3.16,12.34,12.74-1.67,20.65,8.65,47.64-4.18,60.16-10.27,10-37.42,2.62-57.06,3.34-36.93,1.34-74.15-4-110.77,3.16s-58.18,29.72-61.11,61.8c-4,43.66,9.73,70,44.25,83.77,14.48,5.75,29.91,7,45.41,7,42.6,0,85.2.3,127.79-.22,11.46-.14,16.85,2.1,15.87,15.14-1.25,16.52-.88,33.24-.1,49.82.48,10-3.35,12.47-12.72,12.29C1169.66,607.5,1143.11,607.83,1111,607.83Z"/><path class="cls-1" d="M1448.79,299.23c25.93,0,51.88.42,77.8-.21,9.73-.24,12.84,2.67,12.41,12.37a476.18,476.18,0,0,0,.06,49.84c.69,11.43-2.81,14.48-14.29,14.3-44.45-.71-88.92-.54-133.38-.22-44.07.33-74,20.64-83.57,56-13.43,49.47,13.72,92.14,64.52,97.64,49.15,5.33,98.7,1.9,148.06,1.56,16.06-.11,20.2,4.67,18.62,19.56-2,18.78,7.79,44-3.9,54.78-10.11,9.32-35.1,3.37-53.48,2.85-44.32-1.24-89.16,5.48-132.89-4.12-56.67-12.45-99.53-42.9-114.31-102.1-15.41-61.7-8.16-118.82,42.26-163.67,27.08-24.09,60.46-35.31,96.17-37.76,25.19-1.74,50.6-.34,75.92-.34Z"/><path class="cls-1" d="M1316.53,687.09a14.12,14.12,0,0,1,0-1.84c1.06-7.65-.26-22.63,2.08-21.89,12,3.8,23.7-11.09,34.34-.11,6.45,6.66,10.79,1.18,15.84-1.26,11.86-5.74,22-2.34,24.85,9.65,2.89,12.27,1.42,25.59,1.65,38.45a4,4,0,0,1-4.64,4.28c-3-.29-3.85-2.61-3.9-5.19-.14-8.59.11-17.21-.36-25.78-.42-7.61-1.73-15.79-12-14.93-8.4.7-13,6.52-13.22,15.07-.2,7.37.06,14.75-.22,22.11-.13,3.27,1.48,8.3-3.8,8.66-5.55.37-4.42-4.7-4.53-8-.23-6.74.09-13.51-.15-20.26-.3-8.32-1.66-17.45-12-17.6-10.46-.16-14.2,8.29-14.87,17.72-.35,4.89.37,9.91-.38,14.71s3.56,13.5-4.77,13c-7.37-.42-3.06-9-3.84-13.88C1316,695.78,1316.53,691.39,1316.53,687.09Z"/><path class="cls-1" d="M238.59,665.13c10.18-4.38,20.33-9.75,30.68-.26,5.65,5.19,8.75-1.4,12.62-3.17,13.47-6.15,22.88.11,25.91,11.77s1.31,24.32,1.51,36.57a4.42,4.42,0,0,1-4.42,4.75c-3.95.25-5.42-2.26-5.48-5.69-.14-8.58-.28-17.17-.12-25.75.15-7.62-2.27-14.31-10.37-14.72-8.29-.42-13.86,5-14.22,13.7-.45,10.62-.11,21.28-2.39,32-10.47-7.94-6-18.43-6.68-27.67-1-13.35-5.13-21.52-20.49-17Z"/><path class="cls-1" d="M709.15,716.16c-16.55.18-27-6.55-29-22.74-1.89-15.44,2.32-28.35,19.13-32.95,14-3.82,23.79,1.76,29.1,15.2,4.11,10.41,2.44,16.8-10.66,15.66-3.65-.31-7.5-.68-11,.1-5.28,1.18-14.93-4.36-15.11,4.06-.2,9.9,9.56,12.83,18.7,13.52,5.64.43,15-8.63,15.92.27C727.18,718.34,714.76,714.19,709.15,716.16Zm-5-31.95c4.87-2.85,14.78,4.69,15.1-6.27.2-6.61-6.68-10.12-13.16-9.75-6.82.38-14.42,3.11-14.54,11C691.36,688.63,700,681.39,704.11,684.21Z"/><path class="cls-1" d="M872.39,716c-17.28.93-27.73-5.65-30.2-20.58S843,667.25,859.55,661c10-3.79,18.31-.87,25.52,5.41,5.95,5.18,8.6,13.35,5.66,20.19-4.19,9.73-14.3,2.59-21.39,4.78-5.44,1.68-15.81-5.11-15.55,5.89.22,9.68,10.19,11,18.27,11.65,5.85.49,16-7.28,16.56.43C889.26,717.92,876.89,714.44,872.39,716Zm-4.52-31.82c4.63-2.4,13.85,4.39,13.74-5.91-.07-6.67-6.76-10.14-13.18-10-6.75.15-14.87,2.28-14.71,10.34C853.91,688.64,863.2,681.64,867.87,684.14Z"/><path class="cls-1" d="M1626.37,702c6-14.14,10.28-24.23,14.45-34.39,1.5-3.63,3.29-7,7.89-5.83,6.65,1.74,2,6.13,1.08,8.6q-10.26,26.58-21.36,52.86c-4.27,10.09-11.32,14.79-28,8.52,26.36-6.83,21.37-20.33,14.3-34.76-4-8.25-7.15-17-10.62-25.49-1.29-3.18-4.82-7.33-.19-9.48s7.79,1.29,9.5,6C1617.18,678.36,1621.23,688.59,1626.37,702Z"/><path class="cls-1" d="M1206.32,688c.12,17.88-8.2,27.68-23.9,28.15-16.51.5-26.28-9.92-26.29-28,0-16.63,9.78-28.23,24.29-28.81C1195.8,658.67,1206.21,670.19,1206.32,688Zm-10.13.09c-.32-10-3.33-19.62-14.74-19.69-11.22-.07-15,9.28-15.13,19.34-.08,10.69,3.68,20.84,15.75,20.58C1193.26,708.05,1196.11,698.1,1196.19,688.06Z"/><path class="cls-1" d="M1728.61,680c-3.53-5.85-12.64-9.35-33.13-13,9.34-8.35,18.54-9.28,28.88-5.85,9.53,3.16,13,10.56,14.21,19.59a64.55,64.55,0,0,1,.18,7.37c.57,26.12.58,26.29-25.47,27.88-9.81.59-18.62-1-20.2-13.54-1.51-12,3.78-18.93,15.21-21C1714.79,680.26,1721.54,680.44,1728.61,680Zm.31,12.34c-2.53-5.49-8.75-2.25-13.47-2.56-7.32-.47-14.29.72-13.5,10.39.56,6.92,6.78,9.41,12.06,8.46C1721.33,707.27,1727.92,703.23,1728.92,692.31Z"/><path class="cls-1" d="M1460.28,688.43v3.69c0,23.39,0,23.53-26.38,24-17.92.28-20.66-12-20.84-26.05-.1-7.37.07-14.74,0-22.11-.06-3.61,1.39-6.27,5-6.15,3.45.12,5.07,2.66,5,6.32-.09,8.59-.2,17.2.16,25.79.34,8.1,3.46,15.23,12.8,14.6,8-.53,13.59-5.61,14-14.44.33-8,.46-15.94.54-23.92,0-3.83.08-8.2,4.93-8.26s4.89,4.37,4.85,8.16C1460.23,676.15,1460.27,682.29,1460.28,688.43Z"/><path class="cls-1" d="M1476,686.77v-1.84c0-22.16,0-22.16,7.93-21.94,38.52,1.06,39.09,1.07,38.39,24.8-.26,8.94,5.29,25.12-4.68,25.23-9.48.11-3.28-16.17-4.47-25.11-1.12-8.48.67-19-11.52-19.34-12.72-.35-14.82,9.46-16.4,20.1-1.27,8.56,7,23.35-5.58,24.19-7.44.49-1.77-15.77-3.65-24.25A8.68,8.68,0,0,1,1476,686.77Z"/><path class="cls-1" d="M1024.06,688.84c-.13,18.27-8.54,27.52-24.84,27.33-16-.19-24.41-9.8-24.48-28-.07-17.2,9.39-28.52,24.17-28.94C1014.26,658.83,1024.18,670.5,1024.06,688.84Zm-9.12-.82c-1.43-10.22-4.54-20.06-15.86-19.63-10.94.42-15.2,10.46-15,19.9.23,9.12,3.53,20,14.74,20.11C1011.09,708.51,1013.51,697.57,1014.94,688Z"/><path class="cls-1" d="M744.3,714.08c0-15.64,0-31.28,0-46.92,0-3.58,1.6-5.63,5.76-4.56,11.8,3,26.5-11.5,35.87,5.3,7.66,13.72,3.29,28.86,3.4,43.41,0,1.06-2.35,2.94-3.71,3-2.86.22-4.26-2-4.32-4.71-.15-7.37.12-14.77-.29-22.13-.48-8.61-.42-18.68-12.43-19-13-.39-16,8.81-16.4,19.83-.35,8.72,1.94,17.89-1.92,26.16Z"/><path class="cls-1" d="M1871.29,667.28c-3,1.85-3.46,2.42-4,2.46-8.51.64-21.5-7.09-24.29,4.08s11.51,8.56,18.59,11.6,12.82,7.44,11.27,16.56c-1.44,8.42-6.68,12.82-14.91,13.58a81.8,81.8,0,0,1-14.68.09c-4.58-.4-11.88.49-11.24-6.2.84-8.93,7.54-1.9,11.38-2,4.07-.16,8.11,2.62,12.51.63,3.31-1.5,7.33-2.39,7.8-6.72s-3.14-6.23-6.51-7.71a24.17,24.17,0,0,0-5.34-1.25c-9.33-1.78-18.55-4.15-20.14-15.41-1-6.69,2.67-12,8.89-14.62C1851.05,657.87,1861.18,656.84,1871.29,667.28Z"/><path class="cls-1" d="M542.48,665.12c28.58-11.24,37.83-4.69,37,25.83-.21,7.78,4.6,22.21-3.74,22.15-9.72-.06-3.24-13.89-4.21-21.5-1.31-10.31.74-23.23-14.15-22.88-13.47.31-15,11.83-15,23.09,0,7.56,1.77,15.53-1.72,22.5-7,.16-6.39-4.13-6.41-7.6-.11-19-.19-38,0-57,0-3.71-2.25-10,4.58-9.72,5,.17,3.39,5.53,3.56,8.86C542.67,653.78,542.48,658.68,542.48,665.12Z"/><path class="cls-1" d="M1268.83,670.67c-7.07,11.28-3.54,23.87-4.47,35.92-.27,3.47.56,8.22-5,7.73-3.85-.33-3.74-4.2-3.79-7.22-.13-8,.29-16-.36-24-.56-6.78-1.89-14.33-10.77-14.75-8.65-.4-14.17,5.34-15.31,13.2-1.56,10.72-1.39,21.69-2.1,35.15-11.78-9.64-6.58-20.44-7-29.48-.37-8.17-1-24.29,1.71-23.59,13.08,3.35,28.11-13.39,39.3,3.52.44.68,3.23-.19,4.92-.33Z"/><path class="cls-1" d="M1146.29,669.07c-27.21-1.18-34.12,2.86-33.57,19.12.51,15,7.5,22.93,23.73,19,2.76-.67,6.15-2.55,8,1.17a4.2,4.2,0,0,1-2.76,5.93c-12.31,2.94-24.58,4.33-34-6.9-9.22-11-8.07-31.18,2.09-40.56C1120.79,656.74,1132.84,657,1146.29,669.07Z"/><path class="cls-1" d="M519.57,667.25c-3.87,5.2-8,1.64-11.87,1.32-14.07-1.16-21,6.38-21,19.35.06,13.52,6.91,21.64,21.92,20,3.65-.39,9.48-5.15,10.45,1.55,1,6.94-6.14,5.91-10.73,6.44-12.66,1.43-23.87-1.55-29.16-14-5-11.79-5.35-24.4,4.52-34.19,9.62-9.52,21.41-11.37,33.76-4.79C518.66,663.57,518.94,665.86,519.57,667.25Z"/><path class="cls-1" d="M832.84,666.94c-19.57-1-17,11.91-17.72,24.85-.78,13.45,7.31,15.68,17.23,19.41-9.37,4.12-21.75,8.43-23.88-4.17-2.92-17.3-7.21-35.44-2.34-53.55.87-3.22,1.25-6.38,4.87-6.43,3.78,0,4.91,3,4.59,6.45C814.37,666.78,829.8,656.93,832.84,666.94Z"/><path class="cls-1" d="M1064.8,667.72c-13.75-.29-17.19,6.82-15.26,18.2a50.09,50.09,0,0,1,0,14.67c-.63,4.84,3.33,13.47-4.54,13.41s-3.42-8.71-4.6-13.52c-2.74-11.08,6.3-24.41-6.92-33.73-2.33-1.64,14.45-26,18.75-26.7,4.56-.68,11.19-3.3,12.76,2.73,1.77,6.77-5.22,4.63-8.91,5.31-4.44.82-6.27,3.72-6.15,7.75C1050.2,665.19,1061.23,658.08,1064.8,667.72Z"/><path class="cls-1" d="M391.52,714.37c-4-16.32-1.3-33.1-1.66-49.66,10.6,2.63,19.15-7.31,29.44-5.07,8.33,1.82,14.33,7.05,16,15.9a22.53,22.53,0,0,1-.19,7.32c-1.64,10.49,3.83,21.72-3.33,31.62-10.28-8.45-3.27-19.84-4.89-29.75-1.41-8.62-3.51-16.53-13.65-16.29-9.07.22-14.66,6.33-15.08,15.6-.45,10.12-.1,20.28-.1,30.43Z"/><path class="cls-1" d="M670,665.86c-5.94,5.58-9.47,3.24-12.93,2.79-14.38-1.88-21.42,6.6-21.48,18.87-.06,12.51,5.73,22.61,21.53,20.58,3.58-.46,9.14-5.24,10.2,1.88.91,6.13-5.52,5.3-9.42,5.81-13.46,1.77-25.68-1.45-30.08-15.21-3.92-12.29-4.92-25.77,7.85-35.08C646.45,657.61,657.28,656.6,670,665.86Z"/><path class="cls-1" d="M367.66,714a14.23,14.23,0,0,0-3.57-.68c-35.7,2.47-44.49-8.25-37.49-45.53.59-3.14.61-6.46,4.71-6.26,3.69.18,4.87,3,4.86,6.44,0,7.36-.22,14.73.08,22.07.8,19.28,5.06,21.63,24.21,13.68C363,707.06,368.14,708.59,367.66,714Z"/><path class="cls-1" d="M1800.15,646.77c2.54,14.39,13.22,15.27,25.6,18-26.5.7-19.61,18.12-20.39,31.86s11.78,8.88,19.82,12.58c-6.86,8.67-14.3,6.57-20.52,4.74-7-2.05-6.82-8.87-7.58-15.18-1.3-10.79,4.34-22.39-5.32-32.76C1789.85,664,1797.12,653.41,1800.15,646.77Z"/><path class="cls-1" d="M1594.14,710.38c-22.65,7.58-25.71,5-26.67-16.29-.4-9,4.06-18.84-5-27.42-1.89-1.79,5-12.87,8.83-21.87,4.87,10.66,7.5,22.65,25.77,18.61-26.63,1.69-20.22,18.33-21.48,31.64C1574.18,709.44,1586.57,706.3,1594.14,710.38Z"/><path class="cls-1" d="M905.38,715.64c0-17.2-.14-33.58.15-49.95,0-2.56,27.81-6.75,29.83-4.62s2.23,5.75-.1,6c-29,2.87-20.06,25.2-21.93,41.93C913.05,711.53,912.48,713.7,905.38,715.64Z"/><path class="cls-1" d="M1774.91,667c-14.1,10.5-9.17,25.35-10.19,38.79-.25,3.27,1.43,8.18-4,8.46s-4.83-4.41-4.88-7.94c-.13-9.16.87-18.44-.27-27.46C1753.36,660.93,1761.37,660.72,1774.91,667Z"/><path class="cls-1" d="M1266,666.87c6.42-6.73,13.55-10,22.75-5.32,7.48,3.83,10.64,10.15,9.82,18-1.22,11.63,3.77,23.88-3.36,34.92-10.5-9.05-3.54-20.94-4.81-31.41-1.79-14.72-9.32-17-21.56-12.4Z"/><path class="cls-1" d="M238.59,665.13l6.55,4.53c-13.45,12.54-2.39,30.66-11.34,44.7-4.81-16.62-4.43-33.57-2-50.36C232.39,659.91,236.52,662.8,238.59,665.13Z"/><path class="cls-1" d="M367.66,714c.48-5.43-4.64-7-7.2-10.28,5.76-11,2.19-22.81,3.23-34.22.27-2.91-.19-6.52,4-6.79,1.28-.08,3.92,1.79,3.85,2.56C370,681.52,377.12,698.46,367.66,714Z"/><path class="cls-1" d="M454.46,714.32v-52l3.65-.25v52.08Z"/><path class="cls-1" d="M1548.06,688.78c-3.21,8.29,4.36,23.54-4.69,23.78s-4-14.94-4.08-23c-.12-8.93-4-25.93,3.34-25.38C1553.15,664.94,1544.43,680.34,1548.06,688.78Z"/></svg>