<svg id="Layer_1" data-name="Layer 1" xmlns="http://www.w3.org/2000/svg" viewBox="0 0 1027.4 490.21"><path d="M56.25,233.94c2.27.07,4.53.21,6.79.21H985.48v10.62H62.61c-2.12,0-4.24,0-6.36,0Z"/><path d="M567.34,424.28c5.57-13.52,11.08-27.07,16.74-40.56C602,341,620,298.33,637.83,255.57c1.48-3.53,3.33-4.6,7-4.51,10.38.25,20.77.09,31.95.09C654.51,306.93,632.5,362,610.15,418h15.12c9.23,0,18.46-.19,27.69.07a15.12,15.12,0,0,0,11.69-4.87c7.64-7.63,13.05-16.46,15.44-27.14,1.12-5,3.06-9.76,4.63-14.63l2.45.43v52.46Z"/><path d="M225.74,61.62c-6.19,0-12.07.08-17.94-.08-1,0-2-1.08-3-1.66,1-.57,2-1.63,3.07-1.63q20.43-.16,40.85,0c.9,0,1.79,1,2.68,1.47-.92.63-1.83,1.77-2.78,1.8-5.88.16-11.77.08-18.64.08V224.26c-4,1.36-6.44.48-8.87-3q-49.58-70.9-99.45-141.6c-.86-1.22-1.86-2.35-3.36-4.23v146c6,0,11.87-.08,17.73.08,1.08,0,2.14,1,3.21,1.53-1,.61-1.91,1.75-2.87,1.76-14.07.11-28.14.06-42.21,0-.43,0-.86-.22-1.91-1.5,1.11-.63,2.2-1.77,3.33-1.81,6-.18,12-.08,18.25-.08V61.8c-7-.54-14.3.2-21.4-.39l.5-3.23h24.43c8.77,0,17.55.13,26.32-.06,3.11-.07,4.87,1.07,6.61,3.57q36.27,52,72.74,103.9c.68,1,1.46,1.86,2.74,3.47Z"/><path d="M611.64,221.49c5,0,9.18-.09,13.38.08.71,0,1.37,1.13,2.05,1.74-.62.5-1.23,1.45-1.85,1.45-13.72.09-27.43.07-41.67.07V206.31c-10.9,18.07-26.66,22-45,19.61-14.66-1.88-23.4-10.75-23.8-25.5-.49-17.81-.23-35.63-.29-53.45,0-6.16,0-12.32,0-19.14-4.63,0-8.8.09-13-.07-1,0-1.86-1-2.8-1.48.81-.64,1.61-1.83,2.42-1.84,13.73-.11,27.46-.08,41.81-.08v5.18c0,22.8-.09,45.61.13,68.41a37.62,37.62,0,0,0,2.23,12.81c3.24,8.51,11.69,11.53,20.64,7.78,10.31-4.31,15.78-13.07,16.2-23.34.9-22.26.28-44.58.28-67.39-4.12,0-8.32.08-12.5-.07-.78,0-1.53-1-2.29-1.49.66-.63,1.32-1.79,2-1.79,13.87-.11,27.74-.08,42.06-.08Z"/><path d="M850.52,319.31c-2.73.31-5.47.6-8.2.94-4.39.54-5.78,2.25-4.37,6.35,5.87,17.08,11.92,34.11,18.4,52.55,4.32-11.56,8.12-21.9,12.06-32.19s6.35-20.94,13-31.3a60.34,60.34,0,0,1,3.84,6.5c6.07,14.46,12,29,18.06,43.46,1.55,3.7,3.28,7.33,5.45,12.15,3.53-9.5,6.78-17.85,9.73-26.3,2.59-7.4,5-14.86,7.16-22.4,1.89-6.72.63-8-6.31-8.18-2.63-.06-5.25-.46-9-.8,3.51-3.09,32.61-3.43,36.94-1-2.2.72-3.79,1.74-5.31,1.65-6.09-.35-9,3-10.83,8.21-7.89,22-15.95,44-23.81,66-2.78,7.81-5.1,15.79-7.83,23.62-.52,1.51-2,2.69-3,4-1-1.23-2.4-2.3-3-3.7-7.69-19.34-15.27-38.74-22.88-58.11-.38-1-.83-1.91-1.68-3.86l-23.92,65.8h-1.8a48.83,48.83,0,0,1-2.77-5.19Q823.8,375,807.19,332.41c-.66-1.69-1.51-3.3-2.1-5-1.73-4.92-5-7.35-10.35-6.73a5.36,5.36,0,0,1-2.68-.24,13,13,0,0,1-2.54-1.91c.84-.44,1.69-1.25,2.53-1.26q28.35-.08,56.7,0a5.52,5.52,0,0,1,1.58.55Z"/><path d="M802.1,406.07c-.9,1.41-1.57,3.06-2.74,4.18-9.72,9.33-21.34,12.05-34.31,9.21-4.75-1-7.89-4.26-9.37-8.95-.67-2.14-1.29-4.3-2.15-7.19-1.52,2-2.79,3.7-4.07,5.38-5.15,6.75-11.63,11.29-20.26,12.41-8.43,1.09-16.09-.39-21.71-7.23-6.28-7.63-6.33-16.41-3.29-25.26,2.82-8.22,9.09-13.78,16.89-16.68,8.7-3.23,17.92-5.07,26.93-7.47,1.56-.41,3.19-.57,5.47-1-.65-11-.89-21.71-2.06-32.32-.88-8-5.84-12.41-13.5-13.68s-15.61,2.13-19.16,8.34c-2.51,4.39-1.73,6.17,3.15,7.16,7.45,1.52,10.28,5,9.56,11.67-.7,6.41-5.31,10.6-11.88,10.76-12.93.33-19.91-11.47-13.61-23.31,5.75-10.81,15.59-15.8,27.21-17.17a73.92,73.92,0,0,1,30.95,2.63c11,3.47,16.81,10.74,17.38,22.75s.47,24.14.62,36.21c.1,8,.06,16,.24,24a21.22,21.22,0,0,0,1.08,6.17c1.69,5.07,5.21,6.4,9.91,3.67,2.66-1.55,5-3.55,7.56-5.35Zm-48.55-38.71c-18.52,1.95-28.78,20-21.44,35.83,2.4,5.16,9.41,8,13.68,4.5a16.54,16.54,0,0,0,5.52-9.79C752.61,387.93,752.86,377.82,753.55,367.36Z"/><path d="M328,121.28c17.74,1,35.83,9.74,46.51,30.17,13.13,25.11,3.53,54.65-21.82,68.84a60.64,60.64,0,0,1-74.19-12c-23-25.28-13.62-66.43,18.55-81.21C306.42,122.79,313.69,121.18,328,121.28Zm-30.91,51.95c.68,10.27,1.1,18.69,1.86,27.08a33.64,33.64,0,0,0,2.08,8.31c2.66,7.4,6.86,13.42,15.14,15.36,14.76,3.46,25.38-2.59,29.41-17.18,3.71-13.4,3.16-27.2,2.83-40.9-.23-9.46-.46-19-4.38-27.94-2.88-6.54-7.42-11.31-14.75-12.8-15.41-3.13-26.9,4.37-29.55,20.2C298.12,155.12,297.84,165.11,297.11,173.23Z"/><path d="M688.17,221.2c8,0,15.23.43,22.43-.11,8.54-.64,14.44-5.8,18.28-13.16,2-3.86,3.34-8.08,5.1-12.08a27.18,27.18,0,0,1,2.32-3.6l1.48.51c-.83,10.52-1.66,21-2.49,31.66H650.67c13.5-32.58,26.7-64.44,40.16-96.91-9.67.46-18.77-.8-27,4.21-7.92,4.82-10,14.05-14.94,21.09l-1.29-.58a19.89,19.89,0,0,1-.13-3.26c.85-7,1.83-14.06,2.66-21.1.26-2.2.76-3.56,3.49-3.54,23.58.25,47.16.38,70.74.56a13.06,13.06,0,0,1,2.28.52Z"/><path d="M441.3,124.36v19.29c2.87-4,4.93-7.23,7.32-10.16,10.09-12.36,28.29-15.05,39.2-5.91,6.39,5.35,8.36,16.89,4,24-2.44,4-6.26,5.66-10.77,5.46a42.42,42.42,0,0,1-9.35-1.32c-4-1.14-6.37-4-6.08-8.39.23-3.46,1.08-6.9,1-10.34,0-2.21-.54-5.46-2-6.32-1.73-1-5.13-.82-7,.23-9.71,5.32-14.77,14.53-15.2,24.84-.89,21.67-.27,43.4-.27,65.7,5.1,0,10-.09,15,.08,1,0,2.05,1.07,3.08,1.65-1,.56-2,1.6-3,1.61q-28.14.15-56.27,0c-1,0-2-1.11-3-1.7,1-.54,2.07-1.5,3.15-1.55,3.75-.2,7.52-.08,11.67-.08V127.81c-3.93,0-8,.12-12-.09-1,0-1.92-1.19-2.87-1.82.94-.52,1.87-1.47,2.82-1.48C414.05,124.33,427.33,124.36,441.3,124.36Z"/><path d="M797,124.36v97c4.39,0,8.42-.11,12.44.09,1,.05,2,1.1,3,1.69-1,.56-2,1.6-3.05,1.61q-27,.14-54,0c-1,0-1.91-1.17-2.85-1.79.92-.53,1.82-1.47,2.76-1.51,4-.17,8.1-.07,12.48-.07V127.83c-4.25,0-8.43.1-12.6-.08-.91,0-1.77-1-2.66-1.6.85-.6,1.69-1.71,2.54-1.72C768.85,124.33,782.58,124.36,797,124.36Z"/><path d="M766,74c0-8.74,7.68-16.6,16.36-16.75s16.77,8.06,16.72,16.87A16.54,16.54,0,1,1,766,74Z"/></svg>