<svg id="Layer_1" data-name="Layer 1" xmlns="http://www.w3.org/2000/svg" viewBox="0 0 406.47 603.04"><defs><style>.cls-1{fill:none;stroke:#181819;stroke-width:8px;}</style></defs><path class="cls-1" d="M387.19,443.08c-6.6,6.55-10.28,16.69-9,16.22s.46,24.33.46,24.33-27.33,30.63-56.33,23.88-228.14-2.25-245.57-2.25S60.06,494.9,60.06,494.9V443.53c0-14.95-9.92-16.65-9.92-20.73s2.16-6.36,9.47-10.81,15.32-12.62,15.32-12.62V238.06c0-12.72-4.72-9.92-5-16.67S83,206.07,83,206.07L79,200.21s-1.06.56,1.35-6.76.45-7.35.45-30.64-11.32-39.15,0-65.34,41.46-35.14,41.46-35.14h35.6s12.61,3.13,27.93,17.57,20.5,33.32,18.93,43.71-6.76,40-6.76,46.41,1.25,26.22,6.31,35.6S195.55,248,216,248s24.33-47.76,24.33-47.76-2.11-33.6-4.95-47.76-6.47-26.68,9-50a62.14,62.14,0,0,1,40.1-26.59h28.39A49.37,49.37,0,0,1,330,83.05c8.79,5.82,11,7.57,20.73,16.68s16.27,32.91,12.16,41.9c-7.6,16.65-5.4,47.34-5.4,58.13s2.25,12.16,2.25,12.16-5,2.62-5,7.66S369.65,231.7,366,234.9s-2.25,8.57-2.25,8.57V383.15C363.76,421.79,393.78,436.53,387.19,443.08ZM264.63,494.45a15.78,15.78,0,1,0-15.78-15.78A15.78,15.78,0,0,0,264.63,494.45Zm-42.81,0a15.78,15.78,0,1,0-15.77-15.78A15.78,15.78,0,0,0,221.82,494.45Zm-45.06,0A15.78,15.78,0,1,0,161,478.67,15.78,15.78,0,0,0,176.76,494.45Zm23-241.07a15.77,15.77,0,1,0,15.77,15.77A15.77,15.77,0,0,0,199.74,253.38Zm0,38.3a15.77,15.77,0,1,0,15.77,15.77A15.77,15.77,0,0,0,199.74,291.68Zm105,35.6c-1.19.93-7.73,5.78-8.56,10.81-1.52,9.09,1.32,10.36,4.95,19.38a139.79,139.79,0,0,1,5,16.22s4.14,14-24.33,20.72c-21.45,5.07-53.9,3.16-83.36,3.16-34.35,0-43.58.95-53.62-5s-8.62-18.41-8.11-28.84,13.06-23.88,13.06-23.88A88.07,88.07,0,0,0,156,369.63c6.26,15.14,29.33,11.27,59,11.27,13.35,0,48.85,1.54,58.65-4.49,11.61-7.16,12.54-15.35,13-27.51.88-23.34,2.46-52.46-1.8-70.29S265.68,249.92,261.47,248s-16.22-1.35-16.22-1.35-3.39.09-9.91,6.76-5.13,8.55-8.11,19.82-2.46,23.43,5,29.74,21.39,5.71,27.94,3.61,10.81-11.27,10.81-11.27,1.45,4.07,2.26,7.21c-4.84-18.84,14.45,40.47-5.41,52.27-9.36,5.57-58.87,3.61-68.94,3.61-8.69,0-21.25,1.31-32-14.42s-2.26-52.27-2.26-52.27l-6.75.9s-1.12-3.44-5,9.46a84.6,84.6,0,0,0-3.61,23.43S137.89,335,130.35,344s-9.46,15.29-9.46,41.9c0,27.12,9.71,31.43,29.29,32.45s122.1,4.36,145.54-3.61,17.84-24.17,19.82-42.81C319.92,330.74,308.17,324.57,304.73,327.28Zm45.06,75.24s-.36-20.4-1.35-28.38c-.84-6.75-6.54-10.39-9.32-12.92-1.57-1.43-2.52-2.68-6.91.3-10.87,7.39-6.3,20.73-6.3,20.73s-1-.63,4.5,5.86c9.55,11.31-8.79,34-20.27,36.94-13.8,3.49-51.49,5-102.74,5-54.65,0-78.85-3.56-85.16-7.66s-9.78-15.26-10.45-25.23.9-181.59.9-181.59,2.61-45,2.25-55,5.41-41,5.41-41a57.83,57.83,0,0,0-9.83-5.4,74.31,74.31,0,0,0-11.26-2.71s-1.44,1.55,0,13.07-2.28,75.2-3.61,89.67-4.82,172.4,0,201.86,34.37,36.14,58.13,36.5,114.45,3.79,148.7-2.25S340,426,345.28,416.94,349.79,402.52,349.79,402.52Z"/></svg>