<svg id="Layer_1" data-name="Layer 1" xmlns="http://www.w3.org/2000/svg" viewBox="0 0 1346.04 533.11"><path d="M238.84,149c-24-4.55-46.16-9.07-68.42-12.8-10.69-1.79-16.6-8.91-23.71-14.92.4-.92.8-1.84,1.19-2.76,3.23-.24,6.45-.67,9.67-.69,35-.27,70-.27,104.94-.85,8.52-.14,13.89,2.51,18.26,10,19.65,33.81,20.45,21.42-2.69,53-9.92,13.53-19.79,27.14-30.55,40-5.84,7-4.82,11.65.36,18.28,14.32,18.35,28.28,37,41.55,56.13,3.87,5.57,6.84,13,7,19.68.59,27.36-.05,54.75-.29,82.13-.06,6.34-.11,12.6-9.19,13-8.49.35-11.1-3.85-12-11.66-3-24.43-6.28-48.83-10.22-73.11A24.26,24.26,0,0,0,257,310.87c-16.24-13.68-33.26-26.43-49.67-39.91-4.6-3.79-8.36-4-12.63-.41-17.63,14.82-38.4,17.57-60.59,17.18-28.11-.5-56.24.46-84.36.72-8.23.08-22.77-9.57-24.38-17.2-.39-1.85,4.07-6.51,6.77-6.94,24.68-3.93,49.46-7.21,74.22-10.68,11.19-1.57,22.46-2.76,33.55-4.88,4.4-.84,9.48-2.71,12.44-5.83,27.59-29.07,54.8-58.51,82.09-87.88C235.72,153.61,236.73,151.87,238.84,149Z"/><path d="M429.63,128.58c36.44,0,71.79-1.5,106.94.46,29.58,1.64,51.44,25.08,54.93,53.69,3.94,32.37-9.65,56.78-38.17,68.58-1.53.63-3,1.42-5.44,2.58l45.28,76.45c-16.86,0-32,.31-47.11-.33-2.27-.1-4.87-4.32-6.45-7.13-10.25-18.17-20.66-36.27-30.15-54.83-4-7.86-9-11.07-17.67-10.05-6,.7-12.2.13-19.33.13v71.43H429.63Zm42.82,92.88c19.37-.9,37.82-.6,55.92-3,12.52-1.67,19.28-12.66,19.4-25.41s-6.87-24.33-19.16-25.52c-18.43-1.78-37.15-.46-56.16-.46Z"/><path d="M625.43,330.48v-202h142v36.71h-99V208.1h97.76c0,11.54.47,22.09-.41,32.52-.18,2-5.6,5.12-8.64,5.17-25.38.42-50.76.24-76.14.25H668.27v46.12h99.84c0,12.14.18,23.26-.22,34.36,0,1.38-3.14,3.79-4.84,3.8C717.5,330.52,671.94,330.48,625.43,330.48Z"/><path d="M845.13,257.57v72.19H802.66v-201a33.31,33.31,0,0,1,5.11-.81c31.2,0,62.4-.47,93.58.3,38.47,1,63.45,27,63.42,64.78,0,37.51-25.22,63.24-63.82,64.47C882.87,258.05,864.75,257.57,845.13,257.57Zm.65-91.94v54.28c17.08,0,33.48,1,49.7-.28,16-1.25,25.79-12.52,25.82-26.65,0-14.61-10.12-26-26.56-27.11C878.81,164.76,862.74,165.63,845.78,165.63Z"/><path d="M1209.84,330h-42.92c0-7.83,0-15.2,0-22.56-.14-20.16,3.8-41.53-1.65-60.15-5.34-18.24-20.22-33.72-31-50.36-14.45-22.35-29-44.66-44.73-69,16.54,0,31.36-.3,46.15.3,2.41.1,5.22,3.84,6.88,6.49,15.07,24,29.92,48.17,45.73,73.72,2.63-3.83,4.74-6.65,6.59-9.64,13.16-21.21,26.45-42.34,39.26-63.76,3.21-5.36,6.77-7.61,13.06-7.38,12.63.45,25.29.13,39.86.13-2.68,4.43-4.46,7.54-6.4,10.54-21.9,33.89-44,67.65-65.57,101.75a34.92,34.92,0,0,0-5,17C1209.52,281.08,1209.84,305,1209.84,330Z"/><path d="M1118.9,292.41v38.16h-19c-32.9,0-65.8-.18-98.69.13-7.62.08-10.91-1.58-10.86-10.12.33-60.87.16-121.74.21-182.61,0-3,.48-5.95.79-9.48h42.4V292.41Z"/><path d="M359.33,106.91a33,33,0,0,1-33.51,32.87c-18.4-.39-32.63-15.3-32.42-34A32.93,32.93,0,0,1,326.91,73C345.31,73.33,359.52,88.19,359.33,106.91Z"/><path d="M613.64,382.22c8.94-2.9,14.75-.13,20,7.49a414.93,414.93,0,0,0,37.14,46.7V382h13.44v81.69c-8.67,3.23-14,.51-19-6.82A491.06,491.06,0,0,0,627,407.73V464.5H613.64Z"/><path d="M512,423.71c-.14-25.08,17.19-43,42-43.35,25.29-.38,43.61,17.51,43.75,42.74.15,25-18.29,43.7-43.15,43.63C530.14,466.65,512.18,448.51,512,423.71Zm43.76-31c-17-.39-28.92,11.62-29.57,29.74-.62,17.45,11.34,31.34,27.6,32.05s28.89-12.23,29.57-30.08S572.2,393,555.79,392.66Z"/><path d="M790.86,381.72h55.83c.23,3.53.44,6.76.77,11.72H819.33c-15.4,0-15.42,0-15,15,.07,2,.35,4,.65,7.27h41.27v12.47c-10.9,0-21.8.55-32.62-.15-11.75-.77-9,7.23-9.33,13.63-.34,6.55-.55,12.23,9.24,11.48,10.83-.83,21.78-.19,33.21-.19v11.33H790.86Z"/><path d="M864.62,381.47c13.49,0,26.18-.69,38.76.18,15.1,1,23.92,11.09,24,25.53s-8.37,24.45-23.48,26.06c-8.1.86-16.37.15-25.72.15v30.82H864.62Zm13.52,39.09c8.85,0,16.9,1.26,24.25-.48,4.19-1,9.2-6.44,10.16-10.71.86-3.78-2.17-10.71-5.58-12.74-9-5.36-19.12-3.91-28.83-1.86Z"/><path d="M490.7,442.06l10.35,5.35c-4.88,13.3-20.4,21.18-37,19.08-21.53-2.73-36.83-18.32-38.39-39.14-1.61-21.43,10-39.09,29.6-45.12s37.47.21,46.34,16.2c-4.74,2.62-8.21,7.71-14.89,1.45-11.53-10.81-28.16-9.52-38.59,1.66-11.42,12.24-10.92,33.13,1.07,44.72,11.26,10.88,26.61,10.79,38.71-.3A26.6,26.6,0,0,0,490.7,442.06Z"/><path d="M777.14,398.44l-10.25,5.44c-17-14-32.48-14.68-43.93-2.42-11.24,12-10.75,33.31,1,44.74,12.13,11.8,26.94,10.79,42.57-3.62l10.11,5.18c-9.19,16-24.51,22-43.24,17.51-19.84-4.77-31.74-19.1-32.7-39.35-1-20.67,9.33-36.68,27.77-43.13C747.85,376,765.13,381.3,777.14,398.44Z"/><path d="M974.85,464.48H961v-71H936.38V381.84h63.54v10.75c-2,.3-3.63.7-5.27.78-19.8,1-19.8,1-19.8,21.39Z"/></svg>