<?xml version="1.0" encoding="utf-8"?>
<!-- Generator: Adobe Illustrator 24.3.0, SVG Export Plug-In . SVG Version: 6.00 Build 0)  -->
<svg version="1.1" id="Layer_1" xmlns="http://www.w3.org/2000/svg" xmlns:xlink="http://www.w3.org/1999/xlink" x="0px" y="0px"
	 viewBox="0 0 472.15 584.05" style="enable-background:new 0 0 472.15 584.05;" xml:space="preserve">
<style type="text/css">
	.st0{fill:#FF6200;}
	.st1{fill:#FF6200;}
	.st2{fill:#FF6200;}
	.st3{fill:#FF6200;}
	.st4{fill:#FF6200;}
	.st5{fill:#FF6200;}
	.st6{fill:#FF6200;}
	.st7{fill:#FF6200;}
	.st8{fill:#FF6200;}
	.st9{fill:#FF6200;}
	.st10{fill:#FF6200;}
	.st11{fill:#FF6200;}
	.st12{fill:#FF6200;}
	.st13{fill:#FF6200;}
	.st14{fill:#FF6200;}
	.st15{fill:#FF6200;}
	.st16{fill:#FF6200;}
</style>
<g id="Shahed_2_">
	<path d="M413.65,68.05c-8.68,6.16-16.36,13.27-25.38,17.61c-15.39,7.4-31.5,13.36-47.52,19.37c-14.16,5.31-28.55,10.04-42.94,14.7
		c-7.91,2.56-10.14,8.49-10.94,15.78c-1.51,13.64-5.18,26.76-9.65,39.69c-9.71,28.1-23.99,53.68-41.91,77.35
		c-5.58,7.38-10.25,15.45-15.28,23.24c-0.59,0.92-1.09,2.05-1.17,3.12c-0.1,1.3-0.07,2.86,0.59,3.86c0.33,0.51,2.27,0.37,3.28-0.01
		c13.22-4.97,26.59-9.61,39.56-15.19c18.08-7.77,36.2-15.58,53.65-24.63c16.67-8.64,32.56-18.78,48.64-28.52
		c3.12-1.89,5.23-2.17,7.39,0.82c1.92,2.67,0.96,4.68-1.1,6.97c-13.84,15.37-31.87,24.48-49.93,33.48
		c-15.85,7.9-31.62,16.05-47.91,22.96c-16.08,6.82-32.66,12.5-49.22,18.1c-5.37,1.82-11.27,0.96-16.59-1.71
		c-2.95-1.48-4.52-3.89-4.88-7.13c-0.97-8.72,1.41-16.41,6.88-23.27c18.67-23.45,35.22-48.24,47.93-75.49
		c7.02-15.05,12.68-30.46,14.44-47.16c0.81-7.71,2.42-15.35,3.78-23c0.59-3.32,2.45-5.34,5.98-6.2
		c26.28-6.37,52.17-14.01,76.94-24.98c10.41-4.61,20.6-9.73,30.69-15.01c4.19-2.19,7.9-5.32,11.73-8.14
		c4.58-3.37,6.3-3.32,10.38,0.67C411.72,65.96,412.31,66.63,413.65,68.05z"/>
	<path d="M164.14,260.19c-4.11,2.37-7.92,4.78-11.92,6.83c-8.59,4.39-14.85,2.89-21.54-5.54c-1.02-1.29-2.06-2.56-3.37-4.2
		c-3.54,4.36-6.55,8.03-9.53,11.72c-5.74,7.12-11.79,13.92-20.17,18.06c-5.11,2.52-11.93,1.24-12.92-5.57
		c-0.23-1.58,0.43-3.69,1.43-4.97c3.28-4.17,6.74-8.24,10.42-12.06c12.29-12.74,26.14-24.11,33.69-40.85
		c1.88-4.17,6.04-6.35,10.9-6.2c3.79,0.12,5.59,2.6,4.59,6.32c-2.29,8.52-4.61,17.01-4.12,25.99c0.25,4.56,2.27,6.16,6.61,4.52
		c7.75-2.92,13.38-8.76,18.45-14.86c8.84-10.64,13.51-23.62,18.99-36.14c2.05-4.68,0.83-7.76-2.57-10.97
		c-5.18-4.88-6.24-12.04-3.1-18.34c2.1-4.21,6.93-6.87,11.48-5.59c3.79,1.06,7.65,2.48,10.93,4.6c7.22,4.66,12.66,11.28,13.49,19.91
		c0.64,6.68-0.2,13.7-1.58,20.32c-3.54,16.89-10.78,32.26-21.31,45.96c-3.72,4.84-8.39,8.76-14.03,11.39
		c-3.13,1.46-5.69,0.65-7.81-1.77C168.75,266.01,166.53,263.13,164.14,260.19z M198.9,205.93c-5.64,12.83-11.12,25.32-16.75,38.13
		C193.49,239.39,203.05,218.03,198.9,205.93z"/>
	<path d="M398.3,462.51c0-13.3-0.06-26.59,0.07-39.88c0.02-1.56,0.71-3.42,1.73-4.57c0.62-0.69,2.98-0.83,3.67-0.22
		c1.12,1,2.09,2.81,2.12,4.3c0.17,10.62,0.09,21.25,0.09,31.87c0,7.53,0,15.07,0,23.11c-2.98,0-5.77,0.24-8.49-0.12
		c-1.04-0.14-2.32-1.44-2.8-2.51c-5.83-13.03-11.53-26.11-17.28-39.17c-0.44-0.99-1.06-1.89-2.17-3.83c0,10.36,0,19.61,0,28.87
		c0,4.22,0.01,8.45-0.01,12.67c-0.01,2.36-1.22,3.88-3.57,4.05c-2.36,0.16-4.02-1.21-4.03-3.53c-0.09-18.65-0.05-37.31-0.05-55.82
		c0.55-0.26,0.77-0.44,0.99-0.45c9.91-0.38,9.74-0.16,14.42,11.61c4.51,11.37,9.72,22.47,14.62,33.68
		C397.84,462.54,398.07,462.52,398.3,462.51z"/>
	<path d="M375.05,333.05c-1.51-0.39-3.16-0.42-4.29-1.21c-1.2-0.83-2.71-2.43-2.63-3.59c0.08-1.16,1.92-3.06,3.08-3.12
		c5.61-0.32,11.28-0.49,16.86,0c3.55,0.31,6.58,2.48,8.2,5.92c3.04,6.45,6.11,12.89,8.91,19.45c2.37,5.55-0.3,10.58-2.42,15.49
		c-1.83,4.27-4.08,8.35-6.21,12.49c-2.14,4.18-5.68,6.28-10.31,6.41c-4.35,0.12-8.71-0.17-13.04,0.09
		c-3.14,0.19-5.34-1.19-5.38-3.93c-0.04-2.63,2.4-3.89,5.15-3.82c0.62,0.01,1.25-0.07,2.07-0.12
		C375.05,362.35,375.05,347.69,375.05,333.05z M383.16,332.91c0,14.88,0,29.51,0,44.05c3.7,0.98,5.79-0.13,7.23-3.64
		c1.94-4.74,4.94-9.08,6.65-13.88c0.95-2.68,0.99-6.24,0.05-8.92c-1.69-4.81-4.6-9.18-6.67-13.88
		C388.96,333.35,386.88,331.94,383.16,332.91z"/>
	<path d="M98.43,469.45c0-14.89,0-29.44,0-44.15c-1.49-0.38-3.21-0.47-4.49-1.26c-1.18-0.73-2.84-2.51-2.6-3.31
		c0.43-1.39,2.1-3.29,3.35-3.37c5.48-0.36,11.06-0.68,16.46,0.08c2.69,0.38,5.95,2.56,7.38,4.89c3.74,6.05,6.85,12.53,9.75,19.05
		c2.51,5.63,0.48,11.07-2,16.25c-2.17,4.53-4.4,9.04-6.7,13.51c-2.03,3.93-5.5,5.78-9.77,5.96c-4.47,0.18-8.96-0.16-13.42,0.11
		c-3.01,0.19-5.08-1.22-5.23-3.71c-0.16-2.64,2.13-4.06,4.92-4.04C96.72,469.45,97.36,469.45,98.43,469.45z M106.49,425.12
		c0,14.86,0,29.49,0,44.04c3.66,0.96,5.78-0.06,7.22-3.59c1.93-4.75,4.93-9.08,6.65-13.89c0.96-2.68,1.02-6.24,0.09-8.91
		c-1.69-4.81-4.59-9.18-6.67-13.88C112.32,425.62,110.26,424.15,106.49,425.12z"/>
	<path d="M153.92,350.92c7.77,0,15.14,0,23.06,0c0-6.36,0-12.71,0-19.05c0-1.15-0.42-2.6,0.12-3.39c0.93-1.38,2.46-3.25,3.73-3.25
		c1.27,0,2.96,1.84,3.68,3.27c0.62,1.22,0.15,3.01,0.15,4.54c0,15.49,0.06,30.97-0.09,46.46c-0.02,1.62-0.83,3.81-2.04,4.72
		c-2.61,1.95-5.48-0.14-5.53-3.91c-0.08-7.02-0.02-14.04-0.02-21.29c-7.73,0-15.19,0-23.06,0c0,6.84-0.04,13.58,0.02,20.33
		c0.03,2.76-0.35,5.36-3.68,5.47c-3.6,0.12-4.04-2.57-4.04-5.49c0.04-16.25,0.04-32.51,0-48.76c-0.01-2.93,0.43-5.61,4.03-5.5
		c3.33,0.1,3.72,2.7,3.69,5.46C153.87,337.17,153.92,343.82,153.92,350.92z"/>
	<path d="M287.64,358.95c-7.92,0-15.29,0-23.06,0c0,6.92-0.04,13.66,0.02,20.4c0.03,2.76-0.36,5.36-3.69,5.46
		c-3.6,0.11-4.03-2.58-4.03-5.51c0.04-16.25,0.04-32.51,0-48.76c-0.01-2.93,0.44-5.61,4.04-5.49c3.33,0.11,3.71,2.72,3.68,5.47
		c-0.07,6.65-0.02,13.3-0.02,20.26c7.59,0,15.06,0,23.06,0c0-6.24,0-12.58,0-18.93c0-1.28-0.42-2.85,0.17-3.76
		c0.83-1.29,2.43-2.9,3.69-2.89c1.26,0.01,2.67,1.7,3.69,2.93c0.45,0.53,0.12,1.73,0.12,2.62c0,16.13,0,32.25,0,48.38
		c0,0.51,0.01,1.02,0,1.54c-0.05,2.52-1.26,4.17-3.83,4.17c-2.57,0.01-3.83-1.64-3.84-4.15
		C287.63,373.54,287.64,366.4,287.64,358.95z"/>
	<path d="M342.97,457.91c-2.73,0-5.01,0.02-7.29-0.01c-2.52-0.03-4.17-1.26-4.17-3.83c0-2.57,1.65-3.82,4.17-3.83
		c4.84-0.03,9.68-0.01,15.25-0.01c-0.31,6.21-0.37,12.14-0.99,18.01c-0.54,5.15-4.11,8.21-9,8.61c-6.48,0.52-13.07,0.6-19.55,0.05
		c-5.2-0.44-8.79-4.35-8.99-10.07c-0.29-8.75,0.04-17.57,0.77-26.3c0.23-2.73,2.38-5.43,4.06-7.86c2.49-3.62,5.23-7.09,8.08-10.44
		c2.8-3.28,6.27-5.35,10.87-5.08c3.19,0.18,6.4,0.09,9.6,0.02c2.6-0.06,4.65,0.78,4.79,3.6c0.15,2.97-2.33,3.82-4.59,4.01
		c-3.43,0.29-6.91,0.04-10.36,0.11c-0.96,0.02-2.36,0.07-2.8,0.66c-4.26,5.84-9.17,11.43-12.21,17.88
		c-1.79,3.79-0.67,9.01-0.69,13.59c-0.05,12.42-0.02,12.42,12.4,12.42c2.3,0,4.61-0.02,6.91,0c2.52,0.02,3.75-1.19,3.73-3.72
		C342.95,463.31,342.97,460.89,342.97,457.91z"/>
	<path d="M320.09,332.65c0,6.39,0,12.23,0,18.45c3.59,0,7.02,0.17,10.42-0.05c3.12-0.2,4.31,1.87,4.34,4.1
		c0.02,2.21-1.58,3.79-4.31,3.66c-3.41-0.15-6.84-0.04-10.44-0.04c0,6.2,0,12.04,0,18.45c7.59,0,15.2-0.04,22.81,0.03
		c1.6,0.02,3.52,0.01,4.71,0.85c1.14,0.8,2.08,2.7,2.04,4.09c-0.03,0.93-1.9,2.57-2.97,2.59c-11.35,0.19-22.7,0.12-34.26,0.12
		c0-19.99,0-39.64,0-59.93c1.25,0,2.58,0,3.92,0c9.47,0,18.93,0.01,28.4-0.01c2.53-0.01,5.07-0.16,5.13,3.46
		c0.06,3.47-2.43,4.14-5.02,4.18c-7.29,0.13-14.58,0.05-21.87,0.05C322.11,332.65,321.24,332.65,320.09,332.65z"/>
	<path d="M146.51,417.19c11.49,0,22.73-0.08,33.96,0.13c1.15,0.02,3.1,1.71,3.19,2.75c0.12,1.28-1.04,3.11-2.19,3.96
		c-1.07,0.79-2.86,0.79-4.34,0.81c-7.54,0.07-15.08,0.03-22.92,0.03c0,6.06,0,11.99,0,18.45c3.31,0,6.72,0.2,10.1-0.06
		c3.3-0.25,4.61,1.91,4.57,4.26c-0.03,2.12-1.77,3.71-4.53,3.53c-3.29-0.22-6.62-0.05-10.18-0.05c0,6.15,0,12.08,0,18.45
		c7.41,0,14.79,0,22.16,0c1.28,0,2.59-0.14,3.82,0.13c2.4,0.52,4.14,1.77,3.72,4.64c-0.4,2.68-2.3,2.93-4.51,2.92
		c-10.86-0.04-21.72-0.02-32.85-0.02C146.51,457.18,146.51,437.43,146.51,417.19z"/>
	<path d="M98.17,333.52c2.38,3.11,4.75,6.23,7.16,9.32c7.26,9.33,14.58,18.61,21.77,27.99c2.26,2.95,3.22,6.08,0.94,9.76
		c-2.09,3.35-4.97,4.34-8.59,4.32c-6.02-0.03-12.03,0.03-18.05-0.02c-5.36-0.05-9.1-3.02-10.33-8.12c-0.69-2.85,0.57-4.82,3.18-5.61
		c2.76-0.83,3.63,1.17,4.44,3.42c0.39,1.07,1.79,2.48,2.77,2.52c6.63,0.22,13.26,0.12,20.98,0.12c-3.09-4.1-5.65-7.56-8.28-10.96
		c-7.08-9.14-14.21-18.24-21.27-27.41c-2.26-2.93-2.7-6.02-0.74-9.45c1.86-3.24,4.62-4.43,8.13-4.44
		c6.27-0.01,12.55-0.06,18.82,0.02c4.88,0.06,9.32,3.65,10.15,8.34c0.4,2.3,0.18,4.84-2.75,5.39c-2.66,0.5-4.73-0.25-4.96-3.66
		c-0.06-0.86-1.63-2.28-2.54-2.3c-6.64-0.2-13.3-0.11-19.95-0.11C98.74,332.94,98.46,333.23,98.17,333.52z"/>
	<path d="M233.05,469.43c-2.95-3.97-5.3-7.3-7.82-10.5c-7-8.9-14.17-17.68-21.07-26.66c-2.32-3.03-3.78-6.47-1.53-10.46
		c2.09-3.7,5.27-4.71,9.19-4.65c5.89,0.08,11.78-0.02,17.66,0.03c5.07,0.04,9.23,3.27,10.31,8.12c0.52,2.34,0.3,4.9-2.43,5.57
		c-2.73,0.67-5.03-0.06-5.21-3.74c-0.04-0.8-1.72-2.15-2.67-2.17c-6.64-0.19-13.29-0.1-21.1-0.1c1.85,2.59,3.17,4.58,4.62,6.45
		c8.18,10.53,16.42,21,24.57,31.54c2.28,2.95,3.4,6.04,1.24,9.75c-2.06,3.53-5.09,4.56-8.87,4.53c-5.89-0.06-11.78,0.01-17.66-0.02
		c-5.49-0.03-9-2.77-10.5-7.89c-0.85-2.91,0.4-4.94,2.86-5.79c2.79-0.96,4.03,0.92,4.67,3.52c0.23,0.94,1.38,2.34,2.14,2.37
		C218.33,469.51,225.19,469.43,233.05,469.43z"/>
	<path d="M239.46,381.61c-0.72,0.85-1.39,2.34-2.43,2.66c-1.17,0.36-3.44,0.11-3.88-0.65c-1.6-2.76-3.13-5.76-3.73-8.85
		c-0.52-2.64-1.67-3.01-3.84-2.95c-3.45,0.09-6.91,0.09-10.37,0c-2.16-0.05-3.55,0.2-3.81,2.95c-0.22,2.3-1.31,4.55-2.2,6.75
		c-0.84,2.1-2.19,4.07-4.8,3.22c-2.46-0.81-3.02-2.51-2.2-5.32c4.57-15.58,8.86-31.25,13.26-46.89c0.4-1.43,0.65-3.05,1.5-4.18
		c1.01-1.35,2.72-3.26,3.89-3.11c1.37,0.18,3.07,2.11,3.61,3.64c1.49,4.23,2.42,8.65,3.61,12.99c3.48,12.65,6.99,25.29,10.5,37.93
		C238.71,380.27,239.01,380.69,239.46,381.61z M220.4,343.06c-2.07,7.52-3.89,14.11-5.75,20.83c3.93,0,7.65,0,11.64,0
		C224.35,357.01,222.5,350.48,220.4,343.06z"/>
	<path d="M272,424.87c-3.32,0-6.38-0.07-9.43,0.02c-2.93,0.08-5.26-1.09-5.24-4.05c0.02-2.77,2.2-3.75,5.06-3.7
		c9.21,0.14,18.42,0.17,27.63-0.01c2.83-0.06,4.84,1.17,4.92,3.56c0.11,2.84-2.07,4.3-5.09,4.21c-3.17-0.1-6.34-0.02-9.7-0.02
		c0,14.88,0,29.42,0,44.58c3.04,0,6.18,0.1,9.31-0.03c3.11-0.12,5.58,1.14,5.48,4.21c-0.08,2.66-2.41,3.62-5.3,3.56
		c-9.08-0.18-18.17-0.16-27.25-0.01c-2.87,0.05-5.05-0.93-5.07-3.7c-0.03-2.96,2.3-4.14,5.24-4.06c3.05,0.09,6.11,0.02,9.44,0.02
		C272,454.61,272,439.98,272,424.87z"/>
</g>
</svg>
